<svg xmlns="http://www.w3.org/2000/svg" viewBox="0 0 200 200" preserveAspectRatio="xMidYMid slice"><path d="M2.3 0.0L0.9 5.5L0.0 6.8M4.4 0.0L5.5 1.3L6.3 5.5L11.8 14.0L14.9 12.3L16.8 9.4L18.8 7.9L23.9 12.5L28.0 14.1L29.0 18.0L32.5 21.2L38.4 33.0L47.7 40.0L59.6 44.5L70.6 46.5L77.6 46.2L80.0 49.0L87.8 48.0L93.3 49.0L98.2 53.3L98.0 58.0L104.1 62.0L104.8 68.2L107.1 72.9L104.7 74.5L103.3 78.4L101.1 80.0L85.5 84.8L80.8 88.7L77.8 94.1L74.5 95.3L71.3 99.6L61.2 104.6L60.3 105.9L60.3 107.5L63.5 109.0L63.8 110.6L62.8 112.2L60.3 113.7L59.5 116.1L60.7 122.4L63.2 127.1L65.9 130.2L68.2 131.2L72.9 130.8L75.3 131.5L99.0 146.7L98.7 147.5L95.6 149.0L89.4 149.0L86.3 150.3L85.5 151.4L86.7 152.9L90.6 155.3L92.5 159.8L97.7 161.6L97.9 162.4L96.5 164.3L93.2 166.3L94.9 169.2L100.3 174.9L105.9 177.2L107.8 179.6L105.1 181.8L99.6 183.5L97.3 181.5L90.2 178.0L89.7 180.4L93.3 187.5L86.3 191.3L84.7 195.3L83.1 195.1L80.9 193.7L74.5 187.7L67.8 179.6L63.4 176.5L61.8 173.3L59.8 166.3L54.6 156.9L51.3 153.7L45.2 144.3L43.1 142.7L40.0 141.6L36.9 138.7L34.6 133.3L32.2 130.7L23.5 126.1L19.0 120.0L12.5 115.7L11.0 112.9L7.9 110.6L7.8 103.8L7.1 102.5L5.3 102.0L4.5 98.0L3.1 97.3L0.0 97.4M58.2 0.0L61.5 3.1L63.6 7.1L72.2 11.4L78.4 12.5L86.3 9.9L90.2 11.0L95.7 14.3L99.5 18.0L114.8 29.0L120.0 34.9L126.8 40.8L131.6 47.8L132.4 51.8L135.1 57.3L142.0 60.1L145.9 63.2L148.0 62.7L149.8 59.8L155.3 54.7L159.2 55.1L163.1 54.0L167.8 53.9L171.2 57.3L171.8 60.0L174.1 59.3L176.0 59.6L176.1 61.2L175.2 63.5L171.8 66.8L170.2 70.6L166.9 74.5L166.0 76.9L167.1 80.4L169.7 84.7L167.6 88.6L170.2 100.4L173.1 104.3L173.9 106.7L170.1 117.6L172.1 134.1L172.5 145.1L174.5 156.9L176.5 161.6L175.8 163.9L176.3 167.1L175.6 169.4L174.8 184.3L172.8 188.2L171.9 192.2L172.5 193.7L174.1 194.9L176.5 194.9L179.6 192.1L181.7 192.9L182.8 194.5L182.0 196.1L178.8 197.0L177.5 200.0M147.5 68.0L147.5 68.0M134.1 89.4L134.1 89.4M70.3 200.0L68.7 192.2L67.5 189.8L64.3 186.7L58.8 177.8L56.6 172.5L55.5 167.1L52.9 163.9L52.6 160.0L49.9 156.1L49.4 152.2L43.5 148.2L40.0 144.0L36.2 142.0L34.3 138.0L30.1 135.7L26.7 130.5L22.7 128.1L20.4 125.4L17.8 125.5L13.7 122.4L12.6 118.4L6.7 112.2L5.9 107.5L6.4 105.1L3.9 106.7L2.4 106.8L2.2 105.1L3.6 101.2L3.1 98.9L0.0 99.2M63.5 105.9L63.5 105.9M0.0 193.5L2.4 195.9L3.7 200.0M114.5 194.2L114.5 194.2M92.7 0.0L94.1 1.2L97.3 0.0M101.5 0.0L102.6 7.8L105.5 9.4L106.2 11.8L111.5 20.4L118.4 23.4L128.4 25.1L129.3 28.2L131.8 31.7L137.3 34.9L140.4 35.4L143.5 34.6L147.7 31.4L149.2 29.0L150.0 25.9L148.8 18.0L149.1 14.1L147.4 8.6L147.6 7.8L149.8 7.2L174.1 15.0L187.5 26.5L194.5 30.2L200.0 31.2M139.6 47.8L139.6 47.8M122.4 93.3L122.4 93.3M0.0 105.5L2.0 103.5L2.7 101.2L2.4 100.3L0.0 100.4M66.9 200.0L63.9 192.2L62.0 189.5L57.7 180.4L56.9 176.5L54.1 172.0L49.4 158.0L48.6 152.5L40.9 148.2L39.8 145.1L38.4 144.0L36.0 143.5L32.9 138.1L29.0 138.1L27.3 137.3L26.8 135.7L27.1 132.5L25.9 130.8L23.5 129.9L20.4 127.2L16.4 127.8L11.0 125.6L9.9 122.4L11.6 120.0L11.3 118.4L7.8 115.9L4.7 109.8L3.1 110.7L0.0 110.3M109.0 124.6L109.0 124.6M0.0 152.9L4.8 158.4L6.4 164.7L11.8 174.1L14.8 189.8L18.0 193.3L23.5 195.3L26.0 200.0M174.9 190.6L174.9 190.6M114.5 195.7L114.5 195.7M105.5 0.0L105.4 2.4L103.9 4.7L103.9 6.3L105.9 6.7L108.2 5.3L111.2 6.3L109.6 8.6L109.2 11.0L111.5 17.3L114.5 19.4L122.4 20.6L127.1 20.0L132.5 16.7L137.3 18.8L144.3 18.5L145.4 17.3L142.7 14.1L142.0 11.8L138.0 9.0L136.2 9.4L134.9 11.6L133.3 12.5L132.8 8.6L130.2 5.5L130.4 2.4L128.9 0.0M184.3 0.0L185.3 2.4L190.7 7.8L196.1 12.0L200.0 13.4M134.1 24.3L134.1 24.3M120.0 94.8L120.0 94.8M66.0 200.0L63.4 195.3L62.8 192.2L58.8 185.3L58.3 182.7L56.8 181.2L56.3 177.3L53.4 173.3L51.5 168.6L51.1 164.7L49.0 160.8L48.1 152.9L39.2 148.6L39.0 145.1L35.3 144.0L32.9 138.8L31.4 138.4L29.0 139.5L25.6 138.0L25.4 135.7L26.4 132.5L25.9 131.6L22.7 130.3L20.4 128.3L15.7 129.3L9.1 127.1L8.7 122.4L10.3 120.0L10.2 118.6L7.1 116.2L4.7 112.3L1.6 111.9L0.0 113.1M0.0 142.5L1.6 143.3L5.3 147.5L8.4 152.9L11.0 154.7L15.7 164.3L21.5 167.8L23.7 175.7L28.4 185.9L26.7 188.8L23.5 188.6L23.2 189.8L24.2 192.2L29.8 200.0M106.7 0.0L107.5 2.9L109.8 4.3L111.0 3.1L111.0 0.0M126.3 2.9L126.3 2.9M137.3 10.5L137.3 10.5M133.3 25.6L133.3 25.6M120.0 95.6L120.0 95.6M65.4 200.0L62.6 195.3L62.1 192.2L60.7 190.6L57.9 183.5L55.9 181.2L55.7 177.3L52.5 173.3L50.4 168.6L50.7 164.7L48.0 160.8L47.8 153.7L47.1 152.9L38.4 149.4L37.6 148.2L38.4 145.9L37.9 145.1L34.7 144.3L32.9 139.6L32.2 139.1L29.8 140.5L25.1 139.1L24.4 137.3L25.8 132.5L25.1 131.6L22.7 131.0L20.4 129.1L14.9 130.3L11.8 128.6L7.8 128.1L7.4 127.1L8.5 124.7L7.9 122.4L9.4 119.2L6.3 116.2L4.7 113.3L3.1 113.1L1.6 115.0L0.0 115.0M0.0 138.9L4.1 142.7L5.2 145.1L9.0 148.2L9.7 152.2L19.7 160.8L20.2 161.6L19.7 163.9L20.4 165.4L27.5 170.0L35.3 180.4L37.9 188.2L36.0 192.9L35.6 196.9L32.9 196.6L28.2 193.5L27.2 193.7L28.9 197.6L30.9 200.0M126.3 4.5L126.3 4.5M119.2 6.2L119.2 6.2M125.5 6.6L125.5 6.6M138.0 11.6L138.0 11.6M133.3 26.6L133.3 26.6M118.4 97.1L118.4 97.1M65.0 200.0L62.1 195.3L61.9 192.9L57.8 185.9L57.3 183.5L55.2 181.2L55.6 178.0L51.8 173.4L51.2 171.0L49.9 169.4L50.4 165.5L49.9 163.9L47.4 161.6L47.9 157.6L47.2 153.7L37.6 149.9L36.8 148.2L37.2 145.9L34.4 145.1L32.2 139.8L29.8 141.4L26.7 140.0L24.3 139.8L24.0 135.7L25.1 132.5L24.3 132.0L22.7 131.6L20.4 129.6L14.9 131.0L11.8 129.3L7.1 128.7L6.3 127.1L7.9 124.7L7.4 122.4L8.2 119.2L4.7 114.7L3.9 114.6L2.0 116.1L0.0 116.2M105.1 116.4L105.1 116.4M0.0 136.9L1.6 137.3L3.1 141.1L9.9 147.5L11.0 152.2L16.5 156.4L19.6 156.9L21.6 159.2L22.0 161.6L21.1 164.7L25.1 167.3L27.6 167.1L29.5 170.2L32.9 171.1L41.1 187.5L40.2 192.2L43.1 195.3L44.1 200.0M29.8 196.0L29.8 196.0M35.9 200.0L34.5 198.6L32.9 198.2L32.0 198.4L31.7 200.0M125.5 7.7L125.5 7.7M138.8 12.5L138.8 12.5M134.9 26.6L134.9 26.6M113.7 98.7L113.7 98.7M83.1 105.9L83.1 105.9M64.5 200.0L61.6 195.3L61.4 192.9L57.3 185.9L56.8 183.5L54.8 182.0L55.2 178.0L51.6 174.1L50.5 171.0L49.1 169.4L50.1 165.5L49.4 163.8L46.7 161.6L47.6 157.6L46.5 153.7L37.3 150.6L35.8 146.7L33.7 145.2L32.2 140.9L29.8 142.1L27.5 140.7L23.8 140.4L23.5 135.7L24.3 133.3L20.4 130.2L14.1 131.6L11.8 129.9L7.1 129.6L5.4 127.1L7.3 124.7L6.9 122.4L7.5 120.0L6.9 118.4L4.7 116.1L0.0 117.1M0.0 135.8L2.4 136.8L3.2 140.4L5.9 142.0L7.7 145.1L10.2 146.7L11.3 151.4L13.3 153.6L17.3 155.9L19.6 155.3L22.5 158.4L22.9 160.8L22.1 163.9L22.7 164.5L25.9 166.3L28.2 165.5L30.6 169.7L33.7 169.1L38.1 179.6L42.0 186.7L41.6 191.9L42.4 192.3L44.7 191.6L45.0 192.2L45.1 200.0M125.5 8.6L125.5 8.6M115.3 10.1L115.3 10.1M138.0 14.4L138.0 14.4M135.7 27.3L135.7 27.3M113.7 99.5L113.7 99.5M82.4 106.5L82.4 106.5M64.1 200.0L61.2 195.3L60.9 192.9L56.5 183.9L54.1 182.0L54.7 178.0L51.0 174.1L49.9 171.0L48.4 169.4L49.7 165.5L49.0 163.9L46.1 161.6L47.3 157.6L46.3 154.2L40.8 151.9L37.1 151.4L35.1 147.5L33.5 145.9L32.2 142.2L30.6 142.8L26.7 140.9L23.4 141.2L23.5 133.3L20.4 130.7L14.1 132.2L11.1 130.2L7.0 130.2L4.8 127.8L5.1 126.3L6.6 124.7L6.3 118.4L3.9 116.7L0.0 117.8M0.0 135.2L3.1 136.4L3.8 140.4L6.3 141.5L7.8 144.5L11.1 146.7L11.7 150.6L13.4 152.9L17.3 155.3L20.4 154.4L21.8 156.9L23.5 158.0L23.1 163.1L23.5 164.2L25.1 165.3L27.5 164.2L28.9 164.7L30.6 168.6L34.5 167.9L38.8 179.6L42.5 185.9L42.4 190.6L47.1 189.9L47.6 190.6L45.8 193.7L45.8 200.0M126.3 9.1L126.3 9.1M115.3 11.2L115.3 11.2M137.3 27.3L137.3 27.3M112.9 101.0L112.9 101.0M81.6 107.3L81.6 107.3M63.6 200.0L60.8 195.3L60.4 192.9L56.2 184.3L53.6 182.0L54.5 179.6L54.3 178.0L50.5 174.1L49.8 171.8L47.8 169.4L49.4 165.5L48.6 164.0L46.3 162.7L45.5 161.6L46.9 157.6L46.0 154.5L40.0 152.1L36.9 152.1L32.9 145.9L32.2 143.3L29.8 143.2L26.7 141.4L23.5 141.9L22.7 141.3L22.7 133.5L20.4 131.2L14.1 132.6L11.0 130.6L7.8 131.0L6.3 130.3L4.3 127.8L4.5 126.3L6.1 123.9L6.4 120.0L5.8 118.4L3.9 117.3L0.0 118.4M0.0 134.7L3.3 135.7L3.9 139.8L6.6 141.2L8.6 144.7L11.8 146.4L12.2 150.6L14.1 153.0L17.3 154.7L20.4 153.1L22.0 156.3L24.3 157.1L23.7 162.4L24.2 163.9L25.1 164.4L27.5 163.5L29.2 163.9L31.4 168.1L35.2 167.1L35.5 170.2L38.2 174.9L39.0 178.8L43.0 185.9L43.2 189.0L43.9 189.7L47.8 189.0L48.6 189.7L48.2 191.4L46.4 193.7L46.4 200.0M137.3 27.8L137.3 27.8M111.4 102.6L111.4 102.6M80.8 108.9L80.8 108.9M73.7 111.4L76.1 111.0L76.7 111.4L76.1 112.4L73.7 112.7L73.7 111.4M91.0 112.7L91.0 112.7M63.2 200.0L60.5 195.3L55.8 184.3L53.3 182.5L54.1 178.7L50.2 174.3L49.3 171.8L47.3 169.4L49.1 165.5L48.0 163.9L45.3 162.4L45.1 160.8L46.6 157.6L45.5 154.5L40.0 152.6L36.9 152.8L31.9 144.3L26.7 141.8L22.7 142.2L22.4 134.1L20.4 131.7L14.1 133.0L12.5 132.7L11.0 131.1L6.3 131.0L3.9 127.8L4.3 125.5L5.5 123.8L5.8 119.2L3.9 117.9L0.0 118.9M0.0 134.3L2.4 134.4L3.9 135.5L4.4 139.6L7.2 141.2L8.8 144.3L12.4 145.9L12.2 149.0L14.1 152.4L17.3 154.1L20.4 152.3L22.5 156.1L25.1 156.3L24.5 163.1L25.1 163.6L28.2 162.8L29.8 163.4L31.4 166.9L32.2 167.3L35.3 165.9L35.8 166.3L35.7 169.4L38.9 174.9L39.5 178.8L43.1 185.0L43.9 188.7L45.5 189.0L48.6 188.3L49.3 189.0L48.6 192.2L46.7 194.5L46.9 200.0" fill="none" stroke="#2A2E28" stroke-width=".65" stroke-linejoin="round" stroke-linecap="round"/></svg>
