<svg xmlns="http://www.w3.org/2000/svg" viewBox="0 0 200 200" preserveAspectRatio="xMidYMid slice"><path d="M62.0 0.0L60.4 1.7L57.8 7.8L53.8 9.4L54.1 11.0L58.0 11.4L59.0 12.5L58.5 15.7L56.4 18.0L57.4 20.4L54.8 25.9L54.9 26.9L55.7 27.0L58.1 23.5L61.2 21.8L60.7 18.0L62.0 15.4L63.0 7.8L66.4 5.5L70.6 0.0M78.5 0.0L77.9 2.4L78.6 4.7L77.3 9.4L77.6 11.3L78.4 11.7L81.6 3.1L81.7 0.0M172.4 0.0L174.6 3.1L175.3 6.3L177.3 7.2L179.2 11.0L179.2 14.1L181.1 14.9L180.2 18.0L182.1 20.4L178.5 23.5L183.5 25.9L183.5 27.3L181.2 27.5L180.1 29.8L180.4 30.8L183.5 33.4L183.5 34.1L181.2 33.6L178.0 34.9L175.7 33.2L173.3 34.7L171.8 31.0L167.8 35.6L166.3 36.0L161.9 29.8L162.0 27.5L163.5 25.1L161.6 23.7L159.2 23.2L156.9 15.7L156.1 15.4L154.8 15.7L156.2 21.2L154.9 23.5L156.9 33.7L156.9 34.8L156.1 35.3L152.2 34.0L150.6 35.1L149.8 34.8L147.5 31.5L145.9 36.3L143.5 36.1L140.4 34.1L136.5 34.4L133.3 31.0L130.2 30.3L124.7 24.9L124.7 25.9L127.5 29.8L128.5 32.9L131.0 35.5L135.7 39.6L141.2 40.7L141.9 41.6L140.4 44.3L137.3 45.7L132.5 45.4L130.2 46.1L125.1 45.5L126.6 47.1L132.8 50.2L127.6 54.1L126.7 57.3L124.7 58.8L121.8 63.5L120.5 68.2L117.6 73.7L120.0 72.2L124.7 66.2L125.6 62.7L128.6 60.8L131.0 57.1L135.7 54.9L138.0 57.1L138.8 56.7L139.7 53.3L142.5 50.2L145.1 48.7L149.0 50.1L149.0 46.3L150.6 45.2L152.9 46.0L156.1 46.0L159.4 44.7L159.1 47.1L160.2 51.0L162.4 52.5L163.2 54.1L164.7 53.8L166.0 48.6L169.5 47.8L169.9 48.6L168.6 51.8L169.9 54.1L170.0 56.5L172.5 58.5L172.7 54.1L174.9 50.9L176.3 51.0L179.6 58.7L181.3 56.5L182.0 50.9L182.7 50.6L185.9 53.6L186.7 53.5L187.4 50.2L188.2 49.4L192.2 49.0L192.3 50.2L191.1 52.5L186.9 58.0L187.0 60.4L185.9 64.0L189.0 63.6L191.4 60.2L192.9 59.8L191.9 66.7L192.4 68.2L194.5 70.1L195.3 69.5L196.9 65.1L198.4 66.0L200.0 65.3M175.1 0.0L180.4 4.9L185.1 7.6L187.4 10.2L187.6 12.5L189.0 14.9L189.0 16.9L191.4 16.6L192.9 18.8L193.2 20.4L192.1 22.7L194.9 23.5L194.4 26.7L196.2 28.2L196.4 30.6L197.6 30.6L200.0 27.3M187.8 0.0L189.8 2.7L192.3 3.1L192.7 8.6L197.0 10.2L195.8 11.8L194.8 15.7L197.5 18.8L198.0 22.0L200.0 22.6M77.6 13.2L77.6 13.2M58.2 0.0L54.9 6.4L53.3 6.7L49.4 5.6L48.2 6.3L48.1 7.8L50.8 11.8L50.2 16.2L55.7 13.1L56.6 13.3L56.8 14.1L54.3 16.5L54.3 20.4L52.5 24.2L48.1 28.2L48.6 29.2L50.7 29.8L50.2 30.6L47.7 32.9L43.9 33.5L43.3 35.3L40.8 36.0L34.3 40.0L34.6 41.6L36.1 42.5L41.6 40.3L46.3 40.6L49.4 45.5L52.0 47.1L53.3 49.8L54.7 47.1L52.4 42.4L54.7 32.9L55.7 31.9L58.0 31.2L58.1 28.2L60.0 24.3L63.9 23.5L62.7 18.0L64.0 13.3L64.0 9.4L65.1 8.9L66.7 9.7L68.4 5.5L72.2 2.6L72.4 0.0M76.4 0.0L75.3 2.4L76.7 4.7L76.7 6.3L74.9 9.4L75.9 12.5L73.7 14.9L74.9 16.5L75.3 19.0L76.9 20.4L78.3 24.3L77.4 26.7L75.2 29.0L76.1 30.7L78.7 25.9L79.0 23.5L80.9 21.2L79.3 17.3L80.4 13.3L82.6 11.8L82.8 11.0L81.2 9.4L81.3 7.8L84.5 4.7L83.1 0.0M171.4 0.0L171.6 1.6L173.9 4.7L171.9 7.8L172.5 8.7L175.7 8.2L176.7 8.6L177.8 11.8L175.6 14.9L179.0 16.5L178.5 18.8L179.6 20.4L179.1 21.2L176.5 22.0L176.3 22.7L176.9 24.3L179.8 25.9L178.9 29.8L179.6 32.2L178.8 33.2L177.5 32.9L175.7 30.9L174.1 30.9L171.8 28.1L171.0 28.2L169.6 32.2L167.1 34.4L166.3 34.1L165.3 32.9L165.5 30.6L162.9 29.0L163.2 27.5L165.4 25.1L165.7 23.5L163.1 22.2L163.1 19.4L160.0 20.9L158.8 18.8L158.3 14.1L154.5 13.7L150.6 10.1L149.5 12.5L154.5 18.0L154.8 21.2L152.3 23.5L154.6 25.9L155.3 32.9L154.5 33.3L152.2 31.3L150.6 32.6L149.8 32.2L147.5 28.0L146.7 27.8L145.2 29.0L145.8 32.9L145.1 34.8L143.5 34.8L141.2 31.5L136.5 32.8L134.8 30.6L135.1 26.7L131.0 28.7L128.6 25.2L126.6 24.3L127.4 18.8L124.7 17.9L124.3 21.2L122.4 22.4L121.8 24.3L117.9 25.9L118.1 26.7L123.9 28.2L124.3 30.6L126.6 31.4L127.1 34.6L128.6 35.0L130.2 37.4L134.9 40.9L139.6 43.1L137.3 44.1L131.8 43.4L129.4 44.5L125.5 43.2L123.1 44.1L121.6 43.9L119.2 45.2L115.7 45.5L117.6 47.4L120.8 47.7L123.1 47.1L129.7 50.2L125.7 54.1L125.5 56.1L123.9 56.9L122.4 60.4L119.5 62.0L119.9 64.3L117.5 67.5L117.9 69.8L114.5 77.3L108.1 77.6L111.0 80.8L109.8 85.4L118.4 80.1L118.8 76.1L119.6 74.5L122.3 71.4L123.8 70.6L124.7 68.5L127.1 68.2L127.3 67.5L126.1 65.1L126.4 63.5L128.7 62.7L134.9 56.2L135.7 56.5L136.5 59.6L137.3 60.0L140.4 58.7L141.0 58.0L140.6 54.9L143.5 53.8L143.6 51.8L144.3 50.7L147.5 51.5L149.8 54.7L151.2 52.5L150.4 48.6L150.6 47.4L151.4 47.2L152.9 47.9L155.3 47.7L158.4 49.3L158.4 54.1L160.8 53.9L161.6 56.9L165.5 55.9L167.1 53.0L167.8 53.4L168.8 54.9L168.6 58.5L171.0 59.4L171.8 61.2L172.5 61.4L174.4 60.4L174.1 53.9L174.9 53.4L177.3 55.5L178.0 59.6L179.6 62.4L182.8 56.5L182.6 53.3L183.5 53.2L185.1 55.8L185.9 60.4L183.5 66.9L184.3 67.2L187.5 65.7L189.8 65.8L190.6 66.7L191.4 71.1L194.5 74.1L197.0 69.0L200.0 67.3M178.4 0.0L180.4 3.5L183.5 3.8L188.8 8.6L188.9 11.8L190.6 14.1L192.9 14.4L194.2 12.5L194.4 11.0L191.2 8.6L191.4 4.7L189.0 4.0L186.3 0.0M195.3 19.0L195.3 19.0M200.0 24.2L197.6 24.2L196.7 25.1L197.6 26.5L200.0 25.5M109.8 86.4L109.8 86.4M35.4 0.0L36.1 2.6L38.4 3.5L40.8 1.5L45.7 0.0M53.0 0.0L52.2 2.4L47.8 2.5L44.7 3.8L44.1 4.7L45.6 7.1L45.4 9.4L47.7 11.8L47.7 14.9L47.0 16.5L43.9 17.1L43.8 18.0L45.5 19.7L47.8 20.5L51.8 19.4L50.8 22.0L43.9 26.6L42.4 28.9L38.5 28.2L39.6 33.7L37.6 36.0L32.2 36.9L28.1 36.1L28.1 36.9L30.5 40.0L30.1 40.8L27.5 42.0L24.3 45.8L20.3 47.1L21.2 48.6L20.4 52.1L24.3 52.2L29.8 48.0L32.9 49.8L34.5 47.4L36.9 45.6L38.4 46.0L40.0 47.8L41.6 47.5L42.5 46.3L42.0 43.9L44.7 43.1L47.8 48.5L49.7 49.4L49.5 51.0L46.6 55.7L48.3 58.0L48.6 63.2L51.2 61.2L50.8 59.6L51.4 55.7L54.7 54.9L56.1 50.2L58.7 47.8L58.5 46.3L55.6 43.1L55.3 39.2L56.9 37.6L56.7 35.3L57.3 34.1L61.2 35.3L63.3 33.7L63.4 32.9L60.4 29.0L62.0 26.6L65.1 27.8L67.3 25.9L66.8 20.4L65.1 17.9L64.8 15.7L65.9 14.1L68.2 14.2L69.0 13.5L68.9 11.0L69.8 9.4L70.6 9.0L73.7 11.8L71.5 13.3L72.3 18.0L70.8 20.4L72.2 21.6L75.3 21.6L76.3 23.5L75.3 26.1L72.4 27.5L73.3 29.8L73.5 34.5L74.8 35.3L76.0 40.8L76.9 42.2L77.6 43.0L79.3 41.6L77.7 38.4L79.6 30.6L79.1 28.2L81.6 23.7L84.7 24.2L85.5 23.5L81.7 19.6L81.5 18.0L82.5 16.5L82.5 14.1L88.7 11.0L83.1 8.6L83.3 7.8L87.1 5.6L87.4 4.7L87.2 3.1L85.4 1.6L85.3 0.0M94.4 0.0L95.3 3.1L97.3 4.1L97.8 3.1L97.6 0.0M170.2 0.0L170.3 1.6L172.4 3.9L172.3 4.7L170.4 6.3L170.0 8.6L171.8 10.6L174.9 9.7L176.0 11.0L175.9 12.5L173.6 14.9L173.1 16.5L174.1 17.3L176.5 16.8L177.2 17.3L175.2 23.5L178.0 27.3L177.3 29.3L174.1 28.5L171.8 25.8L169.7 27.5L168.6 30.8L164.7 28.6L164.7 27.5L166.3 26.3L167.9 22.7L164.5 20.4L165.6 15.7L164.7 15.6L161.6 18.3L160.0 18.1L159.7 15.7L160.7 12.5L159.2 12.0L158.4 10.6L155.3 12.6L154.5 12.1L153.5 9.4L151.5 7.8L151.0 5.5L149.8 4.7L147.8 7.8L148.4 10.2L147.2 12.5L147.8 14.1L153.5 18.0L153.3 20.4L151.3 21.2L150.9 22.0L151.3 25.1L153.4 26.7L152.9 29.3L149.8 30.1L149.0 29.0L148.8 25.9L147.5 25.0L144.3 26.5L143.5 30.7L141.2 29.2L138.8 30.5L136.5 30.7L136.3 29.0L137.8 25.9L138.0 23.0L132.5 26.2L131.0 26.1L130.8 23.5L130.2 22.9L128.3 22.7L128.2 22.0L132.3 14.9L131.8 14.3L126.3 16.8L125.1 15.7L122.4 10.0L122.0 14.9L123.3 18.8L123.1 20.1L119.6 19.6L120.2 22.7L117.6 24.3L110.0 25.1L111.6 26.7L114.5 27.8L122.3 29.0L121.8 32.2L122.4 32.8L125.2 32.9L125.3 36.9L127.8 37.6L129.7 40.0L129.8 41.6L128.6 42.5L126.3 41.6L123.1 42.1L121.6 41.3L119.2 43.6L116.9 42.7L114.5 43.2L111.7 44.7L111.2 47.1L109.6 48.6L109.3 49.4L111.4 50.2L112.4 47.8L113.7 47.4L119.2 50.0L122.4 48.9L126.0 51.0L123.9 53.7L120.8 55.7L122.3 58.0L121.6 59.2L117.6 59.0L116.2 59.6L118.3 62.7L118.6 64.3L113.6 67.5L115.0 70.6L114.6 73.7L113.6 75.3L111.4 76.1L103.2 74.5L105.4 77.6L105.1 80.0L108.2 79.9L109.6 81.6L107.9 83.9L107.5 87.1L105.8 89.4L100.8 92.5L105.1 93.8L105.8 95.7L104.3 98.2L100.5 100.4L102.0 101.7L105.1 100.8L106.7 99.2L109.1 95.7L108.5 91.8L111.4 90.1L112.6 85.5L115.3 84.0L116.9 82.0L119.6 82.4L120.1 76.1L120.8 74.9L122.4 73.5L123.9 73.9L124.7 73.4L126.3 70.8L128.6 71.3L129.3 67.5L128.4 65.1L129.7 64.3L131.0 61.9L134.2 59.6L135.7 63.9L138.8 60.8L142.7 60.4L142.7 56.6L144.3 56.0L145.9 53.1L147.5 53.6L149.0 57.1L151.5 57.3L153.0 53.3L151.8 50.2L152.9 49.5L154.5 49.4L157.3 51.0L157.3 55.7L159.2 56.2L161.6 59.4L163.9 57.9L166.3 58.3L167.1 60.6L170.1 61.2L170.3 63.5L171.0 64.4L171.8 64.6L173.3 63.0L177.3 61.2L178.8 65.9L181.3 63.5L182.0 59.7L183.5 58.5L184.6 60.4L182.1 66.7L182.4 68.2L184.3 69.4L185.9 67.7L187.5 67.5L189.8 69.8L189.2 72.9L191.4 73.7L194.5 76.3L196.0 75.3L197.6 71.4L200.0 70.5M179.6 0.0L181.2 2.4L185.0 1.6L185.1 0.0M185.9 2.3L185.9 2.3M73.7 5.4L73.7 5.4M189.0 6.3L189.0 6.3M191.4 11.4L191.4 11.4M175.7 56.6L175.7 56.6M200.0 72.3L198.2 74.5L198.6 77.6L200.0 77.7M200.0 108.9L197.6 108.5L196.4 110.6L198.0 113.7L200.0 114.9M185.8 200.0L185.3 194.5L184.0 192.9L181.2 184.1L180.4 184.3L179.9 188.2L182.5 194.5L182.4 200.0M3.8 0.0L5.5 3.0L7.1 2.5L8.6 4.1L11.0 3.9L13.3 5.1L14.1 6.3L14.0 9.4L15.7 10.2L16.8 9.4L18.8 5.9L22.7 3.8L25.9 3.7L28.2 2.9L29.0 2.0L29.1 0.0M31.4 0.0L31.8 1.6L35.3 5.6L37.9 7.1L40.8 6.1L41.9 7.1L43.0 11.8L36.4 14.1L42.4 21.0L42.3 22.7L40.0 25.1L36.1 22.6L34.2 22.7L33.8 24.3L35.3 26.1L35.3 29.0L36.8 32.2L32.9 34.7L31.4 34.6L25.9 31.3L23.5 30.8L24.3 36.1L26.0 39.2L21.2 43.9L16.5 43.3L14.9 45.5L13.0 46.3L14.9 51.0L11.8 54.6L5.9 58.0L11.0 59.9L17.3 56.8L20.4 56.8L22.7 54.4L24.3 54.8L25.9 56.8L27.1 53.3L29.0 51.7L29.8 51.8L32.2 57.9L34.5 55.2L34.5 52.1L35.3 49.9L36.1 49.5L38.4 51.7L40.8 51.7L44.7 50.2L45.8 51.8L43.4 54.9L43.2 56.5L46.1 59.6L46.1 60.4L45.5 65.1L43.9 68.2L44.7 70.5L47.8 71.8L51.5 64.3L52.5 64.0L55.7 65.4L57.4 65.1L55.8 62.0L53.5 59.6L54.9 58.3L59.6 56.6L59.5 54.9L57.5 53.3L57.9 51.0L61.8 49.4L61.9 45.5L58.4 41.6L60.4 39.1L62.7 38.6L66.6 35.3L67.5 32.0L69.0 32.9L69.7 35.3L68.1 37.6L68.7 40.0L70.6 41.9L72.9 41.7L75.3 44.2L74.6 47.8L76.1 49.4L76.1 57.5L76.9 57.4L81.3 52.5L80.9 46.3L82.4 46.0L83.5 43.9L82.1 40.8L79.9 38.4L80.2 33.7L82.4 32.1L83.7 29.8L81.4 29.0L81.0 28.2L81.6 26.2L83.1 25.2L87.1 26.4L90.3 24.3L87.1 22.7L83.8 19.6L85.4 17.3L84.4 14.9L87.8 13.8L91.0 14.4L91.2 10.2L88.8 7.8L90.2 1.6L92.8 2.4L93.5 5.5L96.5 5.9L97.5 8.6L99.9 7.8L100.9 6.3L99.4 3.1L99.1 0.0M147.3 0.0L147.7 4.7L145.8 7.1L146.3 9.4L144.5 11.8L146.7 16.1L148.9 16.5L152.1 18.8L149.8 20.2L149.0 21.7L147.2 22.0L145.1 24.0L143.4 24.3L142.0 26.4L139.6 25.9L140.9 21.2L137.3 20.2L134.1 23.2L133.3 23.1L132.4 21.2L131.1 20.4L131.3 18.8L134.1 14.8L135.9 13.3L136.2 11.0L135.7 10.4L132.5 11.1L126.3 14.5L124.4 10.2L125.7 7.1L122.4 5.8L121.6 5.9L120.5 9.4L120.8 17.1L118.4 15.5L116.7 16.5L117.9 18.8L118.1 22.0L111.4 23.2L106.7 22.6L107.3 25.9L105.9 27.5L105.9 28.7L109.0 27.6L111.4 29.6L112.9 28.9L115.3 29.9L120.0 30.3L120.3 34.5L120.8 35.0L123.7 34.5L123.9 37.6L125.5 39.2L124.7 40.1L121.6 39.6L118.4 40.6L116.1 39.5L113.7 40.0L112.2 41.6L109.8 41.6L108.3 43.1L109.9 44.7L109.8 46.5L104.3 48.3L104.3 49.4L106.4 51.0L109.8 51.5L111.4 55.2L114.5 50.9L120.9 52.5L117.6 56.8L114.9 58.0L114.5 61.1L116.8 62.7L116.9 64.0L111.4 65.4L109.5 66.7L109.6 68.2L112.2 68.8L112.8 69.8L112.2 74.1L105.1 73.3L102.0 71.2L99.6 67.9L98.8 68.2L98.8 69.8L95.7 70.6L97.3 72.8L102.6 76.1L102.9 76.9L101.8 78.4L102.9 80.0L102.5 82.4L103.5 82.6L106.7 81.4L107.1 82.4L105.7 87.1L104.3 88.9L96.5 91.3L94.8 92.5L95.1 93.3L96.5 93.9L103.5 94.3L104.5 95.7L103.5 97.2L101.2 98.2L97.3 97.6L94.9 98.8L90.2 98.5L90.2 101.1L94.9 102.1L97.3 100.9L98.8 100.9L101.2 104.3L102.0 104.5L106.7 102.5L110.3 95.7L109.7 92.5L110.6 92.3L112.9 94.0L113.3 93.3L113.2 87.8L113.7 86.7L116.1 86.2L117.6 84.0L120.0 86.9L120.8 86.9L122.1 85.5L121.0 81.6L122.6 78.4L121.6 76.9L121.8 76.1L124.7 77.0L125.6 74.5L127.1 73.4L129.4 74.7L130.2 74.4L131.8 63.3L133.3 63.1L134.9 66.8L135.7 67.0L137.3 65.9L138.8 62.5L141.2 63.2L144.3 61.2L144.8 58.8L146.7 55.7L148.2 59.3L149.0 59.6L152.9 58.7L153.7 55.6L155.3 54.7L156.1 57.7L159.2 59.1L161.6 62.2L163.9 60.3L166.3 62.4L168.6 62.6L170.0 65.1L171.8 66.3L176.5 64.9L177.3 68.2L179.6 68.5L184.3 71.4L186.7 69.3L187.5 69.3L188.3 70.6L187.8 73.7L188.2 75.5L190.6 75.1L192.9 77.5L196.1 78.3L197.6 80.7L200.0 79.7M149.7 0.0L152.2 3.4L153.0 6.3L154.8 7.8L155.3 9.6L156.1 10.1L159.2 7.9L160.5 10.2L162.4 10.8L161.6 16.5L164.7 13.9L165.5 13.6L167.1 14.8L167.1 16.8L165.8 19.6L166.3 20.4L169.3 21.2L169.3 22.7L168.3 25.1L168.6 26.1L171.8 23.7L173.3 23.6L175.0 19.6L172.0 17.3L172.0 15.7L173.3 12.5L170.3 11.8L168.3 9.4L168.9 6.3L170.3 3.9L168.6 2.7L166.3 2.9L165.6 0.0M174.1 25.9L174.1 25.9M121.6 51.5L121.6 51.5M200.0 106.8L196.5 104.3L195.3 98.1L192.2 91.9L184.3 85.2L180.4 83.4L177.3 80.9L172.5 75.5L170.2 73.9L169.5 74.5L171.0 83.0L181.2 93.3L183.5 97.3L183.3 105.1L186.4 112.2L185.1 114.3L182.6 115.3L179.6 117.8L179.2 119.2L179.6 119.6L182.0 117.6L188.2 116.5L189.8 115.3L195.3 115.7L197.6 117.4L200.0 117.2M187.4 200.0L186.2 197.6L186.8 192.9L185.1 192.4L184.5 191.4L182.7 185.9L183.0 183.5L181.5 182.0L182.0 178.0L178.8 173.6L175.7 171.4L174.9 173.0L173.3 174.1L176.5 175.4L179.2 178.8L178.8 186.7L177.0 189.0L180.0 190.6L181.3 195.3L181.3 200.0M174.9 200.0L174.1 198.6L171.8 197.6L170.2 195.7L169.4 195.8L169.4 196.9L171.0 200.0M191.4 200.0L194.1 196.1L193.7 195.6L187.6 200.0M139.1 200.0L136.5 197.5L136.3 200.0M101.2 0.0L101.1 2.4L103.7 7.1L103.5 9.0L98.8 11.0L97.3 13.4L96.5 13.3L94.9 10.5L94.1 10.3L93.0 16.5L91.8 17.0L88.6 16.0L87.7 16.5L87.3 19.6L87.8 20.8L89.4 21.8L92.5 22.4L94.3 25.9L93.3 27.0L90.2 26.4L86.9 28.2L86.1 29.0L87.1 32.2L82.8 35.3L83.3 37.6L85.4 40.8L87.2 41.6L86.2 45.5L87.0 47.1L87.1 49.2L88.6 51.0L88.6 53.0L88.1 54.1L86.0 54.9L83.9 59.6L82.4 59.4L80.0 57.4L79.2 58.1L78.6 59.6L78.4 64.6L75.3 63.1L70.6 66.0L69.8 65.2L72.7 59.6L72.7 57.3L70.8 54.9L71.0 51.8L68.3 51.0L68.7 47.1L66.7 45.6L65.9 46.4L64.8 51.0L62.8 53.3L63.7 55.7L63.5 59.4L58.7 60.4L59.9 63.5L62.1 65.9L62.1 67.5L58.8 69.2L57.0 67.5L52.5 66.8L51.3 69.0L50.7 75.3L49.4 76.0L46.3 75.8L44.7 74.4L41.6 77.1L40.8 76.4L41.1 71.4L39.7 68.2L40.8 66.4L42.9 65.1L43.2 63.5L42.4 62.0L39.9 60.4L39.2 56.0L36.9 57.4L35.6 60.4L32.9 61.5L30.6 65.0L28.2 59.3L26.7 60.1L26.4 62.0L25.1 63.3L22.7 60.3L21.2 60.9L14.9 61.0L13.0 62.0L11.8 63.8L9.4 62.7L7.1 62.6L5.5 61.4L2.7 63.5L0.0 64.1M108.4 0.0L109.8 4.1L112.9 2.4L112.7 0.0M146.0 0.0L146.3 3.9L144.2 7.1L144.0 9.4L142.5 11.0L144.7 14.9L145.0 18.0L145.9 18.5L147.5 18.0L147.9 18.8L144.3 21.9L143.4 22.0L142.7 19.1L140.1 18.8L138.8 16.8L137.3 17.1L134.9 20.2L133.3 19.6L133.8 18.0L137.5 14.1L137.9 11.0L139.6 8.6L138.0 6.3L136.5 6.8L134.9 9.0L131.8 8.4L130.2 10.2L127.1 11.4L125.5 10.2L127.7 6.3L127.9 2.4L127.1 2.3L125.2 4.7L123.9 5.1L121.6 1.6L119.4 4.7L120.0 7.1L118.5 9.4L119.2 12.7L117.4 12.5L116.1 14.1L113.4 14.9L113.4 15.7L116.3 18.8L116.1 19.9L112.9 20.1L110.6 21.2L106.7 19.3L103.3 19.6L103.0 20.4L105.3 25.1L101.4 32.2L102.0 32.7L105.1 32.2L107.5 30.2L108.2 30.3L109.0 32.2L110.6 33.0L112.9 31.0L118.0 32.2L118.7 32.9L118.3 36.1L117.6 36.6L113.7 37.4L111.4 39.5L109.8 39.0L108.2 40.9L105.9 41.2L105.7 42.4L106.7 44.7L106.3 45.5L102.7 45.2L102.4 47.8L99.0 49.4L98.8 50.2L102.0 51.6L109.0 53.1L109.3 54.9L107.2 58.8L107.5 60.0L109.0 60.1L112.2 57.2L112.9 57.4L113.3 58.8L112.2 61.2L112.8 63.5L108.2 64.8L107.4 65.9L107.5 70.0L109.0 71.2L110.6 70.3L111.0 71.4L110.6 72.2L109.0 71.5L105.9 71.8L103.5 71.0L102.3 69.8L101.8 66.7L99.5 65.9L97.3 62.8L93.3 63.9L93.0 65.1L94.2 67.5L91.8 67.9L90.2 69.0L89.3 74.5L86.8 76.9L86.7 77.6L88.6 77.9L91.0 76.6L93.3 73.5L94.9 73.5L99.2 76.1L98.9 79.2L101.0 80.8L99.5 83.1L99.6 84.3L101.2 84.8L103.5 84.4L104.3 85.0L104.4 86.3L103.5 87.3L98.8 88.9L97.6 88.6L95.7 86.4L94.9 86.4L93.3 88.4L90.2 87.5L88.9 90.2L91.2 91.8L93.3 94.6L95.4 95.7L94.9 97.1L91.0 96.8L88.6 95.0L87.1 94.8L86.0 95.7L87.8 99.6L77.6 100.9L76.6 102.7L81.6 104.4L84.7 103.2L91.8 104.8L94.9 104.4L98.2 102.7L99.0 103.5L99.0 105.1L97.0 109.8L98.0 110.7L99.0 110.6L100.4 107.9L102.0 106.7L103.0 108.2L104.3 108.5L104.8 105.9L105.9 104.8L107.5 105.9L108.8 105.9L108.6 102.7L110.5 102.0L110.2 98.0L112.2 96.3L114.5 97.8L115.9 97.3L114.4 91.8L114.6 88.6L117.6 88.4L120.0 90.2L121.6 89.6L122.1 87.8L124.2 85.5L122.4 81.4L126.4 78.4L127.0 75.3L129.4 77.1L130.9 76.9L132.4 71.4L133.3 70.0L136.5 68.5L139.6 65.4L142.1 65.1L145.1 63.0L146.7 60.8L149.0 61.4L150.6 60.5L155.3 59.6L159.2 60.9L160.8 63.6L163.9 62.9L165.5 63.9L167.8 64.0L171.8 67.7L174.9 67.2L177.3 70.2L185.9 73.0L187.5 77.2L188.2 77.8L190.6 77.9L197.6 82.4L200.0 81.5M153.3 0.0L154.5 5.6L157.6 6.8L160.0 5.9L160.9 6.3L164.7 11.6L168.4 14.1L168.4 18.0L169.4 18.8L170.6 18.0L170.8 14.9L166.9 9.4L167.3 4.7L164.7 4.3L163.8 2.4L161.6 1.4L160.4 0.0M0.0 58.1L1.7 57.3L2.4 55.3L4.7 54.9L7.5 53.3L8.6 50.7L10.0 49.4L9.2 47.1L5.6 43.1L5.5 41.3L7.1 40.7L11.0 42.1L16.5 38.4L18.8 39.6L20.5 39.2L21.0 38.4L20.5 36.9L21.6 34.5L17.9 29.0L19.6 25.4L22.0 27.0L25.1 27.1L29.0 29.8L31.1 29.8L31.9 29.0L31.8 27.5L29.0 25.1L28.1 23.5L29.5 21.2L29.8 18.6L32.7 17.3L31.8 14.9L31.6 11.0L32.2 9.7L33.8 8.6L32.2 6.8L29.0 7.4L19.7 12.5L19.2 14.9L18.0 15.6L16.5 15.6L14.9 13.6L14.1 13.5L11.0 15.0L9.4 15.0L10.4 11.0L9.1 8.6L4.7 6.7L2.4 6.4L0.0 3.1M94.1 9.0L94.1 9.0M34.5 17.8L34.5 17.8M171.8 19.5L171.8 19.5M118.4 36.2L118.4 36.2M115.3 53.3L115.3 53.3M200.0 105.2L197.6 103.5L197.6 98.0L196.1 94.9L195.8 91.8L197.3 87.8L192.9 89.6L190.6 86.5L189.0 86.1L185.1 83.3L180.4 81.7L171.8 72.9L164.7 69.2L157.6 66.7L152.2 66.4L148.4 67.5L138.8 73.0L134.7 77.6L133.9 80.0L137.4 87.1L137.0 88.6L134.4 92.5L134.5 94.9L135.7 96.3L136.5 96.4L137.3 94.7L138.9 89.4L139.3 84.7L142.5 78.4L144.3 77.0L151.4 74.1L154.1 74.5L155.3 76.0L158.4 75.3L160.0 76.2L167.1 85.3L168.8 86.3L169.4 89.8L171.0 89.2L172.5 91.2L174.1 90.7L177.3 91.9L181.0 94.9L181.9 97.3L180.6 101.2L181.0 105.1L179.8 107.5L181.2 109.3L184.1 110.6L184.7 112.2L184.3 112.9L179.6 115.1L177.3 117.1L171.0 116.9L165.4 119.2L167.8 119.2L169.4 120.6L171.8 120.1L177.7 120.8L178.4 122.4L178.8 128.2L179.9 127.8L180.1 124.7L183.0 119.2L186.7 119.4L189.0 122.0L191.4 117.7L193.7 118.2L193.8 120.8L196.9 121.3L200.0 119.6M131.0 104.2L131.0 104.2M200.0 191.6L197.6 191.9L196.9 188.9L196.3 189.0L194.8 192.9L192.9 193.6L191.4 195.8L187.5 197.8L189.4 189.0L188.2 188.3L185.9 190.7L185.1 190.0L184.9 187.5L183.9 185.9L187.7 180.4L186.7 179.9L184.3 181.8L182.7 182.0L182.3 180.4L183.5 177.2L181.5 175.7L180.7 174.1L182.0 168.6L183.3 167.1L182.7 167.0L179.2 171.8L178.0 171.7L175.6 166.3L175.1 163.1L171.8 161.2L172.9 163.1L174.2 168.6L174.1 171.7L165.3 171.8L168.6 174.7L171.8 175.1L174.1 176.9L175.7 176.4L177.5 178.0L178.0 179.6L177.5 182.7L176.5 183.7L176.8 185.9L173.6 186.7L173.1 187.5L176.5 191.0L179.0 191.4L178.6 194.5L180.0 197.6L179.7 200.0M144.8 200.0L144.9 196.9L142.7 195.8L140.4 198.0L135.7 193.5L133.3 193.7L131.8 190.9L130.2 194.6L126.7 194.5L129.4 197.1L133.3 198.1L134.3 200.0M178.4 200.0L177.3 199.6L175.4 196.9L173.3 196.8L171.8 194.5L166.3 191.5L163.1 192.7L163.1 193.7L163.9 194.8L167.8 196.7L169.8 200.0M200.0 193.5L196.1 196.0L193.1 200.0M114.2 0.0L114.5 4.7L112.2 4.6L109.8 7.4L107.5 3.9L106.6 3.9L105.8 4.7L105.1 11.5L102.0 12.7L99.6 14.9L93.3 18.6L90.2 18.8L89.6 19.6L90.5 20.4L94.9 21.2L96.2 25.1L96.2 27.5L94.1 28.9L91.0 28.3L89.5 29.0L90.1 34.5L87.4 36.1L91.4 40.0L90.5 43.1L92.7 51.0L92.5 54.9L89.4 60.4L90.2 61.1L91.8 59.8L94.1 60.2L96.5 58.8L98.0 58.8L100.4 63.3L103.0 65.1L103.5 69.0L104.3 69.6L105.1 69.4L105.8 65.9L108.1 62.7L107.5 62.1L104.3 62.2L103.7 59.6L106.2 57.3L107.4 54.9L107.0 54.1L104.3 53.7L101.2 54.6L99.6 52.8L97.0 51.8L96.7 50.2L97.9 47.8L100.6 47.1L101.2 44.1L103.8 43.1L103.8 40.0L104.3 39.4L107.5 39.4L108.5 37.6L110.6 36.1L108.2 33.9L105.9 34.7L103.5 34.3L101.2 35.9L98.0 33.3L98.2 32.2L100.4 30.6L102.0 28.1L102.9 24.3L102.7 23.4L100.5 22.0L100.9 19.6L100.3 17.3L101.2 16.4L105.1 17.3L106.7 15.6L107.5 15.7L109.0 18.3L111.8 18.0L111.4 14.1L114.5 12.2L118.1 7.1L117.6 3.9L120.2 0.0M123.5 0.0L123.9 2.2L124.7 2.6L127.0 0.0M130.1 0.0L128.9 7.1L129.4 8.4L131.8 5.9L136.5 4.3L138.8 1.1L140.4 6.0L141.2 6.4L143.5 5.6L144.8 3.9L144.5 0.0M155.1 0.0L155.3 3.9L157.6 4.8L162.2 3.9L157.8 0.0M162.4 4.0L162.4 4.0M163.1 5.5L163.1 5.5M163.9 6.2L163.9 6.2M139.6 11.3L139.6 11.3M0.0 51.6L2.4 51.2L3.8 49.4L3.7 46.3L0.2 41.6L0.9 38.4L3.9 37.9L5.5 35.6L7.1 35.2L10.2 38.1L14.9 34.5L15.7 32.9L13.6 30.6L13.4 26.7L16.8 20.4L16.5 19.5L14.1 19.7L11.8 17.8L7.8 19.6L4.7 20.0L4.7 14.1L0.0 12.4M23.5 17.9L23.5 17.9M113.7 33.7L113.7 33.7M67.5 61.2L67.5 61.2M200.0 127.6L198.4 124.7L195.3 123.6L193.7 124.2L191.4 123.6L190.1 126.3L189.0 126.5L187.1 124.7L186.4 122.4L185.1 121.8L184.2 122.4L183.7 124.7L182.0 125.2L181.5 126.3L183.2 133.3L182.8 134.9L181.8 135.7L179.6 131.1L177.4 132.5L175.7 135.8L174.8 135.7L174.6 134.1L175.1 131.0L177.3 125.9L176.5 122.5L174.9 122.7L172.5 125.3L170.2 124.6L167.1 128.1L166.5 127.1L167.4 123.9L167.1 121.8L165.5 122.0L159.2 125.1L157.2 124.7L160.5 121.6L159.5 118.4L162.4 118.4L162.4 114.8L164.7 116.1L166.3 115.5L168.6 115.6L171.0 114.0L172.5 115.0L176.5 115.4L177.3 113.7L180.1 112.2L180.2 111.4L178.8 109.5L176.4 109.0L176.4 106.7L174.9 103.5L178.2 102.0L180.1 96.5L179.8 95.7L174.1 95.4L171.8 97.5L169.4 93.4L165.5 94.9L165.6 90.2L164.1 88.6L163.8 85.5L162.4 83.1L160.0 81.7L158.4 79.8L157.9 80.8L158.8 82.4L158.4 84.0L155.3 84.5L152.9 86.3L152.4 83.9L153.4 80.8L151.4 78.0L148.2 79.4L145.1 79.0L143.5 79.6L141.0 84.7L142.4 87.8L140.8 91.0L142.2 93.3L140.1 94.9L138.8 100.3L135.4 103.5L134.1 106.2L131.8 106.8L128.2 109.8L125.2 115.3L125.0 119.2L121.6 124.2L120.0 125.4L119.3 124.7L119.2 122.8L115.5 126.3L112.9 127.3L111.4 129.6L104.3 130.5L103.1 129.4L102.6 127.1L103.2 124.7L104.1 123.9L111.4 122.3L113.8 120.8L115.8 117.6L117.5 110.6L119.0 108.2L129.4 96.5L130.4 86.3L130.1 83.9L130.8 80.8L130.2 79.2L127.8 79.1L125.1 81.6L124.7 82.4L125.8 86.3L123.7 88.6L123.9 91.8L120.0 92.5L116.9 90.8L116.1 91.2L117.9 98.8L116.1 100.2L112.1 98.8L111.7 99.6L112.6 102.7L110.3 104.3L111.3 107.5L110.6 108.9L107.5 107.8L105.1 111.7L99.6 113.0L95.7 113.2L94.8 111.4L95.6 107.5L94.6 106.7L93.3 106.9L91.0 109.2L90.2 109.2L89.4 107.2L88.6 107.4L82.4 111.8L80.2 110.6L80.8 108.2L80.0 106.3L76.1 106.1L71.4 109.4L68.5 108.2L70.6 105.1L69.0 102.0L69.0 99.5L72.9 100.7L74.5 100.4L75.3 95.8L77.6 96.3L80.0 98.2L83.9 97.3L80.5 92.5L80.8 91.7L84.7 91.8L86.1 91.0L84.9 87.1L85.5 86.3L88.6 84.4L93.3 83.7L95.7 84.1L96.5 83.4L95.9 80.0L96.4 77.6L94.1 76.3L91.8 78.8L88.6 80.6L84.7 80.9L82.6 79.2L83.0 74.5L86.7 74.5L85.3 68.2L85.6 67.5L89.0 65.9L90.1 61.2L89.4 60.5L88.6 61.7L86.3 62.9L82.4 63.9L80.8 68.6L77.6 69.7L74.5 68.7L71.4 75.1L70.7 72.2L67.5 68.0L65.9 68.2L64.3 71.5L61.2 71.6L58.8 73.8L58.0 73.7L56.5 69.7L54.9 69.4L52.0 76.1L43.9 78.3L41.6 83.3L39.4 81.6L39.2 78.9L36.7 77.6L38.1 74.5L37.5 72.2L34.5 71.4L32.9 69.5L29.8 69.9L25.9 67.4L23.5 67.9L21.2 65.3L15.7 64.8L12.5 69.4L9.4 66.3L7.1 67.4L5.5 66.8L3.9 68.6L1.6 67.4L0.0 68.3M151.4 61.8L151.4 61.8M36.1 64.1L36.1 64.1M187.5 79.9L187.5 79.9M200.0 89.3L198.4 91.0L198.7 93.3L198.0 94.9L199.3 96.5L199.3 98.8L200.0 99.7M200.0 131.2L197.6 131.7L195.3 131.3L193.6 133.3L196.1 134.1L198.0 135.7L194.8 142.0L195.3 142.5L200.0 140.5M200.0 184.7L195.3 186.4L194.5 190.9L192.2 191.8L191.0 194.5L189.8 194.9L189.8 192.2L191.3 190.6L190.6 186.4L186.7 186.9L185.6 185.1L190.6 178.9L191.5 175.7L190.6 175.5L187.7 178.0L185.1 178.9L184.8 177.3L185.9 174.1L185.1 173.6L182.7 174.6L182.0 173.3L182.7 170.9L185.6 167.1L184.4 163.9L185.1 159.7L184.3 159.3L181.0 167.1L178.8 169.2L177.0 166.3L176.5 160.6L174.1 160.9L172.8 159.2L172.5 156.9L170.3 156.1L168.6 154.3L167.4 154.5L167.1 156.1L170.1 160.0L168.7 162.4L171.7 163.9L173.2 170.2L171.8 171.0L164.7 169.2L158.4 169.2L157.6 169.4L157.0 171.8L161.6 171.5L163.2 172.5L163.1 174.8L166.3 174.2L167.8 176.2L171.8 176.5L171.0 180.2L172.5 180.1L175.7 178.2L176.2 178.8L174.4 182.7L174.2 185.1L171.8 185.0L170.4 185.9L175.7 192.8L177.3 192.9L176.5 194.6L173.3 193.9L168.3 190.6L166.1 187.5L165.5 185.0L164.6 185.1L163.9 190.8L162.4 190.5L160.0 188.3L158.6 189.8L159.9 192.9L162.1 194.5L162.2 196.9L166.3 197.0L168.4 200.0M200.0 155.1L198.4 155.3L199.2 157.6L200.0 158.0M200.0 163.8L196.7 163.9L198.4 166.3L198.9 168.6L200.0 168.7M145.8 200.0L146.7 196.8L142.7 194.7L139.2 195.3L138.0 192.0L135.7 189.0L133.3 188.9L131.0 184.5L130.2 184.4L128.2 185.9L129.5 189.8L128.6 192.4L122.4 189.9L121.1 191.4L124.7 196.1L128.6 199.3L131.0 199.2L131.6 200.0M200.0 196.1L196.9 196.7L194.7 200.0M43.1 200.0L39.2 198.1L36.8 198.4L37.0 200.0M60.5 200.0L59.6 199.1L56.5 198.4L50.2 198.9L48.7 200.0M132.3 0.0L131.2 2.4L131.8 3.8L136.5 1.8L137.4 0.0M141.2 0.0L140.7 2.4L142.0 4.1L143.0 3.9L143.7 2.4L142.6 0.0M112.2 6.9L112.2 6.9M98.8 24.0L98.8 24.0M0.0 35.6L1.5 34.5L3.1 30.8L6.1 29.8L6.5 27.5L6.0 25.9L4.7 25.1L2.4 27.1L0.0 27.4M94.1 32.7L94.1 32.7M94.9 35.1L94.9 35.1M103.5 36.7L103.5 36.7M96.5 54.7L96.5 54.7M154.5 63.4L154.5 63.4M200.0 143.4L197.6 142.9L195.3 146.0L191.4 145.0L190.8 144.3L194.0 139.6L195.0 136.5L194.5 135.9L190.6 137.5L189.5 137.3L190.6 134.0L194.5 129.5L197.6 130.0L198.2 129.4L196.9 126.1L192.9 126.2L189.0 129.3L186.7 127.1L184.1 127.8L185.8 134.1L183.5 137.0L182.1 141.2L179.6 143.3L179.0 142.0L179.6 133.9L178.8 133.6L178.3 134.1L177.6 136.5L174.9 139.0L173.3 139.1L170.7 138.0L170.3 137.3L173.0 133.3L174.1 127.5L171.0 130.2L170.2 130.3L169.4 128.8L168.6 129.1L164.7 134.6L162.3 132.5L164.7 127.8L164.7 124.9L161.6 125.9L159.2 128.1L156.6 127.1L154.5 131.1L152.9 128.8L151.4 127.8L151.6 126.3L156.1 122.6L158.4 121.6L157.6 119.2L154.6 117.6L154.7 116.9L155.3 114.4L159.2 115.3L159.2 110.6L160.0 110.4L161.6 111.7L163.9 111.0L167.8 112.4L170.2 109.6L173.3 112.8L174.3 112.2L173.3 109.8L173.8 106.7L171.8 104.9L169.3 104.3L169.8 98.0L169.1 96.5L167.8 96.4L163.9 99.6L162.4 99.2L163.0 94.1L161.4 88.6L161.9 86.3L160.9 85.5L160.0 88.9L156.1 87.5L153.7 89.5L153.1 91.0L153.8 95.7L152.9 96.6L149.9 91.8L149.8 82.9L149.0 82.5L143.2 83.1L142.7 84.0L145.7 86.3L146.3 87.8L145.7 95.7L144.3 97.1L142.0 97.9L141.5 99.6L142.0 101.6L144.3 103.8L142.7 105.2L137.2 104.3L139.6 112.2L138.8 114.0L135.7 109.8L132.5 108.9L129.4 111.3L128.7 113.7L127.1 115.7L127.8 117.8L131.0 118.4L131.0 120.8L133.6 128.6L133.3 130.6L129.4 125.0L126.3 122.4L123.9 124.1L119.2 130.9L116.2 131.0L115.2 131.8L114.7 138.0L117.0 140.4L116.9 141.4L112.9 140.5L112.0 138.0L110.5 137.3L110.1 134.1L106.7 133.3L103.5 136.6L102.0 134.1L98.0 134.8L85.5 142.1L82.4 140.8L75.3 142.3L72.0 140.4L73.9 138.0L74.4 136.5L73.5 135.7L67.5 134.4L66.9 134.1L67.5 133.3L73.7 131.3L78.5 132.5L80.8 135.4L82.4 135.8L85.5 131.3L88.6 130.3L101.2 122.2L108.2 121.0L110.6 121.2L112.9 120.1L114.5 116.9L114.2 113.7L115.4 112.2L115.6 109.8L123.8 100.4L123.9 97.5L127.1 96.4L128.5 94.9L127.8 90.5L127.1 89.4L125.9 89.4L125.9 91.8L124.7 93.5L118.2 94.1L119.2 99.6L117.6 101.3L114.5 102.3L112.6 105.1L112.5 108.2L111.5 110.6L110.6 111.2L108.2 110.8L106.2 114.5L103.5 114.1L95.7 115.7L92.5 115.1L91.8 113.7L89.4 113.5L87.8 112.6L85.5 113.7L83.8 116.9L82.4 117.4L80.8 116.7L79.4 113.7L77.6 113.8L76.5 112.9L76.1 110.3L74.5 110.7L71.4 114.1L69.0 112.6L65.1 113.9L61.6 112.2L64.3 110.2L64.5 107.5L67.0 105.9L67.2 105.1L65.5 102.7L66.7 95.7L68.2 95.5L72.2 97.7L72.1 94.1L72.8 92.5L76.8 92.5L78.4 88.4L80.9 87.1L81.1 83.9L79.8 82.4L77.6 75.3L75.8 75.3L73.8 80.8L71.4 80.9L68.2 83.1L66.5 79.2L67.4 76.1L66.7 74.9L62.9 76.1L62.3 77.6L61.2 78.0L58.0 78.2L55.7 76.2L48.3 78.4L44.8 81.6L44.4 85.5L42.4 89.5L39.2 85.5L35.8 84.7L35.7 82.4L33.5 80.8L32.2 76.5L30.6 75.4L27.5 74.9L25.1 72.7L22.7 72.4L17.3 70.1L11.8 73.1L9.4 72.0L6.3 71.6L3.9 73.2L1.6 72.3L0.0 72.5M177.3 72.8L177.3 72.8M174.1 98.3L174.1 98.3M200.0 147.8L198.4 148.6L198.0 149.8L198.4 151.1L200.0 152.3M200.0 183.2L197.6 184.4L196.1 183.5L194.5 183.9L192.9 189.2L192.2 187.9L192.3 185.1L190.6 184.4L187.8 185.1L187.6 184.3L189.6 182.7L193.9 174.9L191.4 172.6L189.8 173.6L188.2 176.0L186.7 176.8L187.3 174.1L189.0 171.8L188.7 171.0L184.0 171.8L185.1 169.2L189.0 166.7L189.6 165.5L185.6 163.9L185.7 162.4L187.1 160.0L186.4 157.6L184.3 156.5L182.9 158.4L180.4 164.7L179.6 165.7L178.8 165.5L178.0 163.9L178.3 156.1L174.9 159.0L174.1 158.9L174.6 152.9L174.1 151.8L171.8 154.8L171.0 154.8L169.4 150.6L167.8 150.7L166.3 152.2L162.4 149.6L161.6 152.2L158.1 156.1L159.9 156.1L162.4 154.2L164.7 154.7L168.9 160.0L167.8 160.8L165.2 160.8L165.0 161.6L166.5 163.9L169.9 164.7L171.8 168.7L171.0 169.2L164.7 167.6L156.9 167.2L155.9 167.8L155.1 171.0L153.7 171.8L151.4 171.7L151.2 172.5L152.9 174.7L156.9 175.3L158.4 173.2L160.8 172.7L161.5 173.3L159.8 176.5L161.6 176.8L165.5 175.7L167.1 178.1L169.6 178.0L169.2 180.4L170.2 181.8L172.5 182.4L169.3 185.1L168.6 187.8L167.1 186.7L166.3 183.6L163.9 182.5L163.1 182.7L163.2 185.9L162.4 187.9L159.2 184.6L158.1 187.5L155.4 188.2L155.4 189.0L157.8 191.4L158.4 194.2L160.8 195.3L160.3 196.9L160.8 198.1L165.5 198.4L165.9 200.0M200.0 153.4L196.1 152.1L193.3 152.9L196.9 156.4L198.4 158.9L200.0 159.6M200.0 162.5L194.5 161.4L193.4 163.1L193.9 164.7L196.7 167.1L196.9 171.2L197.6 171.4L200.0 170.0M151.3 200.0L148.6 197.6L148.7 195.3L147.7 192.9L148.7 190.6L147.5 189.5L147.1 188.2L147.8 185.9L145.9 186.0L144.5 185.1L142.0 179.7L139.2 179.6L142.7 183.5L143.4 186.7L142.7 188.2L140.4 190.4L137.6 189.0L135.7 184.7L133.3 184.7L131.8 180.7L130.2 179.2L127.8 183.3L125.5 182.6L124.5 183.5L124.8 185.1L127.8 188.2L127.1 189.8L125.5 189.7L120.0 185.6L119.2 188.4L117.5 189.0L119.2 192.6L125.9 200.0M76.1 200.0L76.1 198.0L74.5 196.8L74.0 194.5L72.2 192.9L71.4 191.0L70.6 196.4L69.8 197.2L67.5 197.1L65.9 198.7L63.5 198.3L61.2 196.5L57.3 196.4L54.9 195.4L52.5 195.9L47.8 195.1L44.7 195.3L43.3 193.7L44.1 190.6L43.9 187.4L41.7 193.7L40.0 194.8L36.9 195.4L34.5 194.9L28.2 191.3L25.1 191.4L14.9 189.5L8.6 189.9L4.0 191.4L0.0 194.5M111.6 200.0L111.4 197.1L108.2 195.8L107.2 192.2L105.1 191.2L103.7 192.9L103.7 198.4L101.3 198.4L101.1 200.0M156.6 200.0L154.6 195.3L153.7 195.1L151.4 200.0M17.7 200.0L14.9 197.4L12.5 197.7L7.1 195.8L0.0 195.4M198.4 198.2L198.4 198.2M121.6 200.0L120.9 197.6L118.3 194.5L114.6 188.2L118.4 181.5L119.2 181.1L121.6 183.0L122.4 182.8L124.5 180.4L124.7 177.2L125.5 176.9L127.8 177.9L129.0 174.1L133.3 178.5L133.4 171.8L134.1 167.8L138.0 169.3L138.8 171.6L139.5 171.8L141.2 169.1L146.2 177.3L148.6 177.3L150.4 182.7L152.1 184.3L151.9 187.5L152.9 189.7L154.5 186.0L156.8 185.9L156.3 184.3L156.9 183.1L159.3 182.7L161.6 184.8L161.7 182.0L163.1 180.7L167.8 182.7L167.8 181.1L164.7 177.8L160.8 178.7L157.6 177.8L155.0 178.0L150.9 174.9L149.1 171.8L149.8 169.4L149.1 167.1L149.8 166.7L150.6 166.9L152.2 170.0L153.8 170.2L154.4 164.7L155.3 163.6L157.6 165.3L162.4 165.2L164.7 166.0L165.8 165.5L162.8 160.8L163.6 159.2L164.9 158.4L163.9 155.6L162.4 155.4L159.2 158.2L154.5 156.8L152.9 157.1L151.7 155.3L151.5 154.5L152.9 153.5L157.6 153.9L160.5 151.4L160.6 149.8L158.5 146.7L160.5 146.7L164.7 149.1L166.3 148.3L168.6 148.8L170.2 148.3L171.8 152.4L173.5 149.8L175.7 149.0L176.5 154.6L180.0 152.2L180.4 158.4L179.6 160.8L180.4 161.8L181.1 160.0L180.4 158.4L182.7 156.1L183.5 153.2L185.1 151.7L185.9 152.3L186.7 155.3L188.6 156.9L188.7 160.0L190.6 162.3L192.9 159.5L196.9 160.7L197.2 160.0L195.3 157.0L191.9 154.5L191.1 152.2L191.4 150.1L195.3 150.6L196.2 149.8L196.1 148.6L192.2 146.6L189.8 149.4L187.5 148.7L186.3 147.5L186.1 145.1L187.8 142.0L187.5 136.3L185.9 136.4L185.1 137.4L182.8 144.3L180.4 146.4L177.5 144.3L177.3 139.5L173.3 143.0L168.6 140.3L168.1 138.0L169.9 134.1L167.8 132.6L167.0 133.3L166.8 135.7L165.1 139.6L163.9 140.3L162.7 139.6L162.4 136.3L159.5 136.5L161.9 129.4L161.6 128.8L158.4 131.5L156.9 131.3L154.5 137.6L153.0 137.3L152.6 136.5L153.3 133.3L152.0 131.0L151.4 130.6L149.0 131.5L148.2 131.0L147.9 129.4L149.2 127.8L149.6 124.7L152.9 123.2L155.2 120.8L152.3 117.6L153.1 115.3L152.3 112.2L152.9 110.6L156.9 112.3L157.6 111.5L156.9 108.2L157.6 107.4L160.0 107.5L161.6 109.1L163.9 107.9L167.1 108.5L168.7 107.5L165.8 103.5L166.2 101.2L162.4 102.4L160.5 100.4L161.4 96.5L160.5 94.1L157.6 91.4L156.9 91.1L155.5 91.8L155.7 94.9L157.0 98.0L156.9 99.7L154.5 99.7L152.9 100.4L149.0 95.5L146.2 98.8L145.7 100.4L148.2 102.4L148.9 104.3L148.2 105.5L141.2 108.8L141.6 110.6L145.1 112.2L145.4 112.9L144.3 114.5L141.1 116.1L142.7 120.0L142.0 120.5L138.0 118.7L134.9 112.1L132.5 113.1L132.4 114.5L133.9 116.1L134.1 119.2L134.9 120.8L134.4 124.7L135.7 126.8L137.8 127.8L136.9 130.2L137.3 133.3L138.0 134.3L140.7 134.9L140.8 135.7L138.3 138.0L138.0 140.4L138.8 142.7L136.5 143.0L136.2 140.4L133.7 138.0L133.6 135.7L131.8 134.4L128.6 127.5L126.3 126.6L125.5 125.4L124.7 128.6L122.3 131.0L122.3 132.5L124.1 135.7L122.4 136.7L119.0 136.5L123.1 142.6L124.5 147.5L123.9 152.2L121.6 152.8L119.2 155.1L118.1 152.9L117.6 149.5L116.1 148.0L114.5 144.8L112.9 144.1L105.9 145.4L105.9 141.2L105.1 140.2L102.7 142.5L101.2 146.0L96.5 146.5L96.2 144.3L99.6 140.8L100.4 139.0L100.5 137.3L99.6 136.4L92.5 139.4L90.2 141.9L87.4 143.5L86.0 153.7L84.7 155.4L80.0 158.7L79.7 157.6L81.8 152.2L81.5 148.2L82.3 144.3L81.6 143.1L78.5 143.5L72.9 146.1L69.8 149.2L68.4 145.1L66.7 142.7L64.3 143.9L62.0 142.5L58.8 143.7L50.2 141.1L45.5 141.9L43.1 140.8L37.6 140.5L33.6 138.8L31.4 136.6L24.3 136.8L22.7 134.9L23.5 131.8L25.6 134.9L28.2 135.1L31.9 131.8L35.3 130.3L43.9 129.4L52.5 127.2L58.8 127.6L62.0 125.9L66.7 125.5L76.9 125.9L87.8 128.7L90.2 126.1L92.5 126.0L94.9 124.5L95.5 123.1L94.6 120.8L95.7 119.4L98.8 120.9L101.2 119.3L105.9 119.9L108.2 117.4L109.8 118.1L110.6 119.4L112.2 119.2L112.4 117.6L110.8 113.7L109.0 113.5L107.5 116.7L104.3 116.0L100.4 116.4L95.7 118.3L94.1 117.4L91.8 117.8L90.1 116.1L88.7 116.1L83.9 120.8L74.5 116.4L71.4 117.8L69.0 116.4L65.9 117.0L62.0 115.1L57.3 114.6L57.2 112.9L62.1 105.1L63.4 97.3L61.2 94.9L56.5 94.2L51.8 95.6L47.8 92.3L43.9 92.4L41.6 93.7L40.8 93.2L39.2 89.2L37.6 88.2L33.7 87.5L32.1 83.9L29.0 81.0L16.5 74.9L11.8 75.8L7.8 75.4L4.7 76.5L0.0 76.4M73.7 84.7L73.7 84.7M120.8 96.2L120.8 96.2M188.2 131.8L188.2 131.8M40.8 132.1L40.8 132.1M197.6 160.8L197.6 160.8M192.2 166.2L192.2 166.2M200.0 177.1L198.8 173.3L197.6 173.3L196.1 174.4L192.9 178.8L191.5 182.0L192.2 183.1L194.5 182.0L198.4 182.7L200.0 181.7M94.4 200.0L92.5 194.9L89.4 193.6L87.1 194.7L83.1 194.6L79.2 190.6L78.4 187.5L76.9 186.9L74.5 184.2L70.6 185.3L67.5 183.6L65.9 187.2L62.7 188.5L60.4 185.0L58.4 190.6L58.0 193.6L57.2 192.9L57.3 190.6L54.9 188.9L52.5 190.8L50.2 189.1L47.1 190.1L47.6 184.3L46.3 182.7L45.5 179.6L43.9 179.9L42.4 183.3L41.6 183.2L38.4 179.8L36.9 179.9L35.2 181.2L38.1 184.3L40.2 189.0L39.5 192.9L36.9 194.0L34.6 193.7L32.2 191.7L28.2 189.9L25.1 190.6L15.7 188.1L11.8 188.8L8.6 187.9L5.5 189.4L0.0 190.6M118.8 200.0L116.9 198.7L114.5 198.4L113.8 195.3L111.8 192.9L110.6 192.8L109.7 189.8L106.8 186.7L102.7 186.0L101.4 186.7L101.3 194.5L97.3 193.7L96.5 194.5L98.1 200.0M153.7 190.3L153.7 190.3M157.6 196.1L157.6 196.1M10.6 200.0L10.2 198.4L8.6 197.5L0.0 197.0M0.0 189.5L5.5 188.5L7.5 185.9L8.6 185.5L11.0 187.9L12.5 188.0L14.9 186.9L18.0 187.7L20.4 187.5L25.1 189.9L28.2 188.3L32.9 190.0L35.3 191.9L36.1 191.6L36.7 190.6L35.5 185.1L29.9 182.0L33.7 178.0L34.5 173.6L36.1 172.7L38.4 174.9L40.0 174.8L42.7 172.5L44.7 169.6L45.6 171.0L45.5 174.9L46.3 175.1L49.4 173.1L50.7 177.3L53.5 180.4L55.7 181.5L58.8 178.4L60.2 178.8L61.2 180.3L62.7 180.6L65.1 178.2L69.8 178.6L72.2 180.6L76.1 179.5L82.3 183.5L84.7 187.2L86.3 187.8L88.6 186.1L91.8 185.9L92.5 186.2L94.1 189.2L98.0 188.4L98.7 182.7L99.6 181.4L105.1 184.1L108.2 181.1L109.4 185.9L111.4 187.0L113.2 185.1L112.9 182.3L115.4 182.0L116.9 178.3L120.0 177.4L121.6 178.1L123.9 174.0L126.3 174.4L127.1 170.1L128.6 169.9L130.2 171.4L131.8 169.4L131.4 166.3L132.5 165.1L137.3 164.5L139.6 166.3L141.2 165.2L144.8 170.2L146.6 174.1L148.2 174.2L146.8 171.8L148.5 169.4L146.5 166.3L146.1 162.4L146.7 161.7L149.0 161.5L149.7 163.9L150.6 164.4L152.9 163.7L155.3 160.9L157.6 163.0L160.8 162.5L161.7 159.2L161.6 158.8L159.2 159.9L154.5 158.5L152.2 158.8L148.9 154.5L149.3 152.9L151.4 152.0L157.6 151.9L159.2 150.9L159.4 149.8L157.0 146.7L157.8 145.1L160.8 145.3L163.9 147.2L166.3 145.6L168.6 147.0L170.9 145.1L170.2 143.4L166.3 140.9L163.1 143.3L159.2 140.0L157.6 140.8L155.3 143.7L153.7 140.8L152.2 140.0L151.4 138.7L151.0 134.1L147.8 133.3L145.7 130.2L145.7 128.6L147.2 127.1L148.0 123.9L151.2 121.6L150.4 118.4L150.9 114.5L150.2 112.9L151.3 109.0L152.9 108.1L154.5 108.8L156.9 106.0L159.2 105.6L160.4 104.3L159.2 102.5L156.9 102.9L155.3 102.0L147.3 109.8L147.3 111.4L149.0 113.7L145.3 117.6L146.8 122.4L144.3 124.7L141.6 124.7L142.0 127.1L140.4 129.4L140.5 131.0L146.2 136.5L144.3 140.3L141.2 138.6L140.2 140.4L143.0 148.2L142.7 151.6L140.4 150.1L138.0 150.0L138.0 146.5L137.3 145.8L134.1 146.1L132.5 143.4L130.7 142.0L130.2 138.2L128.6 137.5L126.4 139.6L127.7 143.5L130.2 147.5L130.2 154.5L130.9 156.9L130.2 157.5L126.3 157.4L122.4 155.6L121.4 156.9L122.3 159.2L122.0 160.0L120.0 161.4L118.4 163.7L116.9 164.4L116.1 163.8L114.9 158.4L113.2 156.9L114.1 153.7L111.9 151.4L112.7 149.0L112.2 148.6L109.0 148.3L108.2 148.9L107.6 152.2L105.1 154.3L104.3 153.8L104.4 151.4L103.5 150.0L102.0 150.2L100.4 152.0L98.0 151.5L97.3 152.9L98.3 158.4L98.0 159.5L97.3 159.8L93.3 150.8L92.1 149.8L93.5 144.3L93.3 143.0L92.5 142.5L89.4 145.1L90.0 152.2L89.6 156.1L86.3 158.4L86.3 161.9L84.6 162.4L83.1 164.7L80.7 166.3L78.8 169.4L76.9 171.0L75.3 168.6L76.4 165.5L73.3 160.0L75.5 157.6L76.1 155.3L77.9 153.7L77.6 148.6L74.5 149.8L71.8 154.5L69.9 160.0L68.2 160.9L67.1 155.3L65.4 152.2L64.3 152.1L61.8 154.5L60.4 150.4L58.0 150.2L54.9 148.3L53.3 145.5L47.1 147.3L44.7 151.3L42.4 150.1L40.8 142.7L39.9 142.7L37.9 145.9L37.0 149.8L36.1 150.6L35.3 148.2L33.1 145.9L32.2 143.8L28.2 143.1L25.9 140.1L22.0 141.0L15.7 146.6L12.5 143.6L9.9 142.7L10.2 140.8L14.9 140.2L18.6 136.5L17.3 131.9L13.9 127.1L11.9 122.4L12.5 116.1L14.2 112.2L17.3 108.6L25.1 106.6L25.9 107.5L26.0 110.6L24.8 115.3L25.3 120.0L28.2 126.3L29.8 127.4L38.4 126.1L49.4 126.3L50.8 125.5L51.8 122.4L53.3 123.1L54.5 125.5L57.3 125.8L58.1 125.5L59.6 122.4L63.3 122.4L65.1 123.9L68.0 122.4L68.1 120.8L61.2 116.7L54.1 117.0L51.6 116.1L55.7 112.3L58.3 108.2L60.9 101.2L60.4 98.0L59.6 97.1L58.0 96.9L54.1 97.4L50.2 98.9L48.6 96.3L46.3 94.8L40.8 96.6L38.9 94.9L37.6 90.6L32.9 90.2L29.8 85.1L24.3 83.3L21.3 80.8L16.5 78.1L12.5 78.0L5.5 79.9L0.0 79.4M75.3 120.0L75.3 120.0M87.8 121.2L87.8 121.2M138.0 123.0L138.0 123.0M126.3 130.7L126.3 130.7M173.3 144.9L173.3 144.9M178.0 147.7L178.0 147.7M182.7 148.1L182.7 148.1M188.2 151.8L188.2 151.8M190.6 156.3L190.6 156.3M151.4 176.9L151.4 176.9M196.9 176.8L196.9 176.8M8.8 200.0L5.5 198.2L4.1 200.0M0.0 92.3L11.0 89.3L14.1 91.5L18.8 92.4L21.2 94.9L22.7 95.4L29.0 94.5L30.6 91.8L29.8 90.0L27.5 87.9L22.9 85.5L18.8 81.9L14.3 80.0L12.5 79.9L5.5 82.1L0.0 81.4M33.7 92.5L33.7 92.5M0.0 142.2L2.2 139.6L1.7 136.5L2.4 135.4L5.5 135.8L8.6 134.9L11.8 136.7L12.5 135.7L12.8 132.5L8.9 125.5L5.6 123.1L5.0 121.6L9.7 117.6L11.2 109.0L7.8 109.6L3.1 105.9L0.0 105.6M149.0 138.7L149.0 138.7M0.0 182.0L2.4 179.9L3.1 180.2L3.3 182.7L2.3 187.5L3.1 187.8L5.2 187.5L5.7 183.5L10.2 181.6L11.0 182.0L10.8 185.9L11.8 187.2L13.2 186.7L14.1 184.7L16.5 185.7L20.4 185.8L24.3 188.9L25.6 189.0L27.5 186.7L29.7 186.7L30.5 185.9L29.8 184.7L25.2 182.7L23.7 181.2L28.4 179.6L29.1 176.5L30.6 175.2L34.5 167.5L35.3 167.0L38.4 168.2L41.6 167.8L43.0 159.2L42.4 158.3L40.0 158.2L38.4 156.3L34.5 158.4L31.4 156.7L29.0 157.6L27.0 154.5L29.2 149.8L26.7 148.1L23.5 143.8L19.8 146.7L17.8 150.6L18.2 152.9L16.5 154.5L14.1 152.2L11.8 148.2L10.2 148.5L8.6 151.0L5.5 152.6L6.1 145.1L5.5 143.0L3.9 142.4L0.0 144.0M50.2 151.6L50.2 151.6" fill="none" stroke="#2A2E28" stroke-width=".65" stroke-linejoin="round" stroke-linecap="round"/></svg>
