<svg xmlns="http://www.w3.org/2000/svg" viewBox="0 0 400 358" preserveAspectRatio="none"><path d="M400 52.8L395.7 55L391.7 61.7L385 66.6L375 68.3L365.5 80L364.3 86.7L366 93.3L368.3 95.9L374.5 98.3L373.3 100L368.3 101.9L367.4 103.3L369.8 111.7L368.3 114.1L365 113.2L360.4 108.3L355.8 106.7L354.4 105L353.8 98.3L350.8 90L350.8 81.7L347.1 73.3L341.7 68.7L335 66.6L325 61.7L321.1 55L313.3 49.9L300.2 48.3L288.3 42.9L275 41.8L263.3 41.7L253.3 43.8L248.3 41.5L246.7 41.9L243.3 45.1L238.3 45.8L236.7 45.1L236.3 41.7L235 40L233.3 40L231.7 41.6L228.3 50.4L225 52.3L221.7 49.8L213.3 46.7L205 49.6L198.3 50.1L190 49.2L183.3 46.2L176.7 48.7L171.7 46.2L168.3 46.6L163.3 48.7L151.7 48.1L136.7 55L123.3 65.3L120 66.2L111.7 65.6L110 66.3L109.2 70L110 73.1L114.2 80L120 83.8L125 83.9L127.3 85L127.3 91.7L130 95L131.7 94.7L135 88.5L136.7 87.3L137.7 90L137.5 98.3L140 101.1L143.3 102.1L151.7 102.5L155.4 105L155 106.7L158.3 107.2L163.6 106.7L168.2 105L167.2 103.3L161.7 102.7L160.6 101.7L161.7 99.6L168.3 99.6L171.7 101.7L176.7 102.7L179.4 106.7L178.3 107.7L174.5 108.3L170 116.6L165 119.7L160 118.1L151.7 118.3L150.1 120L149.4 123.3L150 125L153.3 127.1L151.7 127.2L150 125L146.7 124.6L141.7 125.7L131.7 122.8L126.7 124.5L121.7 123L116.7 125L110 125L98.1 131.7L98.6 133.3L100 134.3L110 136.3L115 136.1L120 137.8L120 138.6L116.7 139.6L110 138.7L107.7 140L107.1 143.3L108.5 146.7L110 148.7L113.3 150L125 149.6L127.6 148.3L130 145.8L136.7 150.3L140 148.3L144.5 141.7L145 139.2L150 138.7L151.7 139.9L152 143.3L150.1 155L152.1 161.7L151.7 163.3L148.3 168.5L141.7 171.7L136.3 176.7L134.4 185L135 188.6L141.7 186.9L143.3 187.5L145 193.4L146.7 195.6L150 194.8L152.3 191.7L152.2 190L149.4 185L149.8 183.3L156 180L161.6 173.3L162.7 171.7L163.3 164.7L168.3 157.7L171.7 160.3L176.9 161.7L182.4 165L182.1 166.7L177 171.7L173.7 180L170 184.1L168.3 184.4L165 181.5L163.1 181.7L162.7 185L163.9 191.7L160.2 200L164 203.3L163.8 205L158.3 205.9L155.5 208.3L153.3 214.9L149.4 220L147.2 228.3L144.5 233.3L144.2 236.7L147.8 243.3L150 243.2L155 240L160 242.8L169.3 236.7L170 234.7L173.3 234.8L176.5 233.3L176.7 230L178.3 228.9L181.7 229.6L182.9 233.3L185 234.5L198.3 231.6L200.1 233.3L198.6 235L195 235.7L191.7 237.5L185.7 243.3L186 248.3L184.5 253.3L186.7 258.3L186.7 260.6L178.3 267.3L170 271.3L168 275L165 277.9L158.3 280.4L148.5 290L147.7 291.7L148.9 293.3L151.7 294L158.1 290L166.7 286.7L168.7 285L171.7 279L185 270.8L188.4 261.7L193.3 260L202.3 255L205 250.3L209.3 246.7L209.6 245L208.3 242.5L204 240L203.7 238.3L215.2 228.3L221.6 211.7L225 209.7L231.3 203.3L228.2 196.7L233.3 194.7L234.8 200L237 203.3L236.8 205L234.5 211.7L221.7 228.3L222.2 233.3L221 236.7L221.7 238.6L223.3 239.6L228.3 238.9L241.4 228.3L246.7 228.2L249.8 226.7L251 221.7L250 215L251.7 213.1L253.3 212.8L260 212.9L268.3 219.3L278.3 223L291.7 225.5L300 228.9L303.3 229L308.3 230.7L315 231.1L318.4 235L326.7 241.7L329.2 246.7L333.3 251.1L336.7 252.6L342.1 253.3L341.7 258.3L346.1 265L351.7 277.8L354 276.7L355.1 273.3L355.3 270L353.2 265L353.7 263.3L355 262.7L355.8 263.3L358.3 267.5L360 267.1L361.7 264.6L363.3 265.7L364.8 270L364.4 271.7L361.3 275L360.9 278.3L361.7 280.1L365 278.8L369 280L370 285L373.5 288.3L370 285.1L368.3 285.7L366.7 284.3L365.8 285L367.7 298.3L369.3 300L373.3 301L381.7 296.7L383.3 297.6L387.6 303.3L388.6 316.7L390.8 320L396.7 323.8L400 327.8M243.3 119.7L243.3 120.4L245.8 120L243.3 119.7M178.3 123.8L176.7 125L178.4 128.3L176.1 133.3L176 141.7L170.5 151.7L170 155.9L178.3 149L184.5 148.3L183.4 143.3L184.2 140L188.7 133.3L193.6 128.3L193.3 125.2L191.7 124.5L178.3 123.8M198.3 146.3L196.9 148.3L200 149.7L203.5 146.7L201.7 145.5L198.3 146.3M75 167.9L75 168.6L76.9 168.3L75 167.9M183.3 199.8L181.6 201.7L181.7 206.5L185.2 201.7L185 199.6L183.3 199.8M106.7 224.3L105.7 225L105.9 226.7L108.3 227.4L109.7 226.7L109.9 225L108.3 223.9L106.7 224.3M215 252.9L215 254.2L216.8 253.3L215 252.9M351.7 252.3L349.7 255L351.7 256.2L353.3 255.8L354.1 253.3L353.3 252.2L351.7 252.3M206.7 260.7L200.6 266.7L201.7 270.5L205 272.7L211.4 270L215.1 266.7L216.9 263.3L215 260.3L206.7 260.7M140 291.5L137.1 296.7L137.2 298.3L138.3 298.8L141.7 298.4L143.3 297.3L145.4 293.3L143.3 291.1L140 291.5M125 301L122 305L123.3 306.2L128.9 305L131 303.3L131.3 301.7L130 300.9L126.7 300.4L125 301M103.3 316.5L102.4 318.3L103.3 319.9L106.7 318.6L107.5 316.7L105 315.7L103.3 316.5M400 132.1L394.8 130L381.7 121.2L365 119.5L363.3 118.4L360 113.2L354.9 110L352.2 106.7L351.7 98.3L349.3 90L349.9 83.3L346.7 75.6L340 70.1L332.1 68.3L328.3 65.4L325 64.4L323.3 62.7L320 55.8L315 52L311.7 50.8L301.7 50L291.7 47L273.3 43.5L263.3 44.4L247.1 51.7L240 50.4L231.7 56.3L225 58.6L218.3 57.3L210 57.4L208.3 56.3L200 58.3L193.3 55.4L180 52.3L166.7 51.7L158.3 53.2L151.7 52.4L138.3 56.7L129.4 61.7L125 67.7L121.3 70L119.6 75L121.7 78.9L133.3 84.4L140.7 83.3L141.3 85L139.6 91.7L140 95.2L141.7 98.6L150 97.2L153.3 100.2L156.7 101.3L160 98.1L168.3 97.6L173.3 99.7L178.7 100L180.4 103.3L185 106.7L181.7 109.9L175 113.3L171.7 118L168.3 120L165 123.5L160 120L153.3 120L152.3 121.7L160.3 128.3L159.9 130L151.7 131.5L148.3 128.8L146.7 128.5L145 130L145.1 133.3L146.4 135L151.7 135.7L153.9 138.3L154.2 141.7L151.8 155L153.2 158.3L156.4 160L157.1 161.7L153.3 164.6L149.3 170L143.3 172.5L138.8 176.7L137.3 180L138.3 182.3L140 183.3L146.7 182.9L151.7 178.3L156.7 175.7L159.2 173.3L160.7 170L161 165L162.2 161.7L166.7 155.6L173.8 141.7L173.4 130L172.2 123.3L175 121.4L183.3 121.5L190 122.7L192.6 120L190 115L190 113L198.4 115L199.7 118.3L196.8 121.7L196.7 123.4L198.3 125.4L200 124.8L202 126.7L201 128.3L196.7 129.9L191 135L189.8 138.3L186 143.3L188.3 146.1L191.7 146.4L196.7 144.4L203.3 143.4L216.7 138.7L225 139.8L228.3 142.1L235 143.1L245 138.2L245.8 140L245 145L246.7 147.6L255 145.6L257.1 146.7L257.5 148.3L256 151.7L236.7 154.9L228.3 158.8L231.2 151.7L230 148.4L211.7 143L208.2 145L205.4 151.7L201.7 157.3L200 156L193.3 156.8L191.7 158.6L190.2 163.3L183.3 169.9L178.3 176.4L173.7 185L171.7 191.2L164.5 196.7L164.9 200L167.5 201.7L165 207L163.3 208.4L158.3 207.8L156.7 209.6L155.3 215L152.3 220L147 233.3L146.6 235L148.1 236.7L151.7 237.7L156.7 236.4L161.7 237.3L163.3 236.7L166.2 233.3L169.5 226.7L178.3 222.6L189.2 225L188.3 230.2L193.3 230.8L198.3 229.3L201.7 231.1L203.3 235L205 234.9L214 228.3L217.9 220L220.4 211.7L229.3 203.3L228.3 200.7L223.3 195.2L223.1 193.3L228.3 193.1L233.3 189.6L235 193.3L236.3 200L238.8 203.3L235.8 211.7L231.7 218.8L223.2 228.3L223.8 233.3L222.6 236.7L223.3 238L228.3 238L240 228.2L248.3 226.6L249.9 223.3L249 215L250 213.3L253.3 211.9L260 212.2L270 219.1L275 220.1L285 223.8L291.7 224.7L298.3 228L315.3 230L319.6 235L326.7 240.7L329.8 246.7L335 251.4L340.6 251.7L343.3 246.7L348.3 251.7L350 251.7L351.7 250.3L353.3 250.7L355.8 255L353.4 258.3L353.7 260L358.3 263.1L360 260.1L361.7 260.4L365 267.5L366.9 275L372.3 278.3L372.8 283.3L376 286.7L379.2 293.3L380 294.4L383.3 295.1L388.3 302L390.1 316.7L393.3 320.1L400 323.4M111.7 68.1L111.7 71.5L113.3 72.6L114.6 71.7L114.8 70L113.8 68.3L111.7 68.1M278.3 101.6L266.7 102.9L261 105L259.4 106.7L258.6 111.7L256.8 113.3L250 113.8L242.5 116.7L238.7 120L238.7 123.3L241.7 124.3L253.3 121.4L260 120.7L270 120.9L280 124L281.3 123.3L285 111.7L285.8 105L283.3 102.1L278.3 101.6M223.3 109.8L214.9 113.3L218.3 118.8L220 117.9L223.3 112.6L223.3 109.8M131.7 124.7L126.7 128.1L121.7 125.5L115 127.2L111.2 128.3L106.2 131.7L111.7 131.6L115 133.9L118.3 134.8L120 134.6L125 130.7L126.7 130.3L127.3 131.7L127.2 133.3L122 141.7L110 141.6L109 143.3L110 146.1L113.3 147.9L123.3 147.1L124.5 146.7L124.6 143.3L131.7 140.7L134.2 141.7L135 147.1L136.7 148.1L138.3 147.7L140.9 143.3L139.5 135L140.6 131.7L131.7 124.7M178.3 151.4L173 156.7L173.6 158.3L175 158.9L181.7 158.1L185 156L191.7 157.9L193.9 153.3L193.3 151L191.7 150.2L186.7 153.1L181.7 151.1L178.3 151.4M193.3 174.5L191.4 176.7L188.8 183.3L188.6 185L190 186L200.6 183.3L204.8 180L206.1 176.7L205 175.1L200 175.5L193.3 174.5M188.3 191.6L186.7 191.7L179.7 198.3L175.8 210L176.7 211L183.3 212.4L190.1 205L191 195L188.3 191.6M198.3 236.7L193.5 238.3L188.7 243.3L188.5 245L189.9 248.3L186.7 253.3L187.6 256.7L190 259.2L193.3 258.9L200 256L201.7 254.8L204.3 250L208.4 246.7L208.8 245L207.8 243.3L203.3 241.3L200 236.8L198.3 236.7M343.3 255.7L342.7 258.3L343.3 260L348.1 265L351.7 275.9L353.3 275.3L354.2 270L351.1 265L352.3 260L346.7 255.4L343.3 255.7M208.3 261.4L206.7 262L201.9 266.7L203 270L205 271.2L210 269.8L213.6 266.7L215.6 263.3L213.3 261.3L208.3 261.4M183.3 266.4L171.7 272.6L171.3 275L173.3 275.3L183.3 270.8L184.7 268.3L183.3 266.4M161.7 279.9L158.6 281.7L154.5 286.7L153.9 288.3L155 289.4L163.3 287.1L166.8 285L168 281.7L167.2 280L161.7 279.9M140 293.2L139.2 295L139.8 296.7L141.7 296.5L142.9 295L142.9 293.3L141.7 292.7L140 293.2M370 291.9L369.1 295L370 297.8L373.3 299.1L377.6 296.7L371.7 292.3L370 291.9M125 303.1L126.7 304.3L128.9 303.3L126.7 301.9L125 303.1M105 316.5L103.8 318.3L105.2 318.3L105 316.5M400 133.8L394.5 131.7L388.3 127.3L373.3 122.6L370 122L363.3 123.4L360 122.8L359.2 121.7L359.5 116.7L356.9 113.3L352.2 110L350.5 106.7L350.2 98.3L348 90L349.1 83.3L346.7 77.8L339.7 71.7L336.7 70.5L331.7 71L328.3 67.5L323.3 65.6L319.4 56.7L311.7 51.8L286.2 48.3L276.7 44.8L273.3 44.5L263.2 46.7L250 54.7L240 56.1L233.5 60L220 63.2L215 61.2L205 63.3L194.2 61.7L185 56.8L176.7 54.6L166.7 54.6L156.7 56.8L150 55.7L140 58.8L135 61.9L130 63.2L128.8 65L128.9 68.3L123.6 73.3L124.8 76.7L128.6 80L135 81.9L143.6 81.7L144.5 83.3L141.5 88.3L142 93.3L145 95.7L150 95.7L155 99.1L156.7 99L160 96.5L168.3 96.2L173.3 98.1L179.7 98.3L190 108.1L198.3 110.9L201.7 110.8L206.7 108.3L211.7 110L216.7 109.2L220 107.7L223.3 103.8L225 104.5L227.1 110L226.9 111.7L223.3 120L220 122L211.7 122.9L210 121.8L206.7 114.7L203.3 111.9L203.1 115L204.3 116.7L202.8 121.7L204.8 126.7L204.3 128.3L202.9 130L198.2 131.7L193.8 135L192.7 138.3L188.7 143.3L190 144L195 142.8L203.3 142.5L210 138.8L216.7 136.7L221.7 138L226.7 138L230 139.9L236.7 140.7L241.5 138.3L245 135L246.7 135L248.5 138.3L248.3 143.9L253.3 142.7L258.3 144.4L259.8 146.7L260 153.6L245 155.4L233.3 159L225 165.5L215.4 170L204.9 183.3L192.1 190L193 200L194.5 205L191 208.3L188.4 213.3L184.7 216.7L184.5 218.3L185.7 220L197.7 225L205 232.3L211.7 229.4L214.1 226.7L214.9 223.3L217.1 220L220 210.8L222.5 208.3L226.1 201.7L221.7 195.2L221.7 192.7L223.3 191.2L228.3 190.9L233.3 187L235.2 188.3L236.6 198.3L239.8 201.7L240.1 203.3L237.8 206.7L236.9 211.7L232.2 220L225.1 228.3L225.4 231.7L224.3 236.7L225 237.2L229.1 236.7L240 227.4L246.7 226.8L248.3 225.6L249.2 221.7L248 215L251.3 211.7L253.3 211.3L260.6 211.7L271.7 218.9L276.7 219.6L285 223L291.7 224.2L298.3 227.5L303.3 227.4L316.7 230L319 233.3L326.7 239.8L330.3 246.7L335 251L340 251L341 250L341.7 245L343.3 244.8L348.3 250.3L350 250.2L351.7 247.8L356.7 253.3L358.3 256.3L360 256.5L361.7 258.2L368.3 273.3L373.6 278.3L375.4 283.3L380.6 291.7L385 294.7L389.6 301.7L391.5 316.7L395 319.2L400 320.5M278.3 98.3L266.7 100.1L256.7 104.6L251.7 109.9L240 116.5L233.1 123.3L236.3 130L238.9 130L242.8 126.7L251.7 123.3L258.3 122.4L263.3 123.6L270 123.6L276.7 125.2L278.7 126.7L280 130.3L281.7 130.7L285 126.5L288.6 125L294.7 120L294.8 115L294.6 113.3L289.5 110L288.8 108.3L291 103.3L288.1 100L285.9 98.3L281.7 97.1L278.3 98.3M185 111.4L181.7 113.4L175.8 115L174.1 118.3L178.3 120.3L183.3 119.8L188.3 121.7L190 121.1L190.6 118.3L185 111.4M131.7 127.8L125.9 138.3L126.5 140L131.7 139L135 139.8L136.4 141.7L136.6 145L138.3 145.3L139 141.7L137.9 136.7L131.7 127.8M116.7 129.2L115.5 130L115.9 131.7L118.3 132.7L121.2 130L120 129.2L116.7 129.2M166.7 129.8L160 133.1L155.9 133.3L155 135L156.6 140L153.9 155L155 156.6L158.3 157.9L161.7 158.1L165 155.5L171.9 141.7L171.2 136.7L168.9 133.3L168.3 130.6L166.7 129.8M111.7 143.2L111.7 145L113.3 145.7L116.9 145L116.2 143.3L111.7 143.2M218.3 148.9L213.4 153.3L207.5 156.7L203.3 162.2L196.7 165.3L193.3 165.1L188.3 168.3L183.3 174.6L178.8 178.3L176.2 185L176.7 189.4L183.3 189.4L184.3 188.3L184.3 183.3L193.3 171.9L195 171.2L198.3 172.9L201.7 173.1L204.1 171.7L208.2 166.7L211.9 165L216.7 160L220 160.3L224.2 158.3L226.6 153.3L220 148.9L218.3 148.9M195 161.6L196.7 161.7L195 161.6M155 165.7L152.8 168.3L152 171.7L155 173.7L158.3 172.2L159.3 168.3L158.3 165.1L155 165.7M145 173.2L142.7 175L140.6 178.3L141 180L143.3 181.2L145 181.3L148.3 179.5L151.1 175L151.2 173.3L150 172.7L145 173.2M171.7 202.4L166.9 206.7L165 211.4L160 209.1L158.1 210L154 221.7L150.7 228.3L150.3 233.3L151.7 234.4L153.3 235L163.3 233.7L165 231.7L166.7 225.3L168.3 223.3L173.3 222.4L176 220L176.1 218.3L171.1 215L170.8 213.3L175.4 205L175 202.8L171.7 202.4M196.7 238.1L192.4 241.7L191.6 245L193.1 248.3L189 251.7L188.2 253.3L189.1 256.7L191.7 258.1L200.6 255L203.4 250L207.5 246.7L208 245L206.7 243.5L203.3 242.5L199.2 238.3L196.7 238.1M345 257.3L344.3 258.3L345 259.8L347.7 260L346.9 258.3L345 257.3M206.7 263.3L203.4 266.7L205 269.8L206.7 270.1L212.1 266.7L214.2 263.3L210 262L206.7 263.3M351.7 268.9L350.6 270L351.7 273.6L353.4 271.7L351.7 268.9M160 281.5L157.9 285L157.7 286.7L158.3 286.9L163.3 286.2L165.4 285L166.2 283.3L165.6 281.7L163.3 280.8L160 281.5M400 134.9L395.2 133.3L386.7 128.1L371.7 124.1L365 126.1L356.7 126.1L351.7 129.4L351.2 126.7L355.5 121.7L357 118.3L355.8 115L351.7 112.1L349.5 108.3L348.8 98.3L346.9 90L348.4 83.3L346.9 80L345 77.5L338.3 72.5L335 72.2L331.7 73.4L326.7 68.4L321.7 66.7L320.2 60L318.3 56.9L312.8 53.3L308.3 52L301.7 51.8L293.3 49.9L283.3 48.9L276.7 45.9L273.3 45.5L263.3 48.7L255 53.5L250 58L241.7 59.1L228.3 64.4L220 66.1L211.7 64.8L190 67.7L186.7 67.5L181.7 65.6L175 60.9L170 58.9L163.3 58L156.7 59.1L148.3 58.6L140 61.8L135 66.3L132.8 70L126.7 73.3L126.7 75L128.3 77.6L131.7 79.3L146.7 80L147.7 83.3L143.3 87.8L143.4 91.7L145 93.6L150 94.1L155 96.8L160 94.9L168.3 94.8L173.3 96.4L179 96.7L191.7 106.2L200 103.9L203.3 105.5L208.3 106.1L211.7 108.2L217.6 106.7L221.7 101.6L225.3 101.7L228.3 103.3L229.3 110L226.1 120L221.7 123.1L216.7 124.7L215.7 126.7L216.7 128.9L219.6 131.7L220 135L221.6 136.7L225 136.5L231.9 133.3L230.6 136.7L231.2 138.3L235 139.4L240 138.1L242.5 135L242.7 133.3L240 131.9L235 132.4L233.4 131.7L234.1 128.3L230.6 123.3L233 120L242.3 113.3L247 108.3L255 103.3L260.4 101.7L266.7 97.9L276.7 96.8L281.7 94.5L286.7 95.8L295 91.2L296.7 96.4L301.7 96L302.6 98.3L301.7 100L297.6 103.3L293.7 108.3L298.3 110.7L300.6 113.3L301.7 120.4L300.7 123.3L298.3 126L293.3 125.6L286.7 128.7L285 130L284.3 133.3L281.7 133.7L278.3 132.2L277.6 128.3L275 126.3L263.3 125.4L258.3 123.6L253.3 124.1L248.7 126.7L247.9 128.3L250.3 138.3L251.7 139.8L260.2 143.3L261.5 145L263.6 153.3L265 155.1L271.7 158.3L270 159.6L268.3 159.5L261.7 156.2L248.3 156L236.7 159.3L230 162.7L225 167.4L213.3 175.6L206.7 183.7L198.8 188.3L195.3 191.7L194.5 193.3L194.5 198.3L197 203.3L197.4 206.7L196.7 208.3L192.4 210L189.8 218.3L193.3 218.5L194.9 221.7L200 224.8L201.8 228.3L205 230.6L206.7 230.8L211.7 228.6L216.3 220L218.9 211.7L222.4 206.7L223.8 201.7L223.7 200L220.5 195L221 191.7L223.1 190L228.3 189.3L233.3 185.1L235 186L236.4 188.3L237.3 198.3L241.5 201.7L238.5 206.7L237.8 211.7L233.3 220L227 228.3L225.9 235L226.7 236.4L228.3 236.1L235 231.6L240 226.7L245 226.5L248 225L248.5 221.7L247 215L250.2 211.7L253.3 210.7L261.7 211.3L271.7 218.2L276.7 218.7L285 222.3L291.7 223.6L298.3 227L303.3 226.7L316.7 229.2L320 233.3L326.7 239L330.8 246.7L335 250.6L338.3 251L340 250.1L340.8 245L341.7 244L343.3 244L348.3 248.5L351.7 246.1L356.7 252.2L360 254.2L363.3 259.6L369.3 273.3L374.6 278.3L381.7 290.3L385 292.8L388.3 297.9L390 298.4L390.7 300L390.6 306.7L392.9 316.7L395 317.9L400 318M310 76.5L306.7 77.7L305.7 80L307.2 83.3L313 90L312.7 91.7L309.9 95L310.4 96.7L316.1 96.7L326.7 91.7L325.2 86.7L325.1 80L323.4 78.3L315 76.3L310 76.5M163.3 81L162.3 81.7L170 85.8L171.8 85L169.1 81.7L165 80.1L163.3 81M151.7 84.4L150.8 85L151.7 85.8L153.3 86.1L154.3 85L151.7 84.4M176.7 116.6L176.7 118.3L178.3 118.9L181.9 118.3L182.2 116.7L180 115.8L176.7 116.6M186.7 116.7L185.7 118.3L188.3 120.2L189 118.3L186.7 116.7M210 131L200 133.7L197.2 140L200 141.9L203.3 141.6L210 137.2L213.3 136.3L214.9 135L215 132.7L213.3 131L210 131M131.7 133.9L129.3 136.7L135 137.5L135.7 136.7L134.5 135L131.7 133.9M161.7 136.5L158 143.3L155.9 151.7L156.7 154.5L160 156.3L163.3 155.4L165.1 153.3L168.9 141.7L168.2 140L163.3 136L161.7 136.5M220 152.9L218.9 156.7L221.7 157.6L223.8 155L222.7 153.3L220 152.9M208.3 159.5L205 163.2L199.5 166.7L198.2 170L200 171.4L203.3 170.3L206.7 165.3L209.5 163.3L212.2 160L211.7 158.6L210 158.4L208.3 159.5M156.7 168L155.7 170L156.7 170.6L156.7 168M146.7 174.6L145 175.1L144 176.7L144.1 178.3L145 178.9L146.7 178.7L148.5 176.7L148 175L146.7 174.6M181.7 177.7L179.5 180L180 184L181.7 183.2L183.9 180L183.8 178.3L181.7 177.7M170 205.9L168.1 208.3L168.3 209.6L170 210.3L172.1 206.7L170 205.9M160 211.3L157.1 216.7L156 221.7L152.6 226.7L152.9 231.7L155 232.7L163.3 231.3L165.9 223.3L170.1 220L170.6 218.3L167.7 215L160 211.3M196.7 239.5L193.5 243.3L193.3 245L194.9 248.3L189.5 253.3L190 255.7L191.7 257L200 254.7L203.3 248.6L206.7 246.1L206.7 244.7L203.3 243.8L198.3 239.3L196.7 239.5M210 263L205.3 266.7L206 268.3L208.3 268.2L211.9 265L212.1 263.3L210 263M161.7 281.5L159.6 283.3L159.6 285L161.7 285.8L163.8 285L164.9 283.3L163.3 281.7L161.7 281.5M273.3 46.4L268.3 47.8L263.3 51.3L256.7 54.1L248.3 62.2L241.7 62L230 66.6L223.3 67.2L220 69.1L205 67.7L186.7 70.9L174.4 66.7L170 63.5L163.3 60.7L153.3 60.9L148.3 64.1L146.7 63L144.2 63.3L141.7 67.5L136.7 68.5L131.2 75L131.7 76L135 77.2L141.7 77.9L146.7 76.4L150 80.6L151.7 81.2L155 81L158.3 76.5L165 76.8L177.2 83.3L177.3 85L173.3 90.3L171.3 91.7L172 93.3L181.7 96.5L186.7 101.7L191.7 103.8L193.3 104.2L200 102.5L205 103.9L210 102.8L211.7 106.3L213.3 106.5L220 100.4L230 101.1L231.2 101.7L231.4 103.3L229.8 116.7L231.7 118.3L238.3 115.2L242.8 110L253.3 101.9L260 100.4L263.3 96.7L265 96L276.7 95L281.7 91.8L286.7 93.5L288.3 92.9L291.5 90L292.8 86.7L296.7 84.4L297.6 85L297.2 88.3L298.3 91.9L300 93.1L306.7 94.9L309.6 91.7L310 90L305.7 85L303 80L304 76.7L313.3 73.7L315 73.6L318.3 75.5L326.7 76.4L328.2 75L326.7 70.6L325 69.7L320 69.7L319.6 61.7L318.5 58.3L311.7 54.1L306.7 52.5L301.7 52.6L295 51L281.7 49.6L276.7 47L273.3 46.4M400 135.6L396.7 135L386.7 129.5L371.7 125.9L365 128.2L356.7 128.2L353.3 132.5L351.7 133.4L350 132.9L348.4 130L348.4 126.7L353.2 121.7L354.6 118.3L354.2 116.7L349.5 111.7L347.8 106.7L347.6 98.3L345.7 90L347.4 86.7L347.7 83.3L345 78.9L338.3 73.9L336.7 73.4L333.3 74.4L328.7 76.7L327.5 85L331.7 94L336.7 94.1L338.3 96L339.1 105L337.8 115L334.7 116.7L331.7 121.1L330 121.3L328.1 118.3L323.2 116.7L322.9 115L325 112.3L325.7 108.3L326.3 98.3L325 96.9L311.7 99.1L306.7 98.8L300 103.4L298.2 106.7L303.9 113.3L303.9 120L302.4 125L298.3 129.2L291.7 128.7L288.6 130L287.4 131.7L288.3 134.1L295 134.3L296.3 135L297.8 136.7L295.9 138.3L291.7 138.3L288.3 136L278.3 134.1L275 128L263.3 126.8L258.3 124.8L255 125.1L251.4 126.7L251.7 136.7L253 138.3L258.3 140.1L262.9 143.3L267 153.3L273.3 156.8L277.2 161.7L276.7 162.5L266.7 161.3L260 157.5L250 156.7L245 157.6L230 163.9L225 169.1L213.3 178L206.7 185L201.7 187.4L197.6 191.7L196.1 196.7L198.3 201.4L200.3 210L199.8 211.7L197.3 213.3L196 220L197.4 221.7L201.1 223.3L203 228.3L205 229.4L208.3 229.4L211.7 227.8L213.1 223.3L216.3 218.3L218.3 211.6L222 205L222.6 200L219.6 195L220 191.7L221.7 189.5L228.3 188L233.3 183.8L235 184.1L237.3 188.3L238 198.3L242.7 201.7L242.2 203.3L239.1 206.7L238.1 213.3L228.5 228.3L228.3 234.7L235 230.9L240 225.8L245 226L247.1 225L247.9 221.7L245.7 215L249.3 211.7L253.3 210.1L260 210.4L261.7 210.5L271.7 217.6L276.7 217.7L285 221.7L291.7 223.1L298.3 226.6L303.3 226.3L316.7 228.4L326.7 238.3L331.2 246.7L335 250.2L336.7 250.7L339.2 250L340 244.7L341.7 243.1L343.3 243.2L348.3 247L351.8 245L353.3 245.9L356.7 251.4L360.9 253.3L370.2 273.3L375 277.4L378.3 283.6L383.3 288.1L388.3 296L391.7 297.1L392.1 300L391.2 305L393.3 315.1L395 316.8L400 316.4M158.3 84.5L156.7 87.3L153.3 89.3L146.7 86.6L144.9 88.3L145 90L146.7 92L150 92L155 93.7L158.3 92.4L163.3 93.9L166.4 93.3L169.5 91.7L166.9 86.7L163.3 84.7L160 84L158.3 84.5M225 123.2L219.4 125L217.7 126.7L223.3 134.7L230 132.4L232.7 130L232.9 128.3L228.3 122.9L226.7 122.3L225 123.2M201.7 134.6L199.1 138.3L199.1 140L201.7 141.1L204.8 140L207.7 136.7L205 134.2L201.7 134.6M235 134.2L232.9 136.7L235 138.2L238.3 137.8L240.7 135L238.3 133.4L235 134.2M161.7 142.7L160 144.7L158.1 150L158.3 153L160 154.3L163.3 153.5L165.2 150L164.9 145L163.3 142.7L161.7 142.7M160 214.8L158.3 217.4L157.7 221.7L154.4 226.7L155 229.5L156.7 230.6L161.7 229.8L164.3 223.3L167.6 218.3L166.5 216.7L163.3 215.1L160 214.8M196.7 240.9L195 242.9L194.6 245L196.5 248.3L190.9 253.3L191.7 255.6L196.7 255.4L200 253.9L203.2 246.7L198.3 240.7L196.7 240.9M161.7 282.7L160.9 283.3L161.7 284.6L163.5 283.3L161.7 282.7M270 48.1L267 50L265 53.1L260 53.7L255 56.4L251.5 61.7L248.3 64.6L246.7 65.3L240 64.7L230 68.9L223.3 69.3L220 71.8L205 69.7L183.3 74.3L178.3 69.9L173.3 70L166.7 66.4L155 63.1L141.7 70.4L136.7 70.9L135.1 73.3L135.5 75L138.3 75.6L146.7 74.3L151.7 79L154.3 78.3L158.3 74.3L165 74.7L170 77.9L179.8 81.7L180.8 83.3L180.4 85L177.3 88.3L176.4 91.7L177.7 93.3L181.7 95L186.7 100.2L190 101.9L193.3 102.6L200 101.4L205 102.4L210 100.1L215 101.5L220 98.8L231.9 100L234 101.7L231.5 113.3L232.3 115L235 115.6L238.3 113.5L240.9 110L249.3 103.3L250.3 100L251.7 99.3L258.3 99.8L260.9 95L265 93.6L276.7 92.9L283.3 87.4L285 87.4L288.3 89.4L289.1 88.3L288.3 84.6L295 82.3L297 80L300 78.5L305 72.8L310 72.2L316.7 68.9L318 66.7L318.3 59.9L316.7 58L313.3 56.9L308.3 53.5L301.7 53.4L295 51.8L280 50.3L275 47.4L270 48.1M301.7 84.9L299.9 86.7L299.2 90L301.7 92L306.7 92.2L307.6 90L303.3 85.4L301.7 84.9M161.7 86.6L160.5 88.3L160.7 90L163.3 92.1L165.2 91.7L165.5 88.3L163.3 86.6L161.7 86.6M400 136.3L396.7 135.8L385 130.8L373.3 127.7L365 130.1L358.3 129.6L356.7 130.3L353.8 135L350 135.2L343.3 130.5L336.7 127.3L330 126.5L326.7 121.6L321.7 118.3L319.2 113.3L322.8 108.3L323.1 101.7L321.7 99.3L315 99.9L310 102.2L306.7 102.4L301.6 105L301 106.7L303.3 109.7L306.6 111.7L305 123.4L300.4 133.3L304.6 143.3L303.3 144.6L298.3 140.9L290 138.9L285 136.5L277.4 135L273.3 129.5L258.3 126.5L255 127.2L253.9 128.3L253.9 133.3L255 136.6L259.6 138.3L266.5 143.3L268.7 151.7L276.7 158L279.6 163.3L276.7 164.1L271.7 162.5L266.7 162.6L258.3 158.1L250 157.4L246.7 157.9L230 165L225.8 170L220 173.7L208.1 185L201.7 188.3L198.9 191.7L198.7 198.3L200.1 206.7L202.3 211.7L199.5 215L198.2 220L201.7 221.8L202.9 223.3L203 226.7L205 228.5L208.3 228.6L211.7 226.9L212.4 223.3L215.6 218.3L218.3 210.4L221.4 205L221.7 200L218.7 195L220 189.5L228.3 187L235 182.2L236.7 184.1L238 188.3L238.3 197.5L243.7 201.7L243.3 203.3L240 206.3L239.1 208.3L240 212L241.6 213.3L236.7 216.2L235.8 220L230.8 225L229.3 228.3L230 232.3L235 230.3L240 225L245 225.4L246.7 224.4L246.8 220L245 216.3L242.7 215L243.3 214.3L245 214.2L251.7 209.9L261.7 209.9L271.7 217L278.3 216.8L282.2 220L291.7 222.6L298.3 226.2L303.3 225.9L317.6 228.3L326.7 237.1L330.4 245L335 249.8L338.3 249.9L339.4 248.3L339.8 243.3L341.7 242.4L343.3 242.5L348.3 245.4L351.7 244.1L353.3 244.7L356.7 250.8L361.7 251.6L367.3 266.7L370.8 273.3L375.6 276.7L379.2 283.3L383.3 285.8L388.3 294.1L391.7 295L393 296.7L393.5 298.3L391.9 305L394.4 310L394.8 315L396.7 315.8L400 315.4M225 124.8L219.6 126.7L219.8 128.3L223.3 131.6L226.7 132.4L231.5 130L231.8 128.3L230 126.4L226.7 124.7L225 124.8M291.7 131L290.7 131.7L291.7 132.2L293.6 131.7L291.7 131M236.7 134.9L236.7 136.7L237.9 135L236.7 134.9M201.7 136.1L200.4 138.3L201.2 140L203.3 140L205.3 138.3L205.8 136.7L205 135.8L201.7 136.1M271.7 189.7L270 190.1L268.8 193.3L270 195.7L271.7 196.7L271.7 189.7M160 218.3L159.6 221.7L157.2 226.7L158.3 228.4L160 228.3L161.7 226L164.4 218.3L161.7 217.3L160 218.3M196.7 242.8L196 245L196.7 246.2L199.9 248.3L198.3 248.5L194.1 251.7L192.5 253.3L193.3 255L198.3 254.3L200.6 251.7L200.3 245L198.3 242.4L196.7 242.8M273.3 48.2L268.6 50L266.7 53.8L260 54.8L256.4 56.7L250 65.2L246.7 67.5L240 66.8L235 69.2L223.3 71.8L220 73.5L215 72.2L206.7 71.9L196.7 72.6L188.3 74.6L181.9 78.3L182.7 85L179.2 88.3L178.8 91.7L183.3 95L186.7 98.8L193.3 101.3L200 100.4L205 101L208.3 98.1L215 100.3L220 97.1L233.3 98.7L236.6 101.7L234.3 105L233.3 113.3L235 114.1L236.7 113.4L239.1 110L247 103.3L247 100L248.1 98.3L251.7 97.4L256.7 98.9L259.7 93.3L264.3 91.7L266.7 88.5L271.7 91.2L276.7 90.5L280 85.2L285 83.9L288.3 80L293.3 80.6L295.3 78.3L300 76.1L303.3 70.6L308.3 68.5L309.6 65L313.3 67.7L315 67.5L316.7 66.1L317.5 63.3L317.1 60L311.7 57.8L308.3 54.4L280 51.2L273.3 48.2M153.3 66.1L147.6 70L146.8 71.7L151.7 76.9L153.3 76.9L158.3 72.6L160 72.2L165 72.9L170 76L176.7 78.5L180 78.3L181 76.7L178.3 72.9L173.3 73L165 68.4L158.3 66L153.3 66.1M400 136.9L371.7 129.3L365 131.4L358.3 131.3L355 136L351.7 137.1L336.7 129.4L328.3 129.1L325 124.2L321.7 121.6L314.7 111.7L313.9 110L317.9 106.7L319.6 103.3L319.6 101.7L315 101.4L312.7 103.3L312.4 108.3L309.3 111.7L307.6 115L306.1 126.7L303.9 135L303.8 138.3L307 145L306.7 147.8L305 147.5L296.7 141.6L290 139.9L285 137.4L276.7 135.9L273.3 131.3L271.7 130.6L260 128.6L256.7 129.5L255.6 131.7L256.7 134.8L268.2 141.7L271.4 150L281.7 162.9L288.3 169L291.7 170.1L298.6 176.7L303.3 178.7L305.2 181.7L305.5 185L303.3 185.5L300 184.7L296.7 181.7L286.7 169L284 168.3L280 165.7L271.7 163.3L266.7 163.6L258.3 159L250 158L231.5 165L227.3 170L220 174.8L208.3 185.8L201.7 189.2L200 191.7L199.5 195L200.9 206.7L203.4 211.7L200.4 218.3L203.9 221.7L204.1 226.7L206.7 228L210.8 226.7L212.2 221.7L215 218.3L218 210L221 205L221.1 200L217.8 195L219.7 188.3L228.3 186.1L236.7 180L238.6 186.7L238.6 196.7L240 198.6L243.7 200L244.4 201.7L244.2 203.3L240.3 206.7L239.6 208.3L239.7 210L241.7 212.1L245 212.9L253.3 209.2L261.7 209.4L273.3 216.9L276.3 215L276.7 212.7L278.3 212.4L280.3 218.3L285 220.8L291.7 222.1L298.3 225.8L303.3 225.4L316.7 227.5L326.7 235.7L330.8 245L333.3 248.1L336.7 249.9L338.9 248.3L339 243.3L341.7 241.7L348.3 244.3L351.7 243.1L353.3 243.8L356.7 250.1L358.3 250.8L362.3 250L367.2 265L371.5 273.3L377 276.7L380 283.1L384.1 285L388.3 291.9L393.3 294.8L394.6 298.3L392.8 303.3L393 306.7L396.2 310L395.9 313.3L396.7 314.2L400 314.3M223.3 126.6L221.7 128.3L225 131.1L228.3 131L230.2 130L230.6 128.3L228.3 126.5L223.3 126.6M271.7 185L267.9 186.7L265.7 193.3L266 195L270 197.7L275 198.8L275.5 198.3L273.1 193.3L275.3 186.7L275 185.2L271.7 185M238.3 215.9L236.7 221.3L233.3 222.7L231.5 225L230 230L231.7 231.3L236.7 228.4L240 223.8L245 224.7L246.5 223.3L245 218L241.7 215.9L238.3 215.9M196.7 251.2L194.3 253.3L196.7 254L198.7 253.3L199.5 251.7L198.3 250.6L196.7 251.2M271.7 49.4L270 50.2L266.7 55.2L261.7 55.4L258.3 56.7L250 67.2L246.7 69L241.7 68.6L236.7 70.8L221.7 74.8L211.7 73.1L203.3 74.2L198.3 73.4L188.3 76.3L186.4 78.3L183.9 86.7L180.9 88.3L180.2 90L180.9 91.7L188 98.3L193.3 100L205 99.4L206.3 96.7L205 93.1L206.7 93.3L211.7 98.3L215 99.2L218.3 95.6L221.7 94.8L225 91.3L226.7 91.1L228.3 91.3L230 94.4L233.3 95.9L235 97.9L238.3 98.7L254.5 95L254.7 91.7L261.7 90.7L264.4 85L266.7 83.7L268.3 84.5L270.6 88.3L274.8 88.3L275.8 83.3L283.3 82.6L286.7 78.1L291.7 77.5L298.7 75L301.7 69.4L306.4 66.7L308.3 62.1L310 61.4L313.3 65.6L315 65.5L316.3 61.7L315 60.2L311.7 59.9L308.3 55.4L306.7 54.5L301.7 54.8L295 53.2L278.3 51.9L274.9 50L271.7 49.4M153.3 67.7L150.2 70L149.6 71.7L151.7 74.8L153.3 75L159 70L158.3 68.3L156.7 67.6L153.3 67.7M241.7 98.4L235.9 105L236.7 109.7L243.3 105.9L245.3 103.3L245 101.4L241.7 98.4M400 137.5L383.3 134.4L378.3 131.9L370 130.6L365 132.6L360 132.2L355 137.4L350 138.1L341.7 133.9L338.3 133.7L335 130.5L326.7 131L320.1 123.3L318.3 118.3L311.7 112.2L309.3 115L307.9 126.7L304.8 136.7L306 140L308.4 141.7L308.9 148.3L313.3 152.7L321.7 157.6L328.3 160L332 165L340.4 170L340 172.1L335 172.1L321.7 177.7L315 176L311.7 176.4L308.3 175.4L306.7 176.1L306.7 178.3L308.3 180.4L311.7 179.2L314.7 183.3L320 186.6L319.7 190L310 191.4L305 187.9L298.1 185L286.7 170.9L280 166.8L271.7 163.9L266.7 164.3L258.3 159.8L251.7 158.6L248.3 159L243.3 162.3L231.7 166L228.6 170L220.6 175L208.3 186.7L201.7 190L200.3 195L201.3 205L204.1 210L202.2 216.7L202.7 218.3L204.8 220L204.6 225L206.7 227.1L210 226.2L211.1 221.7L214.1 218.3L217.4 210L220.6 205L220.6 200L217 195L218.6 188.3L220 187.1L228.3 185.3L235 179.9L238.3 178.3L239.7 180L239.3 196.7L240.8 198.3L244.8 200L245.2 201.7L245 203.5L241.7 205.9L240.2 208.3L241.7 211.2L245 212.1L253.3 208.8L261.7 208.9L264.7 210L270.6 215L273.3 216.1L275.1 215L275.5 211.7L278.3 211.2L280 212.8L280.1 216.7L281.2 218.3L285 220.3L291.7 221.7L298.3 225.4L303.3 225L318.3 227.7L323.3 232.4L326.7 233.3L331.1 245L333.3 247.7L336.7 249.4L338.3 248.3L338.3 243.3L339.8 241.7L343.3 241L348.3 243.2L349.1 240L346.9 238.3L347.1 236.7L350 236.6L351.3 241.7L353.3 243L356.7 249.5L358.3 250.2L363.3 248.4L365.8 260L371.7 272.7L378.3 276.2L380 281.9L385 284.4L390.5 291.7L393.5 293.3L396.2 298.3L393.3 305.1L394.1 306.7L398.3 309.4L397.9 311.7L400 313.2M225 128.1L225 129L226.7 130.2L228.3 129.9L228.9 128.3L225 128.1M261.7 130L258.3 131.1L258 133.3L263.3 136.2L268.3 137.3L271.7 136.5L273.2 135L273.1 133.3L271.7 131.8L261.7 130M275 137.2L271.8 140L271.5 145L282.4 161.7L291.7 167L300 175.4L301.7 175.9L304.6 175L306.7 171.8L308.3 173.9L310 174.5L312.8 173.3L313.6 170L312.4 166.7L314.6 160L313.3 156.4L305 156.1L302.8 155L305 152.9L305.3 150L296.7 142.6L288.3 140.4L283.3 137.9L275 137.2M298.3 159.2L296.7 160.6L296.1 161.7L296.7 162.1L298.3 161.3L298.3 159.2M268.3 183.2L263.6 186.7L262.7 195L266.7 198L273.3 200.2L277.7 200L273.9 193.3L274.8 190L278.1 185L277.5 183.3L275 182.6L268.3 183.2M290 205L289.2 206.7L290 207L290.9 206.7L290 205M240 217.1L238.7 218.3L239.9 221.7L241.7 223.3L245 223.8L245.7 221.7L245 219.8L243.3 217.9L240 217.1M235 222.9L232.2 225L231 228.3L231.7 230.1L235 229.1L237.2 226.7L237.4 223.3L235 222.9M270 51.6L266.7 56.2L261.7 56.4L258.3 58.3L250.6 68.3L247.2 70L231.7 72.7L223.3 76.4L210 74L203.3 75.7L198.3 74.2L191.3 76.7L189.4 78.3L188.9 81.7L187.3 83.3L187.2 88.3L182.3 90L186.7 95.8L190 98.3L193.3 99L204 98.3L204.7 96.7L202.7 91.7L205 90.7L207.4 91.7L211.7 96.8L215 97.9L216.4 95L214.7 88.3L216.7 86.8L220 90.4L221.7 90.9L225 89L228.3 88.8L231.7 91.2L238.3 91.3L239.4 95L243.3 96L250 94.7L251.4 93.3L253.3 87.7L256.7 89.1L260 88.5L261.7 85L268.3 80.6L270 78.5L271.7 77.9L279.5 81.7L281.7 81.3L283.6 76.7L290 75.9L295 72.7L296.7 73.2L298.3 72L300.4 68.3L305.5 65L308.9 58.3L308.3 56.7L305.3 55L301.7 55.6L296.7 54L290 54L283.3 52.3L278.3 52.8L273.3 50.8L270 51.6M153.3 69.6L151.8 71.7L153.3 72.6L155.2 71.7L155.7 70L153.3 69.6M240 102.6L237.8 105L238.3 106.7L241.7 105.7L243.6 103.3L241.7 101.7L240 102.6M400 138.1L388.3 135.7L383.3 135.7L378.3 132.9L370 131.5L365 133.7L360 133.4L356.7 137.7L351.7 139.4L341.7 135.6L335 136.9L334 135L334.8 133.3L333.3 132L331.7 131.9L326.7 134.7L323.3 128.8L318.6 125L317.2 120L311.7 115.1L310.5 125L306.2 136.7L306.8 138.3L310.6 140L310.9 141.7L309.4 146.7L310.1 148.3L320 155.6L330.5 160L333.3 164.3L336.7 166.5L343.3 166.2L346.7 164.4L348.5 165L350.3 168.3L348.4 170L343.3 170.9L341.9 175L343 178.3L345 179.9L351.7 179L353.9 180L354.6 181.7L346.7 188.3L346.1 190L348.3 193.3L352.1 195L355.2 198.3L355 201.4L353.3 203.4L351.1 201.7L350 198.1L346.7 198.6L345 197.6L340 189.7L333.3 185L326.7 178.4L321.7 180.5L316.7 178.6L315 178.8L314.6 180L315.7 181.7L320.8 185L321.9 188.3L321.7 190.9L318.3 192.3L310 193.1L305 189.1L296.4 185L286.7 172.1L280 167.6L271.7 164.5L266.7 165.1L258.3 160.7L251.7 159.3L248.3 159.7L243.7 163.3L231.7 167.3L229.6 170L221.3 175L208.3 187.6L202.7 190L201.4 191.7L201 195L201.9 205L204.9 210L203.5 216.7L206.6 220L206 225L208.3 226.1L209.6 225L209.8 221.7L213.3 218.2L216.9 210L220.1 205L220 200L216 195L217.7 188.3L220 186.3L228.3 184.6L238.3 176.7L240 177L241.7 180.7L243.1 181.7L240.5 186.7L239.4 193.3L239.9 196.7L245 199.2L245.9 201.7L245.3 205L241.6 206.7L240.9 208.3L241.7 210.4L245 211.3L253.3 208.3L261.7 208.4L265 209.5L270 213.7L273.3 215.2L275 210.6L276.7 210.1L280 211L280.8 216.7L285 219.9L291.7 221.1L298.3 225L303.3 224.7L316.9 226.7L323.3 231.5L325 232.1L328.3 231.5L329.7 233.3L329.2 238.3L330.5 243.3L335 248.5L337.5 248.3L338.6 241.7L341.7 240.4L346.7 240.3L345 236.7L348.3 235.1L350.8 236.7L351.7 240L356.3 248.3L358.3 249.5L365 245.4L366.7 243L367.5 245L365 248.3L365.7 256.7L371.7 271.9L375 274.1L378.3 274.2L380.5 276.7L380.5 280L381.4 281.7L385 282.8L387.4 286.7L396.7 295L398.2 291.7L397.6 285L398.3 283.9L400 283.6M261.7 131.6L261.7 133.4L263.3 134.1L266.1 133.3L263.8 131.7L261.7 131.6M275 139.2L273.4 141.7L273.3 143.9L280.1 156.7L285 162.1L288.3 162.9L291.7 161.7L297.3 156.7L298.3 153.4L301.7 152.6L303.3 151.2L303.6 150L302.6 148.3L295 142.7L288.3 141.8L283.3 139L276.7 138.5L275 139.2M306.7 158.2L302 160L299.8 163.3L300 165L303.3 167L308.3 168.3L310 167.2L310.8 165L310.9 160L310.6 158.3L306.7 158.2M268.3 181.3L258.3 183.9L258.2 186.7L260.3 190L260.7 195L266.7 199.4L276.7 201.4L281.7 204.4L282.8 203.3L278.3 199L274.6 193.3L275.6 190L281 183.3L276.7 181.2L268.3 181.3M286.7 204.9L285.7 205L287.3 206.7L290 208L291.7 207.9L292.3 206.7L291.7 204.9L286.7 204.9M241.7 219.3L242.4 221.7L244.1 221.7L243.3 219.8L241.7 219.3M233.3 224.3L231.9 228.3L233.3 229.2L235.2 228.3L236.9 225L235 223.7L233.3 224.3M271.7 51.9L268 56.7L260.4 58.3L250 70.2L236.7 73.6L230 74.2L223.3 78.1L216.7 75.8L210 74.9L206.7 75.5L203.3 77.3L200 75.1L195 76.1L191.9 78.3L189 85L190.8 90L186.5 91.7L186.5 93.3L190 96.9L193.3 98L201.7 97.4L203 96.7L201.1 91.7L205 89.4L208.3 90.5L213.3 95.6L213.8 93.3L212.7 88.3L215 85.2L216.7 84.5L218.3 84.7L220 87.5L221.7 88.4L228.3 87.5L233.3 89.5L236.7 89.2L240 90.6L241.7 93.8L246.7 94L248.6 93.3L250 91.7L250 86.5L253.3 84.9L256.7 86.7L258.3 86.5L260.1 83.3L268.2 78.3L270 75.3L271.7 75.3L275 78L278.3 78.8L283.3 74.3L286.7 74.9L290 74.2L293.3 70.6L296.7 69.7L300 66.3L303.3 65L306.9 60L307.6 58.3L307 56.7L305 55.9L300 56.3L296.7 54.7L290 54.6L283.3 52.8L278.3 53.7L271.7 51.9M400 138.8L388.3 136.6L381.7 136.6L378.3 133.9L370 132.4L365 134.7L360 134.6L356.7 139L351.7 140.4L341.7 137.1L335 139.3L325 137.4L318.3 139L316.6 138.3L316.5 136.7L321.7 134.9L323 133.3L322.4 130L318.3 127.4L311.7 128.1L310 129.9L308.2 136.7L312 138.3L313 140L310.5 146.7L311.2 148.3L323.3 156.6L331.7 159.4L335 164.5L338.3 165.5L345.3 161.7L348.3 161.5L351.7 166L356.7 169.2L359.9 166.7L360 161L363.3 160.5L367 161.7L367.5 163.3L366.9 165L364.7 166.7L361.7 172.2L358.3 173.2L356.7 170.7L355 170.3L350 171.9L345 172.3L344 173.3L343.6 175L345.2 178.3L353.3 177.6L356.2 178.3L356.7 182.4L351.7 185.6L348.4 190L349.4 191.7L354.9 195L356.8 198.3L355 207.3L353.3 208.4L350 204.9L346.7 203.7L345 202L338.3 190L328.3 182.2L325 181.4L322.3 183.3L323.9 191.7L323.3 192.4L315 195.2L310 194.5L304.9 190L295.2 185L286.7 173L278.3 167.3L271.7 165L266.7 165.7L256.7 160.7L253.3 160.1L248.3 160.6L245 164.1L240 165L233.3 167.5L228.2 171.7L223.3 174L211.7 184.6L208.7 188.3L203.3 190.3L202.2 191.7L201.6 195L202.6 205L205.6 210L204.8 216.7L208.3 218.8L211.7 218.2L215 213.7L220 203.4L219.5 200L214.9 195L214.7 193.3L217.7 186.7L228.3 184L240 174.6L243.3 179.7L246.7 180.1L247.7 181.7L241.7 186.2L240.4 190L239.9 193.3L240.7 196.7L245.4 198.3L246.6 200L246.7 206.1L243 206.7L241.5 208.3L242.4 210L245 210.6L253.3 208L261.7 208L267 210L271.7 213.6L273 213.3L272.6 211.7L273.4 210L278.3 209.5L281.6 211.7L281.4 216.7L285 219.4L293.3 221.2L298.3 224.6L303.3 224.3L318.2 226.7L325 231.2L328.3 229.8L330.9 233.3L329.8 238.3L330.8 243.3L335 248L336.8 248.3L337.8 241.7L343.3 238.6L344 235L345 234.4L350.5 235L356.7 247.9L358.3 248.9L362.3 246.7L365 241.7L366.7 241.1L370.4 246.7L366.7 248.1L365.9 250L366.7 258.3L372.2 271.7L375 273.4L378.3 272.2L382.7 276.7L382.4 280L385 280.8L388.3 286.3L395 292L396.7 290.4L396.7 282.7L400 282.6M276.7 139.8L275.3 141.7L275.7 143.3L278.7 145L278.4 148.3L280.3 151.7L281.3 156.7L285 160.5L290 160.8L293.1 158.3L294.7 155L292.1 153.3L292.4 151.7L295 149.1L296.7 148.9L300 150.5L301.5 150L300 147.6L294.3 143.3L286.7 143.4L283.3 140.3L276.7 139.8M303.3 161.2L302.2 163.3L303.3 164.7L308.3 165.8L309 165L308.6 161.7L306.7 160.1L303.3 161.2M258.3 179.4L255 183.3L258.4 190L259 195L260.1 196.7L266.7 200.5L275 201.9L280 205L290 208.7L292.8 208.3L292.5 205L290 204.1L285 204.1L275.8 195L275.3 193.3L276.3 190L280 185.9L283.6 185L284.3 183.3L283.3 182.1L275 179.7L258.3 179.4M235 224.6L233.3 225.4L233.3 228.4L235.7 226.7L235 224.6M271.7 53.2L268.3 57.8L261.7 59L251.7 70.4L236.7 74.7L231.7 74.6L228.3 75.9L221.6 81.7L221 85L221.7 85.8L233.3 87.8L236.7 87.6L240 88.8L243.3 92.5L245 92.9L247.7 91.7L248.4 90L247.8 86.7L249.1 85L261.7 80.6L270 73.6L273.3 73.6L275 76.1L276.7 76.6L278.3 76.4L281.4 73.3L283.3 72.7L288.4 73.3L291.7 69.6L297 66.7L297.9 65L296.7 63.1L302.5 63.3L306.2 58.3L305 57L300 57.4L296.7 55.5L290 55.3L283.3 53.3L278.3 54.4L271.7 53.2M196.7 76.1L193.7 78.3L191.1 85L191.2 86.7L193.5 90L191.7 92.2L189.1 93.3L189.4 95L193.3 96.9L200 96.4L201 95L199.4 91.7L200.3 90L210 87.7L218.8 81.7L220 80L219.7 78.3L216.7 76.8L208.3 75.8L204.9 78.3L205 82.4L201.7 83.1L200.9 81.7L202.4 78.3L201.4 76.7L198.3 75.7L196.7 76.1M400 139.5L395 139.3L386.7 137.3L381.7 138.6L378.3 134.7L370 133.2L365 136.1L361.7 135.1L360 136.3L358.3 140L353.3 141.4L340 138.9L337.8 140L337.3 141.7L338.6 145L336.7 146.7L335 146.6L333.7 145L333.3 140.7L330 139.8L315 141.4L311.7 146.7L312.6 148.3L323.3 155.9L333.3 158.8L335 162.8L336.7 164.1L338.3 164L341.7 161.1L346.7 158.9L350 159.1L351.7 163.4L356.7 165.7L357.8 165L356.7 163.3L358.1 160L360 158.6L366.7 159.8L368.3 160.8L369.2 163.3L368.3 168L370 167.2L371.7 168.2L373.6 170L374 171.7L372.3 173.3L370.5 173.3L369 171.7L368.3 168.5L366.7 169L360.7 175L360.5 176.7L363.3 177.4L368.3 175.2L370 175.4L370.5 176.7L369.1 180L366.7 182.1L360 182.5L358.3 184L353.3 185.5L351.9 186.7L350.8 190L353.6 191.7L356.6 195L357.7 198.3L356.6 213.3L366.7 219.2L370 218L371.7 218.6L377.1 228.3L376.8 240L379.1 243.3L378.9 245L375 248.5L370 248.4L367.1 250L367.5 260L372.9 271.7L375 272.5L378.3 270.4L381.7 274.6L386.5 276.7L385.9 278.3L387.2 283.3L393.3 289.1L395 290.1L395.8 288.3L395 279.5L400 281.5M281.7 143.5L280.2 148.3L282.9 151.7L282.7 156.7L286.7 159.4L290 158.8L290.7 156.7L288.8 153.3L291.5 150L295.9 146.7L295.2 145L291.7 143.8L286.7 145.9L283.3 143.5L281.7 143.5M248.3 161.6L245 166.6L240 165.9L233.3 168.5L223.3 174.4L211.7 185.6L210 188.4L208.3 189.7L205 190.1L203.1 191.7L202.2 200L203.3 205.4L206 208.3L205.4 215L206.7 216.9L211.7 216.6L214.5 213.3L216 208.3L219.3 205L219 200L213.8 195L213.5 193.3L216.7 186.3L228.3 183.3L238.3 174.3L241.7 172.6L242.6 173.3L243.3 178L245 178.8L250 178L252 176.7L250.6 173.3L251.7 171.7L253.3 171.8L256.1 173.3L256.7 176.5L258.3 177.2L270 177.8L281.7 180.5L285 180.2L285.3 185L278.3 188L275.8 193.3L278.3 197.4L285 203.3L291.7 203.9L293.2 205L293.9 208.3L293.3 209.7L291.7 209.9L283.3 207.3L275 202.8L266.7 201.5L257.6 196.7L257 190L253.3 184.4L250 182.7L248.3 182.9L242.8 186.7L241 190L240.5 193.3L241.7 196.7L247.8 198.3L247.8 208.3L261.7 207.5L270 210.8L275 208L280 208.9L282.7 211.7L282.1 216.7L285 219L293.3 220.6L298.3 224.1L303.3 224L318.3 226.3L323.3 229.9L325 230.3L328.3 227.8L329.6 228.3L332 233.3L330.4 238.3L330.6 241.7L331.7 244.3L335 247.4L336.7 247.4L337 241.7L342 238.3L343.3 233.6L350 233.9L351.5 235L356.7 246.9L358.3 248.3L361.3 246.7L363.4 243.3L363.7 241.7L361.7 238L361.7 235L368.3 240.4L371.7 244.9L373.3 245.2L374.8 243.3L376.3 240L374.7 238.3L373.5 233.3L371.7 230.2L366.7 225.4L363.3 228.1L361.7 234.9L361.1 233.3L358.6 231.7L357.9 226.7L355 220L351.7 215.3L348.8 213.3L349.5 208.3L346.7 207.4L343.3 209.7L343.1 201.7L338.2 191.7L328.3 183.7L325 183.1L324.1 185L326 193.3L320 195.5L316.7 199.2L308.3 194.9L303.7 190L295 185.8L291.7 180.5L288.3 177.8L285.9 173.3L278.3 168L271.7 165.6L266.7 166.4L255 160.9L248.3 161.6M243.3 207.9L243.3 209.1L245 209.3L246.1 208.3L243.3 207.9M271.7 54.4L268.3 59.4L263.3 59.6L261.7 60.7L251.7 71.6L236.7 75.6L230 75.9L226.2 78.3L223.2 83.3L225.4 85L233.3 86.2L236.7 85.7L243.3 87.9L243.5 86.7L248.3 83.9L261.7 78.5L263.3 75.4L266.7 73.7L273.3 71.3L276.7 74.7L278.3 74.4L281.7 71.5L286.7 71.7L288.3 70.8L294.2 66.7L294.9 65L294.5 61.7L298.8 58.3L296.7 56.5L290 56L283.3 53.8L278.3 55.1L273.3 53.9L271.7 54.4M198.3 76.4L195.1 78.3L193.5 85L193.6 86.7L196.7 89.1L201.7 88.3L204.5 86.7L203.8 85L198.3 84.7L196.8 83.3L200.5 80L201 78.3L198.3 76.4M208.3 76.7L206.5 78.3L206.7 80L210 83.7L212.9 83.3L217.7 80L216.7 78L208.3 76.7M245 87.4L243.4 88.3L245 90.7L245.9 90L245 87.4M196.7 91.5L193.3 93.3L192.7 95L196.7 96L199 95L196.7 91.5M400 141.1L395 140.6L390 138.5L386.7 138.1L381.7 140.7L378.3 135.6L370 134.1L366.7 136.9L365 137.4L361.7 136.6L358.4 141.7L355 142.9L346.7 140.9L341.7 142.8L340 146.7L336.7 148L332.5 146.7L331.7 142.1L330 141.3L325 142.7L316.7 142.7L313.3 146.7L323.3 155.2L335 157.9L338.3 161L343.3 158.1L350 156.9L353 158.3L355 161L355.7 158.3L353.9 156.7L356.7 154.8L370.2 160L371.3 165L377.4 171.7L372 178.3L373.3 180.2L376.7 179.6L385 182.8L386.1 185L386.1 190L388.4 193.3L387.4 198.3L385.9 200L378.3 200.5L371.6 196.7L366.7 191.8L360.5 191.7L358.8 186.7L355 185.9L353.3 186.7L353.3 189.7L356.5 191.7L358.1 195L358.7 201.7L357.5 206.7L361.7 214.1L365 214.9L366.7 214L368.3 209.5L373.3 210.7L375 210.1L378.3 211.7L379.6 213.3L378.3 216.9L375.2 218.3L374.5 220L379.2 228.3L378 236.7L380.8 245L375 250.8L370 249.9L368.3 251.6L368.1 260L373.3 270.9L375 271.4L376.7 269.3L378.3 269.3L381.4 273.3L383.3 274.4L388.8 273.3L389.9 275L387.8 278.3L387.7 281.7L389.7 285L393.3 286.8L394.3 285L391.9 276.7L393.3 276.3L400 280M290 146.6L288.3 148.8L292.8 146.7L291.7 145.5L290 146.6M285 153.2L285 156L286.7 155L285 153.2M251.7 161.5L248.7 163.3L248.9 168.3L251 170L256.4 171.7L258.1 175L260 176.1L268.3 176.2L281.7 179.2L285.9 176.7L284.9 173.3L276.7 167.7L271.7 166.1L268.3 167.3L266.7 167L256.7 162.1L251.7 161.5M236.7 168.1L223.1 175L218.4 180L216.7 183.5L218.3 184.3L226.7 183.6L231.7 180.4L238.3 173.1L242.5 170L243.3 168.3L241.7 166.8L236.7 168.1M245 173L243.9 176.7L245 177.5L248.9 176.7L249.5 175L248.3 173.1L246.7 172.3L245 173M288.3 180.3L285 186.6L280 187.2L277.4 190L276.4 193.3L278.3 196.8L285 202.8L293.3 204.3L295 210L291.7 210.7L285 208.7L283.4 210L283.8 211.7L282.8 216.7L286.7 219.1L293.3 219.8L298.3 223.7L301.7 223.4L318.3 225.9L323.3 229.1L325 229.3L327.7 226.7L330 222.1L333.3 221.3L334.7 220L333.7 216.7L331.3 215L331.9 213.3L338.4 210L341.7 206.3L341.8 201.7L340 198.1L338.3 196.9L336.7 197.2L335 199.3L333.3 199.3L330 197L326.7 195.9L323.3 196.1L320.5 198.3L320 202L318.3 202.3L313.3 199L308.3 197.3L304.9 191.7L294.3 186.7L291.7 181.5L288.3 180.3M215 184.7L211.9 186.7L210 190.9L205 191.1L203.1 193.3L202.6 198.3L203.3 203.3L207.3 208.3L206.3 215L208.3 216.1L211.7 215.3L213.7 213.3L214.5 210L213.3 208.6L211.7 208.3L216.7 207.3L218.3 205.8L219.2 203.3L218.5 200L214.1 196.7L212 193.3L211.8 191.7L215.1 188.3L215.8 185L215 184.7M248.3 184.2L242.6 188.3L241.1 193.3L241.7 195.4L243.2 196.7L250 198.3L248 201.7L248.3 206.7L250 207.6L263.3 207.2L270 209L273.3 206.9L276.8 206.7L275 204.3L270 203.8L261.7 199.2L256.7 197.7L255.5 196.7L256.6 193.3L255.7 190L251.7 184.8L248.3 184.2M346.7 215L340 218.7L337 225L336.7 231.1L335 232L331.2 238.3L331.4 243.3L333.3 245.8L336 246.7L336.7 240.9L340.7 238.3L341.7 233.3L343.3 232.4L350 233L352.4 235L357.3 246.7L358.3 247.6L360 247L362 245L362.5 241.7L357.8 233.3L356.5 226.7L351.3 216.7L348.3 214.6L346.7 215M273.3 54.7L271.7 55.5L270 59.5L267.4 61.7L266.7 64.3L265.6 61.7L263.3 61.4L260 65.9L256.7 67.9L253.3 71.9L236.7 76.6L230 76.8L226.1 80L225.5 83.3L233.3 84.7L243.3 84.2L250 82L255 78.9L258.3 78.4L263.3 73.8L275 68.7L278.3 71.6L290.6 66.7L292.5 65L292.4 61.7L295.8 58.3L295 57.4L290 56.8L283.3 54.3L278.3 56L273.3 54.7M196.7 78.3L196.7 80.3L198.3 80.3L199.6 78.3L198.3 77.5L196.7 78.3M251.7 162.6L249.8 165L250.8 168.3L257.7 171.7L260 174.8L268.3 174.8L280 177.9L283.3 177.1L284.6 175L283.8 173.3L279.4 170L273.3 166.8L271.7 166.6L268.3 168.1L256.7 162.7L251.7 162.6M240 168.2L223.6 175L219 180L218.3 182.8L223.3 183.5L228.3 182.4L233.3 178.3L240.6 170L240.7 168.3L240 168.2M290 181.5L288.3 182L286.9 186.7L281.7 187.1L279.4 188.3L276.9 193.3L278.6 196.7L285 202.3L293.3 203.4L296.5 210L293.3 211.7L285.6 210L283.3 215L283.5 216.7L288.3 219L293.3 218.5L298.3 223.2L301.7 222.9L318.3 225.6L323.3 228.4L325 228.2L328.4 221.7L331.3 218.3L328.3 215.1L326.4 211.7L326.7 210.4L330 211.5L333.3 210.9L335.9 208.3L336.7 205.8L338.3 207.1L340 205.9L340 201.4L338.3 200.4L336.7 203.9L335 204.3L330 198.9L325 197.8L322.7 200L323.9 205L323.3 207L313.3 200.4L306.5 198.3L305.4 193.3L303.9 191.7L292 186.7L291.7 183.3L290 181.5M246.7 186.6L242.4 190L242.2 195L245 196.4L253.3 196.4L255.4 193.3L253.3 188L250 185.5L246.7 186.6M205 192.4L203.1 198.3L205 205.1L208.3 207.2L211.7 205.2L216.7 206.6L218.3 205.1L218.8 201.7L216.7 198.7L212.3 196.7L210 193.3L205 192.4M250 199.4L248.4 203.3L250 207L258.3 207.4L263.3 206.5L268.3 207.3L269.6 206.7L269.7 205L260 199.3L253.3 198.4L250 199.4M210 209L208.3 210L207.7 211.7L207.2 213.3L208.3 215L211.7 213.9L213.4 211.7L212.3 210L210 209M400 240.8L396.7 240.4L395.3 235L390 227.2L387.2 225L387 223.3L388.6 220L388 216.7L385 213.8L381.7 214.7L378 220L377.7 221.7L382.2 228.3L379.7 231.7L379.8 238.3L383.3 245.9L386.7 247.9L388.3 248L391.1 245L393.3 245.6L393.8 248.3L390.5 253.3L391.7 256.4L394.1 258.3L394.2 260L391.7 261.6L390 259.9L386.7 259.8L378.3 263.8L376.7 263.3L375.7 261.7L378.5 256.7L378.3 253.9L381.7 253.5L383.5 251.7L383.3 248.5L381.7 247.6L378.8 248.3L376.7 252L370 251.4L368.6 258.3L370 263.5L373.3 269.4L378.3 268.3L383.3 273.4L388.3 271.7L398.3 277.6L400 277.7M346.7 216.1L343.3 219.2L341.7 219.5L338.3 224.8L338 226.7L339.9 231.7L335 234.6L331.7 238.8L331.7 243.1L333.3 245.3L335 245.9L336.2 240L340.6 236.7L340.2 231.7L348.3 232.5L351.7 231.9L357.1 245L358.3 246.9L360 246.2L361.8 243.3L361.5 241.7L355.5 231.7L352.1 220L350 216.6L348.3 215.8L346.7 216.1M283.3 54.8L278.3 57L273.3 55.5L271.8 56.7L268.4 66.7L266.7 67.7L261.7 67.5L258.3 68.9L255.5 71.7L255.4 73.3L258.3 74.7L268.3 70.9L275 66.8L276.7 66.6L280 68.6L287.2 65L291.2 60L291.1 58.3L283.3 54.8M246.7 74.2L243.3 76.2L236.7 78L230 78.1L227.7 80L227.4 81.7L230 82.9L243.3 82.4L250 80.5L254.2 75L250 73.5L246.7 74.2M253.3 163L251.2 165L252.1 168.3L256.7 170.3L261.7 174.2L268.3 173.3L273.3 175.6L280 176.9L283.3 175L278.4 170L273.3 167.4L270 167.8L268.3 169.2L261.7 164.9L253.3 163M233.3 171.2L224 175L220.6 178.3L219.1 181.7L220 182.6L225 183L230 180.9L234.3 176.7L237.1 171.7L236.7 170.6L233.3 171.2M246.7 187.9L243.2 190L242.4 193.3L243.1 195L248.3 196L253.3 194.5L254.1 191.7L251.7 187.6L250 186.9L246.7 187.9M280 188.3L277.3 193.3L279 196.7L285 201.9L293.3 202.8L297.6 210L293.3 213.3L291.7 213.5L288.3 211.4L286.7 211.8L284.2 215L285 217.3L289.9 218.3L293.3 216.3L298.3 222.3L318.3 225.2L323.3 227.5L325.2 226.7L328.2 220L328.1 216.7L324.8 210L321.7 207L313.3 201.4L308.3 200.6L304.4 198.3L304.6 193.3L296.7 188.7L291.7 188.8L288.3 187.2L280 188.3M205 194.1L203.8 198.3L205 203.8L208.3 205.4L211.7 204L215 205.7L216.7 206L217.8 205L218.4 201.7L216.7 199.3L213.3 198.2L210 198.9L208.3 194.7L205 194.1M251.7 199.4L250 200.4L248.9 203.3L250 206.1L251.3 206.7L258.3 207.1L266.6 205L260 200L251.7 199.4M210 211.2L210 213.4L210.9 211.7L210 211.2M346.7 217.7L343.6 221.7L340.8 223.3L339.3 226.7L340 228.7L341.7 229.9L348.3 231.8L351.1 230L352.3 226.7L350.2 218.3L348.3 216.8L346.7 217.7M355 235L355.2 240L358.3 245.8L360 245.3L361 243.3L360.6 241.7L355 235M333.3 238.8L331.9 240L331.6 241.7L333.3 244.7L335 244.4L335.2 243.3L335 239.4L333.3 238.8M400 242.1L396.6 243.3L395.4 248.3L391.9 253.3L392.2 255L396.9 258.3L396.6 260L395 261.9L391.9 263.3L390 265.8L388.3 266.3L386.7 261.2L385 262.2L383.3 261.9L378.3 264.8L376.7 264.6L374.5 261.7L377.3 256.7L373.3 252.6L370.8 253.3L369.5 258.3L371.3 265L373.3 268L376.7 266.7L378.3 267L383.3 272.4L388.3 270.2L390 270.4L396.7 274.9L400 274.9M273.3 56.4L271.9 60L271.7 65.6L276.7 64.6L280 66.2L281.7 65.9L286.7 63.5L288.9 60L286.2 56.7L283.3 55.4L278.3 58.5L273.3 56.4M261.7 69.6L259.2 71.7L262.1 71.7L264.6 70L261.7 69.6M248.3 74.5L243.6 78.3L246.7 79.5L250 78.6L251.3 76.7L250.9 75L248.3 74.5M253.3 164L252.3 166.7L253.3 168.3L257.4 170L261.7 173.3L267.8 171.7L266 168.3L263.3 166.1L256.7 163.9L253.3 164M271.7 167.8L268.8 170L268.5 171.7L270 173.3L273.3 174.8L280 175.6L280.9 175L280.6 173.3L277.4 170L271.7 167.8M228.3 173.2L222.4 176.7L220.2 180L220.2 181.7L223.3 182.6L226.7 182.4L232.4 178.3L234.7 175L235 172.5L233.3 172L228.3 173.2M281.7 188.1L280 188.9L278 191.7L278.3 195L285.4 201.7L288.3 202.4L293.3 202.2L294.4 203.3L295.6 206.7L298.8 210L294.5 215L298.3 221.4L306.7 223.7L318.3 224.8L323.3 226.7L325 225.3L327.4 220L327.4 216.7L322.3 208.3L313.3 202.3L308.3 201.3L302.6 198.3L303.7 193.3L296.7 189.4L295 189L291.7 190L281.7 188.1M245 189.5L243.3 191.7L243.1 193.3L244.5 195L249.8 195L252.8 193.3L252.2 190L250 188.4L245 189.5M205 196.6L204.6 200L205.9 203.3L208.3 204L209.8 203.3L209.8 201.7L206.7 196.7L205 196.6M213.3 199.3L210.5 201.7L216.7 205.4L218 203.3L218 201.7L216.7 199.8L213.3 199.3M253.3 199.6L250 201.5L249.5 203.3L251.7 206.2L258.3 206.7L263.5 205L263.3 203.3L261.7 201.5L253.3 199.6M286.7 213.8L285.4 215L285.3 216.7L288.3 217.6L289.9 216.7L290 214.7L288.3 213.6L286.7 213.8M356.7 238.6L356.4 240L358.3 244.4L360 243.6L358.4 240L356.7 238.6M333.3 240L332.5 241.7L333.3 243.9L334.3 243.3L333.3 240M371.7 254.4L370.5 258.3L371.7 263.7L373.3 266.6L375.5 265L372.7 261.7L375.9 256.7L373.3 253.9L371.7 254.4M281.7 56.7L278.8 61.7L279.4 63.3L281.7 64.2L285 63L287.4 60L284.7 56.7L281.7 56.7M275 57.8L273.4 58.3L273.2 60L275 62.2L276.2 60L275 57.8M255 164.5L253.8 165L253.2 166.7L254.7 168.3L258.3 169.8L261.7 172.5L265.6 171.7L265.3 168.3L263.3 166.5L255 164.5M270 169.8L269.7 171.7L271.7 173.6L276.7 174.2L278.7 173.3L276.3 170L273.3 168.4L271.7 168.4L270 169.8M230 173.1L226.7 174L222.8 176.7L220.8 180L221.5 181.7L226.7 182.1L232 178.3L234.1 175L233.9 173.3L230 173.1M246.7 189.9L244.3 191.7L244.1 193.3L245 194.3L246.7 194.8L251.1 193.3L250.3 190L246.7 189.9M280 189.4L278.2 193.3L279.8 196.7L286.7 201.9L293.6 201.7L296.7 207.5L300 210L299.9 211.7L296.7 213.3L296 215L298.3 220.1L306.7 223.4L316.7 224.1L321.7 225.7L323.3 225.7L325 223.9L326.7 220L326.6 216.7L323.2 210L313.3 203L308.3 202L301 198.3L300.4 196.7L302.2 193.3L298.3 192.8L296.7 190.2L295 189.7L291.7 190.8L283.3 188.6L280 189.4M215 199.8L212.8 201.7L213.7 203.3L216.7 204.7L217.4 201.7L215 199.8M251.7 200.8L250 203.3L251.7 205.6L258.3 206.3L261.7 205L262.3 203.3L260.9 201.7L258.3 200.7L253.3 200.2L251.7 200.8" fill="none" stroke="#2A2E28" stroke-opacity=".14" stroke-width=".55" stroke-linejoin="round"/><path d="M204.2 230.7L205.3 230.5L203.7 232L201.5 232.3L199.3 233.3L199.9 234L199.9 234.5L200.4 234L199.9 234.7L199 234.5L198.6 234.7L198.8 235.2L199 235L199.3 235.5L199.9 235.1L200.3 235.2L199.9 236L198.1 235.8L196.5 236.3L194.6 236.2L193.9 236.8L193.5 236.8L192.1 237.6L190.4 237.8L189.5 237.2L189.4 234.9L191.3 233L196.7 232.4L198.4 230.7L199.5 230.8L200.9 230.4L203.2 230.3L202.6 230.7L202.9 231L203.5 230.6L204.2 230.7ZM189 258.9L188.9 259.9L187.7 260.1L188.6 260.3L188.9 260.7L188.7 261.6L187.4 263.3L187.3 263.2L188 262.1L187.7 260.8L188 260.6L186.1 260.3L184.7 259.3L183.3 259.4L182.4 258.7L181.8 257.5L182.3 256.5L184 256L184.7 256.7L186.7 257.4L187.9 258.4L188.5 258.3L189 258.9ZM184.2 260.6L184.3 261.7L183.1 263.5L182.5 263.9L182.5 264.6L182.9 264.7L182.3 266.1L182.3 265.4L181.1 265.3L180.6 264.8L180.8 264.1L180.2 263.9L180.3 263.7L182.4 263.9L182.1 262.6L182.6 262L183.3 262L183.1 261.6L183.2 261.3L184.2 260.6ZM159.6 113.4L160.1 114L160.2 115.2L159.6 115.5L158.5 114.9L158 115.5L157.6 115.1L157.5 113.9L156.6 114L156.3 113.2L156.7 112.9L156.8 113.4L157.4 113.6L158.1 112.9L158.7 112.8L159.6 113.4ZM212.6 26.4L212.7 26.8L212.6 27.2L212.1 27L211.6 27.6L210 27.6L207.7 29.3L207.1 28.6L206.7 29.1L206.7 28.5L206.2 28.1L206.1 29.3L205.5 28.1L205.1 28.5L204.8 27.7L204.4 27.8L203.9 26.9L203.6 26.9L203.4 26.4L203.8 25.8L203.6 25.2L203 24.9L202.4 25.1L202.3 23.9L203 24.4L203 23.9L203.5 24.6L204.2 23.7L204.5 24.1L204.3 24.4L204.6 24.4L204.8 23.4L205.2 23.8L205.9 22.7L207.4 22.6L208.9 23.5L209.3 24.8L209.9 24.3L210.4 24.3L211.8 25.3L212.6 26.1L212.6 26.4ZM375.1 232.8L375.5 233.3L374.8 233.6L374.9 233L374.4 230.9L373.3 229L372.8 227.3L368.7 223.6L367 221.3L366.5 220.1L368.6 222.4L369.5 223.9L371.2 225.3L372.3 225.6L372 225.8L372.1 226L373 226.6L374.4 229.4L374.5 229.7L374.2 229.6L375.1 232.8ZM131 220.5L131.1 220.7L130.8 220.8L129.5 220.9L129.8 221.3L129.2 222.3L130.1 223.1L130 223.3L127.9 224.8L127.8 224.6L128.3 224.2L127.8 224.1L127.7 223.6L127.4 223.7L128.5 222.6L128.3 222L127.7 222.2L127.9 222.6L127.3 222.5L126.3 223.1L125 223L125.1 222.6L126.5 222.5L127.2 222L127.1 221.8L127.9 221.7L126.6 221.2L126.6 220.9L127.1 221L127.5 220.8L127.6 220.6L127.2 220.6L127.4 220.3L128.2 221.1L128.8 220.8L128.2 220.6L128.5 220.2L129.1 220.7L131 220.5ZM262.9 188.9L263.4 189.6L262.8 190.3L261.5 188.8L261.3 188L261.5 186.5L261.9 186.7L261.7 187L262.1 187.4L262 188.7L262.4 188.6L262.9 188.9ZM115.2 138.5L115.4 138.3L115.6 138.6L115.4 139.4L113.1 141.3L112.7 140.8L111.9 140.6L111.2 139.2L110.9 139.2L111.2 139.1L111.7 139.7L112 139.6L111.7 139.2L111.9 138.7L113.5 139.3L113.9 139.1L113.9 138.9L114.7 139.2L115.2 138.5ZM128.2 208.7L127.5 209.2L128.3 209.3L127.6 209.9L127.9 210.5L127.4 210.5L127.4 209.8L126.7 209.2L126.8 208.2L128 207.5L128.2 208.1L129.6 207.4L130.1 207.6L128.2 208.7ZM137.6 214.1L138 214.7L138 215.2L137.7 215.3L136 214.7L135.7 214.2L136.4 213.8L137.6 214.1ZM166.2 238.6L166.4 240L166.1 240.2L165.8 240.1L165.8 238.7L164.7 237.3L166.2 238.6ZM171.4 227.9L171.5 228.2L171 228.3L170.1 228.1L170 227.8L168.6 227.8L166.7 228.7L164.3 229L164.6 228.5L163.9 227.7L165.1 228.4L165.6 228.4L168.9 226.7L169.6 227.2L169.2 227.6L170.5 227.4L171.4 227.9ZM164.1 224.1L164.4 223.4L165.2 223.4L166.5 222.6L166 223.3L166.2 223.6L167.2 223.5L167 224L167.2 224.5L165.6 223.9L165 224.1L164.4 223.8L164.1 224.1ZM168.9 233.7L169.3 234.1L167.7 234.2L167.2 233.9L167 234.2L166.5 234.1L166.6 233.8L165.4 234.1L165.8 235L167.8 235.3L168.4 235.7L168.7 236.1L168.5 236.4L167.8 235.9L166.8 236L166.6 235.9L167.4 235.7L165.5 235L164.7 234L164.7 233.3L164 232.6L164 232.2L165.7 233.9L166.2 233.6L166.1 233.4L167.5 233.3L168.9 233.7ZM337.2 207L337.1 207.7L337 207L336.5 206.8L336 204L334.5 202.7L333.7 201.3L333.1 201.1L333.3 200.7L334.1 201.3L334.4 201.1L334.7 201.4L334.5 201.8L335 201.9L336.4 203.6L336.7 204.8L336.5 205.4L337.2 207ZM192.8 249.5L193.7 249.4L193.7 249.8L192.4 250.1L191.4 250L190.6 249.4L190.2 248.7L188.2 248.4L187.6 248.7L186.8 248.7L186.1 248.4L185.9 247.4L185.5 247.3L185.1 247.5L186 246.7L186.6 246.7L187.2 247.1L187.1 246.8L187.4 246.6L188.3 246.9L188.1 247.5L187.8 247.3L188.1 247.2L188 247L187.5 247.3L187.4 247.6L187.7 247.8L188.6 247.8L188.8 247L190 247.6L192.4 247.6L192.7 247.8L193.3 247.6L193.3 248L192.9 248L192.9 248.4L192.5 248.5L190.3 248.4L191.2 249.3L192.8 249.5ZM136.1 210.4L135.2 210.6L134.1 210.3L133.6 209.7L133.9 209.6L136.4 210.1L136.1 210.4ZM207.2 220.3L207.6 220.2L207.5 220.4L206.8 220.9L204.7 221.8L203.1 223.2L202.6 223.2L202.4 223.6L201.8 223.8L199.7 225.7L199.1 226.6L198.4 226.7L198.4 226.2L199.5 224.7L199.4 225.4L199 225.9L200 224.8L200.3 224.9L200.8 224.4L200.4 224.1L199.9 224.4L200 224L201.1 223.7L201.7 222.9L203.2 222L204.5 221.3L206.6 220.8L207.2 220.3ZM230.5 225.3L230.4 226.5L230.1 226.6L229.5 226.1L229.3 225L228.3 224.8L227.4 224L227.3 223.8L227.7 223.6L227.6 223.4L227.2 223.4L226.8 223.9L226.4 223.8L226.4 223.4L227.3 222.5L228.6 222.9L230.5 225.3ZM157.8 205L158 205.5L156.7 205.9L156.4 205.2L156.6 204.8L157.2 204.6L157.8 205ZM140 214L140.1 214.4L138.8 214.1L138.9 212.8L138.5 212.3L139 211.4L139.2 212L140 212.7L139.5 212.6L139.1 212.9L139.6 213.3L140.1 213.2L140.5 213.9L140 214ZM126.6 201.2L126.3 201L126.5 201L126.6 200.5L126.9 201.1L127.2 200.7L127.4 201.4L128.1 201.5L128.1 202L128.7 202.1L129.1 203L128.7 203.7L128.5 202.6L126.9 202L126.6 201.2ZM129.3 183.8L129 183.4L129.8 183.6L130.4 183.1L131.1 183.8L130.4 183.5L130 184.1L130.3 184.5L129.8 184.3L130.1 185.4L129.5 184.8L129.3 183.8ZM325.9 210.4L325.6 210.6L325.4 210.5L324.9 208.3L323.1 206.8L322.5 205.8L321.7 205.3L321.5 204.7L321.7 204.5L323.3 205.4L323.5 205.2L324.5 203.5L324 201.2L324.7 203.8L323.8 205.3L323.7 206.4L325.7 208.1L325.9 209.1L326.4 209.6L325.9 210.4ZM133 130.8L133.4 131.4L133.4 131.8L131.8 131.6L131.6 131L131.8 130.4L132.5 130.8L132.2 130.4L132.3 129.9L133 130.8ZM192 242.5L192 242L193 241.9L194.9 242.9L195.6 242.9L195.2 243.2L194.3 243.2L193.9 242.9L192.3 242.8L192 242.5ZM125.2 212.2L126.2 212L126.1 211.6L125.8 212L125.3 211.6L125.9 211.5L126.1 211.3L125.5 210.9L126.1 210.6L126.7 212.6L125.5 213.4L125.2 212.2ZM138.6 211.4L138.1 212L138 211.5L137.3 212.2L136.9 212.1L137 210.9L137.8 211.2L138 210.9L136.9 210.4L137.3 209.4L137.6 209.3L137.9 209.9L138.4 209.8L138.5 210.3L138 210.3L138.2 211.1L138.6 211L138.6 211.4ZM328.3 238.9L328.6 239.1L328.4 239.9L328 240.3L327.5 240L328.3 238.9ZM351.6 210.7L351.2 208.5L350.3 205.6L351 205L351.3 207.3L352.4 210.6L352.3 212.4L352 211.8L351.7 212.1L351.6 210.7ZM361.7 232.3L361.7 233L359.3 233.3L358.8 233.6L358.6 235.8L357.8 236.4L356.8 236.4L358.4 235.8L358.5 234.8L358.3 234L358.9 232.6L358.8 232.3L358.4 232.8L358.7 231.4L358.2 229.1L359.2 226.7L358.4 225.1L358 224.8L357.2 225L356.3 226.7L355.4 227.5L356.4 225.4L355.4 224.6L354.8 224.7L354.2 225.5L353.6 228.1L352.9 229.4L353.7 226.2L351.4 226.5L352.1 226L353 225.9L353.5 225.3L353.6 225.7L354.7 224.3L356.1 224.7L357.8 224.6L358.5 222.9L358.5 221.6L358 219.7L356.7 218.7L356.8 218.5L357.5 218.5L358.1 219L359.1 221.4L358.7 222.5L358.6 224.9L359.4 226.2L359.4 227.9L360 228.6L359.1 228.2L358.5 228.8L359.2 232.3L358.8 233.2L361.1 233L361.6 232.6L361.6 232.1L361.7 232.3ZM163.9 227L163.7 226.7L164.5 226.8L165.7 226L168.5 226L168.6 226.2L168.3 226.6L165.8 226.4L164.4 227.1L163.9 227ZM169.1 233.2L169.5 233.4L168.8 233.4L166.6 232.3L165.7 232.2L166.2 232L165.3 231.2L166.1 231.7L167.1 231.7L167.6 232.4L168.5 232.6L169.1 233.2ZM167.7 237.7L168.3 238.3L167.2 238.2L167.3 237.9L165.9 236.9L164.9 235.5L165.8 235.8L166 236.5L167 236.9L167.7 237.7ZM165.7 221.5L164.9 221.6L165.1 221.3L166.4 221L167.1 221.9L166.9 222.1L165.7 221.5ZM168 230.7L168.9 230.9L168.1 231L166.7 230.2L165.5 230.5L165.2 230.2L166.9 230.2L168 230.7ZM219.1 162.4L219.1 162.8L218.5 162.7L218.1 163.2L216.9 162.8L217.8 162.5L218.3 161.7L219.1 162.4ZM378.9 88.9L379.1 89.7L377.5 91.1L376.8 90.1L377 89.2L378.3 88.5L378.9 88.9ZM121.7 202.1L121.8 202.6L120.5 203.5L120.7 202.2L121.7 202.1ZM121.5 193.6L121.9 193.9L121.2 194.8L120.3 194.3L120.6 194L121 194L120.3 193.7L120.5 193L120.9 193.1L121.1 193.7L121.5 193.6ZM140.1 190.9L140.9 190.7L140.2 191L140.5 191.4L140.3 191.5L139.9 191.1L139.5 191.3L139.4 190.7L140.1 190.9ZM155 200.6L155.2 200.9L154.9 201.3L153.9 201.8L153.8 201.1L155 200.6ZM132.6 210.2L132.7 210.5L132 211.1L131.4 211L131.4 210.5L132.2 210.1L132.6 210.2ZM124 221.4L124.4 221.7L123.3 222.2L123.7 222.4L123 223.1L123.2 221L123.6 221.2L123.5 221.5L124 221.4ZM143.9 218.8L144.5 219.2L144.3 219.7L143.5 219.7L143.4 219.2L143.9 218.8ZM142 222.2L142.1 222.7L141.4 222.5L141.3 222.9L140.9 222.2L142 222.2ZM163.8 240.4L164.1 241.4L163.2 241.1L163.1 241.9L162.9 241.1L163.3 240.9L163.2 240.6L163.7 240.7L163.6 240.2L163.8 240.4ZM162 240.6L162.4 240.4L162.2 241.2L161.4 241.7L161.5 241.2L162 240.6ZM205.8 212.2L204.2 211.6L205.1 211.4L205.1 211.6L206.1 211.6L206.3 211.8L205.8 212.2ZM195.7 248L195.9 248.7L194.8 247.5L193.3 247.4L191.6 246.6L191.1 245.3L191.9 246.3L192.9 246.8L194.9 247.2L195.7 248ZM189 249.7L190.4 249.3L190 250.2L189.4 250.2L188.7 250.6L188.5 250.6L188.2 250.2L189 249.7ZM234.2 220.4L234.6 220.6L234.5 220.9L232.9 221.3L232 220.9L231.5 220.2L231.7 219.8L232.7 220L233.5 220.7L234.2 220.4ZM292.8 175.7L292.7 176.9L291.7 177.1L291.5 176.4L292.5 175.4L292.8 175.7ZM264.4 194.8L264.9 194.8L263.6 196.3L263.6 198.9L263.2 198.9L262.7 198L262.6 196.1L264.4 194.8ZM404.7 104.5L404.8 105.9L403.9 107L403.6 107.8L404.2 104.1L404.5 104L404.7 104.5ZM370 83.2L370.9 83.8L370.7 84.3L370.5 84.4L369.6 83.8L368.8 84.2L368.5 83.7L368.7 83.2L370 83.2ZM366 77.4L366.3 77.5L365 78.9L364.4 80.6L364.2 79.8L364.7 78.4L366 77.4ZM195.6 242.7L196.7 242.9L198 243.8L198 244.1L195.6 242.7ZM152.4 199.9L151.7 200.1L151.4 199.7L152.1 199.4L152.6 199.7L152.4 199.9ZM153.6 201L153 201.1L152.7 200.8L153 200.4L153.5 200.4L153.6 201ZM126.4 218.6L126 218.7L124.9 218.5L125.9 218.1L126.4 218.2L126.4 218.6ZM124.9 219L125.5 219.2L125.8 220L124 219.5L124.2 219.1L124.9 219ZM124.4 219.8L124.7 219.8L125.1 220.2L125 220.7L124.1 220.3L124.4 219.8ZM127.2 225.4L126.6 225.8L125.9 225.2L126.9 224.7L127.2 224.8L127.2 225.4ZM393.5 52.6L393.9 53.1L393.8 53.4L392.8 54.1L392.4 53.1L393.5 52.6ZM392.6 48.7L392.7 49.6L392.5 50.3L391.8 50.1L391.3 48.8L391.7 48.4L392.6 48.7ZM196.2 240.6L192.2 240.6L192.3 239.9L192.9 239.5L194 239.3L195.1 239.8L195.2 240.4L196 240.3L196.2 240.6ZM283.9 220.4L284.2 220.4L284.4 220.9L283.5 220.9L283.6 220.5L283.9 220.4ZM370.2 67.9L369.7 68.4L369.4 67.8L369.7 67.5L370.2 67.9ZM387.9 44.1L387.2 44L387 43.5L387.6 43.4L387.9 44.1ZM385.6 46.8L384.8 46.4L384.8 45.6L385.1 45.2L385.8 46.5L385.6 46.8ZM376.6 49.3L375.6 50L375.4 49.9L376.8 48.7L376.6 49.3ZM413.5 94.1L414 93.1L414 92.3L414.4 91.6L414.8 91.3L415.4 91.4L416.3 92.7L415.3 92.4L414.9 93.8L415.5 94.6L414.2 93.9L413.5 94.1ZM402.5 98.6L402.8 99.6L402.5 99.6L401.5 97.3L402.5 98.6ZM412.5 103.9L411.9 104.2L411.6 103.9L412.1 102.9L412.6 103.3L412.5 103.9ZM397.2 107L397.3 107.9L397 107.7L396.2 103.2L397.2 107ZM400.7 106.4L399.5 101.8L399.9 102.1L400.6 104.9L401.3 105.8L401.1 106.4L400.9 106.6L400.7 106.4ZM411.2 122L412.1 118.7L412.3 118.5L412.4 118.7L412.9 118.6L413.1 119L412.4 119.8L412.3 121.1L411.6 122L411.2 122ZM415.3 125.2L413.3 124.6L413 124.1L414.6 124.6L415.3 125.2ZM416.6 128.1L415.5 127.3L415.2 125.7L415.7 126.1L416.1 127.2L416.8 127.8L416.9 128.1L416.6 128.1ZM410.2 313.4L411.8 312.1L409.2 315.5L410.3 313.9L409.7 313.4L410.2 313.4ZM421.2 323.4L421.4 323.5L420.6 323.9L419.8 323.6L419.5 323.8L417.7 323.1L416.5 324L417.2 322.5L416.7 322.1L415.4 322L414.4 322.8L414.6 322.2L416 321.1L416.3 321.4L416 321.8L417 322L418.5 323.3L420.7 323.6L421.2 323.4ZM423.1 323.2L423.1 322.9L424.8 322L425.9 321.8L426.6 322L426.8 321.6L426.6 321.1L428.7 320.9L427.9 320.4L427.2 319.5L425.2 318.9L423.5 317.3L422.6 316.9L420.2 316.1L419.3 316.2L417.4 318.3L417 319.7L415.8 320.5L415.1 320.4L414.2 321.3L413.5 321.6L413.5 321.3L414.9 320.2L416.1 320L416.8 319.5L417.6 317L414 318.1L411.9 317.6L410.1 318.5L410.9 317.8L411.9 317.4L414 318L414.8 317.5L418 316.7L419.3 315.7L420.6 315.6L421.2 316L422.7 316.2L424.7 317.7L425.3 318.7L427.2 319.4L428.1 320.3L429.6 320.9L430.5 321L431.1 320.1L431.7 319.7L431.1 319.4L432 319.4L432.1 319.7L431.1 320.4L430.6 321.3L427.3 321.5L426.7 322.1L425.6 322L423.1 323.2ZM351.1 164.7L350.1 164.7L350.9 164.3L352.6 164.5L354.9 164.3L353.3 164.6L352.9 165L353 165.6L354.6 167.1L352.6 165.2L351.1 164.7ZM355 191.9L353 192.1L354.4 191.5L357.8 191.8L355 191.9ZM395.9 206.5L395.1 205.7L394.3 203.7L395.5 206L396.3 206.5L397.2 206.6L396.8 204.9L396 203.1L396 202.5L397 204.6L397.7 207.5L397.5 207.7L397 207L395.9 206.5ZM379.4 217.8L379.2 218.3L378.7 218.2L378.4 216.3L378.9 215.5L378.9 216.5L379.4 217.8ZM321.6 235.9L322 235.4L322.5 235.4L322.4 236.1L322 236.4L321.6 236.3L321.6 235.9ZM363.7 237.6L362.3 237.8L362.1 240.4L361 239.8L360.9 239.5L360.7 239.9L361 238.7L360.5 238.3L361 238.2L361 237.9L360.7 237.8L359.9 238.7L359.6 238.7L360.8 237.3L362.3 234.4L362.2 232.7L361.6 231.1L361.5 229.3L362 227.2L362.1 230.6L362.8 233.7L363.9 236.3L363.7 237.6ZM361.8 237.3L363.1 236.4L362.4 234.7L361 237.6L361.4 237.8L361.8 237.3ZM337.1 219.3L338.1 218.9L337.4 221L337.1 221.3L336.8 219.6L337.1 219.3ZM344.2 220L342.4 222.1L344.7 223.8L344.8 224.6L344.1 225.5L344.6 224.7L344.4 223.8L342.4 222.6L341.9 221.8L344 220L344 217.8L344.2 220ZM381.7 86.4L382.2 86.5L382 86.8L381.5 86.8L381.2 87.2L380.3 86.9L380.6 86.4L381.7 86.4ZM363.5 64.1L362.7 63.7L362.6 63.2L362.8 62.5L363.3 62.3L364 62.7L364 63.9L363.5 64.1ZM370.9 74.4L370.3 75L369.7 74.7L369.4 74.2L370 69.2L370.7 69.4L371.3 70.4L372.6 71.5L370.9 74.4ZM383.3 78.4L382.1 78.7L382.2 78.4L383.2 78.1L383.7 78.3L383.3 78.4ZM266.3 189.1L266.5 188.4L266.9 188.4L267 189.4L266.7 189.5L266.3 189.1ZM267.2 199.3L268.6 199.5L267.5 199.8L267 201.6L266.6 201.1L267.2 199.3ZM222.9 204.4L223.9 204.9L223.4 205.2L222.7 205.1L222.5 204.6L222.9 204.4ZM165.4 279.6L165.9 279.7L165.7 280L166 281.9L166.8 282.6L166.9 283L165.9 282.2L165.7 280.4L164.7 279.9L164.8 279.6L165.4 279.6Z" fill="#E8DFD0" stroke="#C4B7A2" stroke-width=".6"/><path d="M244.1 79.8L244.8 77.1L243.7 75.1L242.7 71.1L243.4 69.2L244.8 67.5L244.4 63.1L245.3 60.6L244.5 59.4L245.7 55L245.5 54.3L246.9 52.3L245.4 46.1L245.2 42.6L245.8 40.1L247.8 36.5L247.8 35.5L249.7 32.8L249.7 31.7M169.3 56.3L169.1 53.9L170.4 49.5L173 49.6L173.8 50.4L176.3 50L177.3 49.2L177.6 47.5L179.3 45.3L179.6 42.5L179.1 41.7L179.4 39.9L178.9 39.4L180 38L179.8 37.5L180.6 37.2L180.4 35.6L179.6 34L180.2 34L179.5 33.1L179.7 32.7L180.3 32.8L178.5 31.3L179.2 30L178.8 29.8L178.4 30.3L178.2 29.4L178.8 28.9L177.9 28.7L177.6 27.4L176.7 26.6L177.3 25.4L178.2 25.4L178.6 24.3L179.1 24.6L179.7 24.1L184.1 23L185.2 21.6L185.4 19.9L186.2 18.5L187.3 18.4M211 202.5L211.3 197L209.7 195.4L209.5 192.9L209 191.9L209.1 189.9L207.5 185.2L202.4 178.3L199.1 177.4L198.7 176.9M395.4 177.6L394.5 178.6L394.5 179.6L395.6 181.4L397.9 183.6L399.7 184.3L401.5 186.2L405.9 189.3L408.2 188.2L409 188.4L411.6 191.8L413.4 195.2L416.5 196.8M396.1 173.9L396.7 172.8L397.5 172.8L398.5 171.5L402.7 169.9L404 167.9L405.5 167.1L406.3 167.8L407.5 166.1L408.2 164.8L408.2 161.6L407.5 160.8L407.4 159.5L405.8 158L405.9 157L407.2 157L407.8 156.2L409.5 155.9L411.7 156.2L412.4 156.7L413 155.9L416.1 157.3M406.5 267.9L408.4 266.4L410.6 266.3L410.9 265.1L409.9 263.2L410.5 261.8L406.7 261.6L405.8 259.7L403.6 257.8L400 258.5L398.3 258.5L397.5 258L397.1 258.6L395.7 258.8L392.6 256.8L391.1 256.9L389.2 255.4L386.6 255.6L385.9 256.6L383.8 257.5L383 258.7L381.2 259.5L380.9 260.6L378.4 263.6L377.9 266.1L378.2 267.3L377.4 267.6L377.6 268.6L378.7 270.2L378 271.1L377.9 276.4L377.2 276.8L374.9 276.2L373.8 277.3M337.2 207.7L336.5 213L333.8 214.6L331.4 214.7L330.5 217L330.7 219.8L329.4 222.4L329.2 223.7L329.9 224.9L329.9 225.9L330.8 227.1L329.2 228.8L330.1 229.9L330 230.7L329.4 231L330 233.2L331.1 234.6L330.8 235.2L329.6 235.6M198.7 176.7L198 177L197.5 178.1L196.2 177.7L194.5 178.2L193.9 179L193.7 178.3L193.1 178.4L193.1 177.9L192.5 178.6L191.5 178.8L192.4 179.4L190.2 181.9L190 182.8L190.5 183.1L190.5 185.3L188 187.7L186.5 191.5L187.4 194.7L186.5 195.4L186 197.3L184.4 198.2L183.3 198.3L182.3 199.6L181.5 199.7L180.4 200.6L179.5 200.3L179.5 199.5L178.2 198.4L176.6 197.9L175.3 196.6L174.2 196.6L172.6 197.7L172.1 196.9L170.6 201.1L168.3 202.4L167.1 202.6L165.4 201.6L163.3 202.1L161.8 201.6L156 202.1L155.7 202.7L154.9 202.6L152.8 204.6L152.6 206.4L151.7 206.5L151.4 207.8L149.3 209.9L148.8 212L147.2 212.7L146.9 213.4L145.8 212.8L146 214L145.6 214.5L144.5 213.7L144.5 214.9L143.7 214.9L143.9 215.8L142.8 216.1M222.5 155.2L221.8 154.5L218.1 154.8L216.7 156.4L215.7 158.6L215.5 161.4L213.7 162.1L210.9 164.4L210.6 165.4L208.8 166.2L207.9 168.7L206 170.5L204.3 172.9L204.4 173.7L200.5 176.1L200.3 175.8L198.7 176.2L198.7 176.7M277.7 216L278.5 214.4L276.3 211.4L275.4 208.1L276.2 205.8L278.5 204.4L279.2 201.6L278.7 200.6L272.7 195.9L271.3 191.9L272.5 189.4L275.5 187.2L278.2 184.1L279.7 183.2L282.6 183L284 183.8L285 185.2L285.2 187.1M261.5 186.5L260 184.9L259.9 183.9L257.9 183.4L257.7 182.9L256 184.1L255.6 183.3L254.1 182.9L252.7 181.5L251.1 181.3L249 180.3L246.2 180.6L245 181.6L243.5 181.3L243 180.5L242.1 180.9L239.9 180.4L238.7 180.7L235.9 183.4L234.7 185.6L234.2 188.2L234.7 191.6L234.2 192.4L234.9 193.5L234.8 196.2L232.6 201.7L231.3 202.7L231.1 205.6M297.9 194.6L297.4 193.7L297.5 191.4L299.9 189.7L300.8 187.3L302.5 185.9L302.9 183.5L301.9 181.2L300.7 180.6L301.2 179.4L297 175.2L296 174.8L295.3 175.2L293.4 173.8L292.5 171.7L291.6 171.9L290.1 170.5L287.2 171.5L285.6 170.8L284.3 171.1L283.7 169.8L284.1 168.2L283 166.4L281.4 165.4L277.8 165.2L276.4 163.7L276.5 162.5L275.8 162.4L275.3 161.5L275.8 160.3L274.6 159.5L274 159.1L273.4 159.4L271.8 159.1L269.4 157.2L267.7 157.7L266 156.2L265.2 156.3L264.5 155.8L263.4 155.5L261.6 156L258.9 152.9L258.9 150.7L257.1 148.1L255 146.6L251.7 146.1L249.4 148.1L246.4 149L245.8 150L242.6 150.2L242.3 149.8L242.5 146.3L242.1 145.9L242.5 144.9L241.8 144L239.4 144.7L238.8 144.1L238.2 145.2L237.3 145.1L236.2 146.4L234.4 145.7L233.1 144.7L232.4 143.1L231.2 142.8L227.8 143L225 144.7L223.4 142.6L223.6 141.6L222.6 142.4L222.3 140.3L221.5 140.5L220.6 139.5L219.6 139.4M315.2 130.3L316.1 127.8L316.2 124.5L317 123.5L319.9 123.6L320.4 122.5L321.4 122.1L322.7 119.8L324.3 114.2L327.1 111.9L328.4 108.6L329.9 108.8L330.7 107.2L330.6 106.1L331.7 106.1L331.8 104.8L332.7 103.9L333.3 104L333.2 102.3L332.4 102.9L332.1 102.4L333.1 100.4L331.8 100.4L332 99.8L330.7 97.4L331.2 96.5L331.1 94.7L330.4 94.3L328.9 94.3L327.4 92.2L324.5 92.2L324.5 90.8L323.8 90.7L322.3 92.2L320.2 93L318.2 92.8L317.3 91.9L315.9 92.5L315.3 92.2L314.4 93L314.6 93.7L313.5 92.9L313.2 93.7L311.9 93.4L311 93.8L310.9 94.7L310.2 94.3L306.2 95.2L304.2 96.8L301.8 97.3L300.8 98.4L300.5 100.5L300 100.8L298.5 100.2L296.9 100.7L297.1 99.8L296.6 99.5L294.3 102.4L293.3 102.5L292.7 104.1L290.5 104.1L289.7 103.6L288.6 104.1L287.3 104L286.3 104.8L285 105L285.4 106L285 106.4L283.9 105.8L284 106.4L282.9 107L282.8 107.8L282.3 107.4L281.6 108.3L281.3 107.6L280.2 108.7L279.5 107.8L279.3 108.8L277.6 108.8L277.4 109.7L276.8 109.8L276.7 110.3L275.8 111.1L274 110.6L272.5 111.7L271.8 111.4L270.5 112.3M229.2 82.7L227.4 92.3L229.2 94.7L230.2 98.1L229.2 101L228 102.2L224.5 103.9L222.6 105.7L222.2 110.1L221.6 111L220.7 111.2L220.5 112.1L219.4 112L218.8 112.9L218.4 112.5L217.3 113L216.2 112.3L215.7 112.6L214.8 112.4L212.1 114.6L210 114.8L209.5 116.1L208.7 115.5L203.9 118.4L204 119.1L203.5 119L201.7 124.2L200.9 124.3L200.7 125.1L200.2 125.2L198.3 127.6L198 127L196.1 127.3L196.4 126.7L195.4 125.8L194.7 125.9L194.9 125.4L194.3 125.5L194.8 124.6L193.1 125.5L193.7 124.6L193 123.4L191.3 124L190.9 123.7L190.9 124.3L190.5 124.1L190.7 123.5L189.9 123.6L189.4 123L188.5 123.6L188.4 123L187.9 123.8L187.5 123L187.1 123.8L186.5 123.6L187 124.3L187.6 124.3L186.3 125.4L185.7 125.1L186.5 126.1L186 126.2L185.8 127.7L185.1 127.7L184.5 129L185.5 129.3L184.6 130.6L186.3 130.9L185.4 131.4L186 131.7L186.2 132.7L185.6 133.1L186 134L183.7 133.9L183.9 133.1L183.1 133.1L182.3 131.9L181.1 131.9L181.2 132.3L180.6 132.3L180.8 132.8L179.4 133.7L176.6 133.5L176.3 133.1L175.8 133.9L175.5 135L176 135.3L176.1 136.8L175.4 137.1L176.3 137.8L175.7 138.6L175.9 141.6L177.3 140.8L178.2 141.9L176.6 142L176.8 143.5L175.2 144.9M403 271L405.6 273.9L407.3 274.6L409.8 277.1L412.5 281.5L411.8 282.5L408.9 282.1L407.7 283.4L407.8 285.5L408.5 287.1L407.8 289.2L409.9 289.8L409.4 291.1L410.5 294.3L409.9 295.2L409.9 296.7L408.9 298.2L406.1 298.7L404.6 300.2L404.5 301.4L405.4 303.1L404 305.8L396.7 309.4L395.9 310.3M381.1 208.1L381.6 210.9L382.4 210.9L383.8 210L387.4 213.5L387.9 214.6L390.9 215.7L392.1 216.8L392.3 217.8L393.6 218.3L393.8 219.3L395.4 220.7L396 222L399 223.5L400.9 226.7L402.5 226.8L403.5 228.3L404.7 228.4L405 229.3L407.1 229.7L408.8 227L410.8 227.6L412 229.2L411.4 230L411.3 231.4L411.9 231.7L412.9 231.3L413.9 231.8L414.6 233.1L415.6 232.4L416.1 232.7M358.2 58.9L357.7 59.6L356.2 60.1L355.6 62.5L358.7 68.6M354.1 63L352 60.2L352.9 58.9L352.5 58.1L351.8 58L352.1 57.4L351.4 56.5M354.1 63L353.2 64.4L352 64.7L351 63.5L348.1 64.2M358.7 68.6L357.8 68.9L357.2 68.6L355.3 64.5L354.1 63M416.6 137.3L414.5 136.9L411.5 134.6L409.6 132.3L407.2 131.1L403.4 130.8L401.4 129.3L401.7 128.3L399.3 125.4L398.7 121.9L399.6 120.2L402.3 118.3L402.1 116.9L400.2 115.9L399.1 113.7L395.2 109.4L393.4 109L391.2 107.6L390.1 104.4L389.7 99.2L388.7 97.6L385.6 96.6L384.2 94.1L383.6 94L382.8 94.7L379.5 94.6L378.7 95.7L372.7 97.8L371.1 99L369.2 99.7L365.4 97.3L364.6 96.4L363.8 94.3L362.3 94.4L361.1 92.3L359.1 90.3L358.9 86.8L358 85.8L357.1 83.2L357.2 78.8L358 78.6L357.6 77.1L358.8 76.8L359.9 74.8L359.6 73.7L360.2 72.3L359.5 71.5L358.7 68.6M156.6 67.2L156.4 65.9L154.9 65.7L154.8 64.1L155.4 63.1L157.6 62.5L158.1 61.8L162.8 61.9L164.2 61L166.9 62.1L167.7 61.4L170.3 61.4L172 62.6L173.1 62.6L173.6 62.2L176.5 62.9L177.1 64L178.7 63.9L179.8 64.7L181.6 64.9L182.1 64.4L184.3 65L185.6 63.7L188.9 62.8L189.9 63.1L190.5 62.6L190.8 63.1L190.9 62.3L192.5 62.1L191.9 61.9L192 61.4L193.9 60.5L194.8 61.1L197.3 60.3L201.3 60.1L204.5 62.5L205.4 61L209 59.6L212.7 56.9L215.7 56.2L216.2 55.5L218.6 54.5L219.7 53.5L222.8 52.8L223.8 52L224.1 48.5L223.2 44.3L223.6 43.6L223.5 42L222.8 41.4L223.2 38.2L223.6 37.7L224.5 38L225.1 38.9L226.8 38.4L227.9 37.4L227.5 36.7L228.5 35.8L230.1 32L232.4 30.4M378.7 152.1L379.4 150.6L381.3 149.7L381.8 148.6L380.5 145.2L380.8 142.7L382 139.5L382.1 136L383.8 132.2L383.4 130.1L382.5 128.9L383.1 127.6L383.1 125.9L382 126L379.8 124.9L377.9 123L375.1 121.6L373 119.5L371 118.4L370.6 115.1L368.3 114.3L367.5 110.6L367.7 108L368.1 107.6L367.8 106L367.3 104.9L365.7 103.5L365.7 102.5L364.3 101.4L364.3 100.1L363.6 99.4L362.6 96L362.6 94.6M376.6 159.2L375.3 159.6L372.1 159.3L368.3 159.9L366.1 161.3L364.2 161.5L363.5 160.9L361 161.2L360.4 162.1L360.6 162.6L362.5 163.8L364.6 164.1L364.6 164.8L363.8 165.9L362.1 166.8L362.1 167.4L357.2 169.9L355.3 169.8L354.9 169.4L352.1 170.2L351.6 168.7L349.9 167.3L346.7 167.2L345.9 167.7L344.9 167.5L340.2 171.2L338.5 170.9L336.9 169.1L334.8 168.8L332 167.3L331.2 167.7L330.6 169.3L328.1 170.3L326.6 172.5L324.6 172.7L323 173.6L322.3 174.7L321.4 174.5L318.7 172.4L318.1 172.5M268.2 111.7L259.5 114.4L257.3 116.7L255.7 116.4L254.3 117L254.5 118.5L253.5 118L253.3 118.8L252.6 118.3L252 118.9L251 118.3L250.2 118.8L249.3 118.6L248.7 119.5L247.4 119.6L246.6 121.1L245.6 121.3L245.1 122.6L244.8 121.7L244.1 122.3L243.3 122.2L243.5 123.3L243.1 123.6L242.5 123.2L241.6 123.9L241.1 125.9L240.2 125.9L239.4 125.2L238.3 125.7L236.8 125.1L234.6 127.4L235.4 128.1L237.1 127.5L236.6 130.4L235.6 129.7L234.9 129.7L234 132.6L230.5 133.1L226.4 137L225.4 136.8L223.8 138.1L222.2 137.8L219.6 139.4M219.6 139.4L217.9 139.3L216.5 140.4L214.6 139.6L213.9 138.6L211.5 139L210.2 140.5L207.9 139.9L203.2 142.5L201.9 143.9L199.1 143.5L195 145L192.7 147L190.9 146.7L183.3 149L182.6 148.8L182.8 147.7L181.9 147.1L181.2 147.3L180.5 145.8L179 146L178.3 145.6L177.7 146L176.8 145L173.8 145.1L172.7 147.1L171 148.7L169.2 152.6L167.6 154.2L168.2 157.1L167.1 160.3L163.8 162.9L163.6 164.4L162.7 165.1L161.6 168L161.4 169.2L161.9 171L160.6 171.9L159.7 173.5L159.3 177.2L157.9 178.1L157.3 179.2L157 181.9L156.1 183.6L156.2 185.8L157.5 188.1L157.8 190.6L159.6 191.6L159.4 193.1L157.6 193.8L156.8 195.7L156.2 196.1L150 196L147.4 197.4L146.9 198.2L147.1 199.5L146.3 200.8L142.2 202.2L142.1 200.2L140.4 196.3L138.5 196.3L138.1 194.7L136.7 195.4L136.4 196.6L135.2 195.8L134.1 196.7L132.7 196.2L131.8 194.3L130.3 193.6L127.2 193.2L126.4 191.5L127.3 188.9L127.3 187L125.2 183.2L122.5 182.4M326 181.3L324.1 180.1L320.3 179.3L317.5 177.6L317 174.5L318.1 172.6L316 170L315.5 166.6L316 165.5L315.7 163.6L316.1 161L317.8 160L318 159.3L316.8 156L315.3 155.6L314.8 154.9L314.3 155.2L313.9 154.6L312.4 154.5L309.7 153.3L310.2 151L309.2 151.3L308.9 150.3L308 150.3L308.1 149.2L307.3 149.5L306.7 148.2L305.4 147.7L305.5 146.8L304.4 145.8L305.1 144.6L304.3 144.3L304.5 143.2L303.1 143.7L302.7 140.6L299.9 138.5L299 138.5L298 136.4L294.5 135.9L293.3 134.9L292 135.9L289 135.3L287.4 135.7L285.1 134.1L284.7 132.3L283.7 131.3L282.6 131.4L281.6 129.8L282.5 126.3L282 124.9L281.2 124.3L281.1 123.2L279.8 122.7L279.5 121.6L276.1 117.6L275.5 115.6L273.2 114L272.1 112.3L268.2 111.7M131.6 194.3L132.4 196.6L131.6 197.9L129.3 197.8L129 198.6L128.3 198.9L127.1 198.2L127.5 197.9L127.3 197.3L127 197.8L126.3 197.8L125.9 196.5L124.4 198.6L123.4 198.3L122.6 199.2L121.4 199.6L121.1 199.1L121.8 199.2L121.6 198.7L119.9 199L119.2 200.3L120.3 201.1M353.5 202.1L353.9 200.8L353 198.4L353.3 197.1L353 196.3L351.9 196.3L348.8 194.9L348.4 194.1L347.3 194L346.5 194.6L343.8 193L343 192.8L342.8 193.2L341.9 192.4L342.3 189.7L340.1 188.1L338.1 184.9L335.3 183.1L334.6 182L332.2 181L330.5 181.5L328.2 181L326.2 181.5M313.7 184.6L314.8 184.6L315.7 185.6L317.3 184.8L317.8 185.6L318.1 189.6L315 191.1L314.4 192.4L314.9 193.6L314.7 195.5L315.9 196.8L317.3 196.6L319.2 202.3L321.5 204.7M317 174.5L315.7 174.4L314.9 173.8L312.9 173.9L312.2 174L310.9 175.5L312.3 179.7L313.3 180.9L313.7 184.6M375.5 233.3L372.8 226.8L369.5 224.1L366.5 220.2M366.5 220.2L360.7 213L357.6 208.5L355.6 206.5L355.3 203.3L354.5 203.1L353.5 202.1M382.4 241.3L380.5 241.6L377.6 240.5L376.5 238.3L375.5 233.3M189.6 237.4L187.6 238.1L187.1 239.1L185.6 238.7L184.1 239.3L183.7 240.1L182.9 239.9L182.6 240.3M352.2 212.4L351 205M351 205L351.7 203.4L351.9 201.7L353.5 202.1M356.7 218.6L354.4 217.2L353.3 217.3L352.7 216.7L352.3 215L351.5 213.7L352.2 212.4M416.2 71.8L415.5 72.4L414.4 71.5L414 72.1L411.8 72.7L410.9 74.4L408.7 75.9L406.8 75.2L404.7 75.8L404 75.2L403.6 76.6L401.5 75.6L401 74L401.3 73.4L402.3 73.4L402.3 72.3L404.1 70.9L403.8 69L404.8 66.8L403.9 65.6L404.5 64.1L404.2 61.6L404.6 60.2L403.9 59.6L405.4 59.3L404.2 56.7L405.6 56.5L404 55.7L405.2 55L405.5 53.5L406.3 53.1L404.6 53.3L404.8 52.1L404.3 50.6L402.1 47.8L400.3 47M385.6 191.4L384.8 194.3L383.3 195.6L383.7 197.1L383.4 198L380.7 199.3L379 198.9L375.7 197L375 197.2L373.5 195.5L363.7 190.2L361.8 188.4L359.8 187.5L357.5 185L355.5 184.1L355.3 183.7L355.8 183.6L354.8 182.3L354 182.1L353 182.6L351.8 182L351.3 182.3L350.1 181.8L349.8 182.2L347.7 181.9L345.5 180.1L343.8 179.9L343.4 181L341.7 180.6L341.4 181.3L341.1 180.6L340.2 180.8L338.6 180.1L335.8 180.5L334.6 180.9L334.7 182M203.7 98L202.6 101.6L201.6 102L198.9 107.3L198.1 107.7L196.7 107.2L193.9 108.5L188.7 108.1L187.1 106.7L185 106.6L184.2 106.1L182.2 106.4L181.5 105.6L179.8 106.1L179.3 106.8L179.1 106.3L177.8 106.1L178.1 105.4L177.4 105.1L176.5 105.4L176.6 104.4L174.8 103.4L174.6 102L173.5 102.8L171.8 102.4L171.5 101.5L170.4 101.9L169.9 101.3L170.4 101.2L170.1 100.7L168.3 99.9L166.3 100.3L164.7 101.2L164.4 100.2L162.5 100.1L161.5 101.4L159.5 102.4L158.2 103.7L157.3 103.5L155.6 104.5L155.2 104.1L152.8 105.4L150.7 105L149.2 105.3L148.2 106.1L147.1 105.9L145.4 106.6L143.8 107.9L142.9 107.6M416.2 291.9L415.8 291.4L413.6 291.7L412.1 291.3L410.8 290.2L409.9 290.3" fill="none" stroke="#C4B7A2" stroke-width=".85" stroke-linejoin="round"/><path d="M306 159.1L309 158.2L309.4 157.6L311 156.7L312.2 156.6L315.1 157.7L318.7 160L322.1 159.5L322.9 159.8L323.4 160.7M290.4 172.6L293.3 172.9M245.2 133.2L246 133.4L247.1 132.7L249.2 133.8L249.1 136.4L250.2 137.4L250.3 138.7L250.7 139.2L253.6 140.7L254.1 143.4L253.5 145.5" fill="none" stroke="#2A2E28" stroke-opacity=".3" stroke-width=".8" stroke-linejoin="round" stroke-linecap="round"/></svg>
